<?xml version="1.0" encoding="UTF-8"?>
<svg id="_レイヤー_2" data-name="レイヤー 2" xmlns="http://www.w3.org/2000/svg" xmlns:xlink="http://www.w3.org/1999/xlink" viewBox="163.54 8.5 249.45 178.58">
  <defs>
    <style>
      .cls-1 {
        fill: #a1a1a1;
      }

      .cls-2 {
        fill: #fff;
      }

      .cls-3 {
        fill: #ccc;
      }

      .cls-4 {
        fill: none;
      }

      .cls-5 {
        clip-path: url(#clippath-1);
      }

      .cls-6 {
        fill: #323333;
      }

      .cls-7 {
        fill: #b8b8b8;
      }

      .cls-8 {
        fill: #a8a8a8;
      }

      .cls-9 {
        fill: #c0bfbf;
      }

      .cls-10 {
        fill: #b0b0b0;
      }

      .cls-11 {
        fill: #999899;
      }

      .cls-12 {
        clip-path: url(#clippath);
      }
    </style>
    <clipPath id="clippath">
      <rect class="cls-4" x="163.54" y="8.5" width="249.45" height="178.58" rx="8.5" ry="8.5"/>
    </clipPath>
    <clipPath id="clippath-1">
      <rect class="cls-4" x="190.47" y="-35.43" width="195.59" height="266.46" transform="translate(386.06 -190.47) rotate(90)"/>
    </clipPath>
  </defs>
  <g id="_印刷" data-name="印刷">
    <g id="_表" data-name="表">
      <g class="cls-12">
        <rect class="cls-3" x="190.47" y="-35.43" width="195.59" height="266.46" transform="translate(386.06 -190.47) rotate(90)"/>
        <circle class="cls-2" cx="393.15" cy="28.35" r="8.5"/>
        <g>
          <path class="cls-6" d="M183.91,175.75v-16.17h4.16c.83,0,1.62.13,2.37.4.75.27,1.43.7,2.02,1.29.6.59,1.07,1.37,1.43,2.33s.53,2.15.53,3.56c0,1.79-.26,3.33-.77,4.61s-1.25,2.26-2.22,2.94-2.13,1.02-3.5,1.02h-4.03ZM185.91,173.75h2.02c.89,0,1.62-.2,2.2-.59.58-.39,1.03-.91,1.37-1.55.34-.64.57-1.35.71-2.13.14-.77.21-1.54.21-2.31,0-1.81-.4-3.19-1.18-4.15-.79-.96-1.84-1.44-3.16-1.44h-2.16v12.17Z"/>
          <path class="cls-11" d="M201.04,176.12c-1.09,0-2-.28-2.75-.83-.74-.55-1.31-1.33-1.69-2.32-.38-1-.58-2.15-.58-3.47s.19-2.5.58-3.48c.38-.99.95-1.76,1.69-2.31.74-.55,1.66-.83,2.75-.83s2,.28,2.74.83c.74.55,1.3,1.32,1.68,2.31.38.99.58,2.15.58,3.48s-.19,2.48-.58,3.47c-.38,1-.94,1.77-1.68,2.32-.74.55-1.65.83-2.74.83ZM201.04,174.14c.74,0,1.33-.2,1.77-.61.44-.41.77-.96.98-1.67.21-.71.31-1.49.31-2.37s-.1-1.7-.31-2.39-.53-1.23-.98-1.63c-.45-.4-1.04-.6-1.77-.6s-1.33.2-1.78.6c-.45.4-.78.94-.99,1.63s-.31,1.49-.31,2.39.1,1.66.31,2.37c.21.71.54,1.26.99,1.67s1.05.61,1.78.61Z"/>
          <path class="cls-11" d="M207.85,175.75c-.11-1.87-.17-3.89-.17-6.05,0-2.16.04-4.35.13-6.56h1.66l.16,1.17c.37-.44.78-.8,1.23-1.06.45-.26.87-.39,1.25-.39.44,0,.81.13,1.1.39.29.26.5.61.62,1.06.35-.43.75-.78,1.2-1.05.44-.27.87-.4,1.27-.4.63,0,1.13.24,1.51.71.38.48.58,1.16.61,2.05.14,3.3.12,6.67-.05,10.12h-1.96c.06-1.09.1-2.2.13-3.32.02-1.13.04-2.21.05-3.25,0-1.04,0-1.99-.03-2.85-.02-.49-.08-.89-.2-1.18-.11-.3-.36-.45-.75-.45-.28,0-.56.14-.85.41-.29.28-.54.58-.76.92l-.14,7.98h-1.54l-.12-7.77c0-.49-.07-.87-.21-1.14-.14-.27-.37-.4-.69-.4-.28,0-.56.13-.86.4-.3.27-.56.57-.79.91-.08,1.53-.09,3.12-.05,4.77s.11,3.31.18,4.98h-1.93Z"/>
          <path class="cls-11" d="M229.2,172.76c0,.41.08.73.24.95.16.22.46.35.89.38v1.84c-.78.03-1.38-.07-1.79-.29-.41-.22-.73-.56-.94-1.02-.34.41-.79.77-1.34,1.06-.56.29-1.29.44-2.2.44-.57,0-1.15-.14-1.74-.43s-1.08-.71-1.46-1.29c-.38-.58-.58-1.31-.58-2.2,0-.84.16-1.54.47-2.08.31-.54.74-.98,1.26-1.3.53-.32,1.1-.56,1.71-.7.61-.15,1.22-.24,1.83-.28.61-.04,1.15-.04,1.64-.01v-.3c0-.58-.05-1.07-.15-1.46s-.31-.69-.64-.89c-.33-.2-.85-.3-1.58-.3-.46,0-.91.05-1.35.15-.44.1-.94.3-1.51.59l-.97-1.7c.72-.38,1.43-.66,2.12-.82.69-.16,1.37-.24,2.05-.24.37,0,.78.03,1.24.1.46.07.9.21,1.33.43.43.21.78.56,1.05,1.04.27.48.4,1.11.4,1.91v6.42ZM222.07,172.09c0,.61.22,1.1.66,1.45.44.35.94.53,1.51.53.84,0,1.49-.2,1.94-.59.45-.39.79-.82,1.02-1.28v-2.55c-.54-.05-1.1-.06-1.7-.03s-1.16.11-1.68.25c-.52.15-.94.4-1.27.75-.32.35-.48.84-.48,1.47Z"/>
          <path class="cls-11" d="M232.65,175.75v-1.96h3.91v-7.64h-2.81v-2h4.67v9.64h3.36v1.96h-9.13ZM237.25,161.95c-.45,0-.83-.17-1.15-.52-.32-.35-.48-.78-.48-1.3s.16-.94.48-1.29c.32-.35.71-.53,1.15-.53s.85.18,1.16.53.47.78.47,1.29-.16.95-.47,1.3c-.31.34-.7.52-1.16.52Z"/>
          <path class="cls-11" d="M244.77,175.75v-12.6h1.75l.18,1.52c.6-.52,1.27-.95,2.02-1.3.75-.34,1.47-.51,2.16-.49.52,0,1,.14,1.45.41.44.28.81.73,1.08,1.36.28.63.41,1.47.41,2.53v8.58h-2.02v-8.21c0-.89-.13-1.53-.4-1.91-.27-.38-.67-.57-1.21-.57-.48,0-1,.13-1.56.39-.57.26-1.2.71-1.91,1.33v8.97h-1.95Z"/>
          <path class="cls-6" d="M268.3,159.58h2.48l5.89,12.31v-12.31h2v16.17h-2.39l-5.98-12.35v12.35h-2v-16.17Z"/>
          <path class="cls-11" d="M289.57,172.76c0,.41.08.73.24.95.16.22.46.35.89.38v1.84c-.78.03-1.38-.07-1.79-.29-.41-.22-.73-.56-.94-1.02-.34.41-.79.77-1.34,1.06-.56.29-1.29.44-2.2.44-.57,0-1.15-.14-1.74-.43s-1.08-.71-1.46-1.29c-.38-.58-.58-1.31-.58-2.2,0-.84.16-1.54.47-2.08.31-.54.74-.98,1.26-1.3.53-.32,1.1-.56,1.71-.7.61-.15,1.22-.24,1.83-.28.61-.04,1.15-.04,1.64-.01v-.3c0-.58-.05-1.07-.15-1.46s-.31-.69-.64-.89c-.33-.2-.85-.3-1.58-.3-.46,0-.91.05-1.35.15-.44.1-.94.3-1.51.59l-.97-1.7c.72-.38,1.43-.66,2.12-.82.69-.16,1.37-.24,2.05-.24.37,0,.78.03,1.24.1.46.07.9.21,1.33.43.43.21.78.56,1.05,1.04.27.48.4,1.11.4,1.91v6.42ZM282.44,172.09c0,.61.22,1.1.66,1.45.44.35.94.53,1.51.53.84,0,1.49-.2,1.94-.59.45-.39.79-.82,1.02-1.28v-2.55c-.54-.05-1.1-.06-1.7-.03s-1.16.11-1.68.25c-.52.15-.94.4-1.27.75-.32.35-.48.84-.48,1.47Z"/>
          <path class="cls-11" d="M292.38,175.75c-.11-1.87-.17-3.89-.17-6.05,0-2.16.03-4.35.13-6.56h1.66l.16,1.17c.37-.44.78-.8,1.23-1.06s.87-.39,1.25-.39c.44,0,.81.13,1.1.39s.5.61.62,1.06c.35-.43.75-.78,1.2-1.05.44-.27.87-.4,1.26-.4.63,0,1.13.24,1.51.71.38.48.58,1.16.61,2.05.14,3.3.12,6.67-.05,10.12h-1.96c.06-1.09.1-2.2.13-3.32.02-1.13.04-2.21.05-3.25,0-1.04,0-1.99-.04-2.85-.02-.49-.08-.89-.2-1.18-.12-.3-.36-.45-.75-.45-.28,0-.56.14-.85.41s-.54.58-.76.92l-.14,7.98h-1.54l-.12-7.77c0-.49-.07-.87-.21-1.14-.14-.27-.37-.4-.69-.4-.28,0-.56.13-.86.4-.3.27-.56.57-.79.91-.08,1.53-.09,3.12-.05,4.77.05,1.65.11,3.31.18,4.98h-1.93Z"/>
          <path class="cls-11" d="M310.06,176.12c-1.09,0-2.05-.25-2.88-.76-.83-.51-1.48-1.25-1.94-2.23-.47-.98-.7-2.18-.7-3.59,0-2.15.47-3.79,1.4-4.94.93-1.15,2.2-1.73,3.79-1.73,1,0,1.84.23,2.52.7.68.47,1.21,1.09,1.59,1.87.38.78.61,1.64.69,2.58.08.94.01,1.86-.22,2.76h-7.77c.09.83.31,1.49.67,1.98.35.49.8.85,1.33,1.07.54.22,1.1.33,1.7.33.32,0,.77-.05,1.33-.16s1.2-.33,1.89-.67l.67,1.72c-.9.48-1.68.77-2.32.89-.64.12-1.23.17-1.75.17ZM306.45,168.85h6.33c.06-.71-.02-1.36-.24-1.97-.22-.61-.58-1.09-1.06-1.46-.48-.37-1.08-.55-1.78-.55s-1.28.18-1.76.55c-.48.37-.85.85-1.1,1.46-.25.61-.38,1.26-.38,1.97Z"/>
          <path class="cls-6" d="M328.53,173.66l1.29-1.54c.58.6,1.25,1.07,2,1.41.75.34,1.52.52,2.3.52.97,0,1.74-.22,2.31-.66.58-.44.86-1.02.86-1.76,0-.48-.15-.88-.45-1.21-.3-.33-.69-.63-1.17-.9-.48-.27-1.02-.52-1.61-.77-.59-.25-1.18-.51-1.76-.79-.58-.28-1.12-.62-1.6-1-.48-.38-.87-.84-1.17-1.36-.3-.52-.45-1.16-.45-1.91s.15-1.36.46-1.92c.31-.56.71-1.03,1.21-1.41.5-.38,1.04-.67,1.62-.86.58-.19,1.14-.29,1.68-.29.94,0,1.83.2,2.67.61.84.41,1.56.98,2.16,1.71l-1.36,1.4c-.55-.61-1.1-1.04-1.63-1.29-.54-.25-1.15-.37-1.84-.37-.44,0-.89.1-1.34.29-.45.19-.84.47-1.15.83-.31.36-.47.78-.47,1.25s.15.91.45,1.27c.3.35.69.66,1.18.93.49.27,1.03.53,1.61.79.58.26,1.16.53,1.74.82s1.11.61,1.6.99c.49.38.89.82,1.18,1.33s.45,1.13.45,1.85c0,1.35-.44,2.43-1.33,3.25s-2.17,1.23-3.84,1.23c-1.09,0-2.12-.24-3.11-.71-.98-.47-1.81-1.06-2.48-1.75Z"/>
          <path class="cls-11" d="M343.09,180.65v-2h2.67c.74,0,1.31-.07,1.74-.22.42-.15.71-.4.87-.75s.24-.82.24-1.4v-1.93c-.41.38-.87.71-1.37.98-.5.27-1.05.39-1.64.38-.61-.02-1.18-.19-1.7-.53-.52-.34-.93-.87-1.23-1.61-.3-.74-.45-1.71-.45-2.92l.05-5.47-1.7-.28v-1.56h3.63v6.16c0,.77.04,1.45.12,2.06.08.61.24,1.08.48,1.44.25.35.63.53,1.15.53.48,0,.94-.13,1.38-.38.44-.25.87-.57,1.29-.96v-8.95h2v13.06c0,1.52-.33,2.62-.98,3.31-.65.69-1.61,1.04-2.86,1.04h-3.68Z"/>
          <path class="cls-11" d="M353.37,174.16l1.24-1.54c.55.41,1.14.76,1.76,1.05.62.28,1.23.43,1.83.43.8,0,1.4-.15,1.8-.44.41-.29.61-.67.61-1.13,0-.43-.16-.8-.48-1.1s-.74-.58-1.26-.82c-.52-.24-1.07-.47-1.64-.69-.58-.22-1.12-.48-1.64-.78-.52-.3-.94-.66-1.27-1.09-.32-.43-.48-.97-.48-1.61,0-.58.13-1.09.4-1.53.27-.44.62-.81,1.06-1.12.44-.31.91-.53,1.42-.68.51-.15,1.01-.22,1.48-.22.84,0,1.58.15,2.22.46.64.31,1.26.75,1.88,1.33l-1.22,1.45c-.46-.4-.91-.71-1.36-.92-.45-.21-.95-.32-1.52-.32-.6,0-1.14.14-1.62.41-.48.28-.73.64-.75,1.08-.01.34.13.63.45.89s.73.49,1.25.72c.52.23,1.07.48,1.66.74.58.26,1.13.56,1.66.89.52.33.95.73,1.28,1.21.33.47.5,1.03.5,1.68,0,1.09-.38,1.96-1.15,2.61s-1.86.98-3.27.98c-.92,0-1.81-.19-2.67-.56-.86-.38-1.58-.83-2.16-1.37Z"/>
          <path class="cls-11" d="M370.95,175.75c-.74,0-1.29-.19-1.67-.58-.38-.38-.63-.89-.76-1.51-.13-.62-.2-1.27-.2-1.94v-6.49h-3.13v-2h3.13v-2.94h2v2.94h4.21v2h-4.21v6.49c0,.31.03.61.1.92.07.31.22.56.46.76.24.2.6.3,1.09.3h2.48v2.05h-3.52Z"/>
          <path class="cls-11" d="M382.51,176.12c-1.09,0-2.05-.25-2.88-.76-.83-.51-1.48-1.25-1.94-2.23s-.7-2.18-.7-3.59c0-2.15.47-3.79,1.4-4.94.93-1.15,2.2-1.73,3.79-1.73,1,0,1.84.23,2.52.7.68.47,1.21,1.09,1.59,1.87.38.78.61,1.64.69,2.58.08.94.01,1.86-.22,2.76h-7.77c.09.83.31,1.49.67,1.98.35.49.8.85,1.33,1.07.54.22,1.1.33,1.7.33.32,0,.77-.05,1.33-.16s1.2-.33,1.89-.67l.67,1.72c-.9.48-1.68.77-2.32.89-.64.12-1.23.17-1.75.17ZM378.9,168.85h6.33c.06-.71-.02-1.36-.24-1.97-.22-.61-.58-1.09-1.06-1.46-.48-.37-1.08-.55-1.78-.55s-1.28.18-1.76.55c-.48.37-.85.85-1.1,1.46-.25.61-.38,1.26-.38,1.97Z"/>
          <path class="cls-11" d="M388.98,175.75c-.11-1.87-.17-3.89-.17-6.05,0-2.16.03-4.35.13-6.56h1.66l.16,1.17c.37-.44.78-.8,1.23-1.06s.87-.39,1.25-.39c.44,0,.81.13,1.1.39s.5.61.62,1.06c.35-.43.75-.78,1.2-1.05.44-.27.87-.4,1.26-.4.63,0,1.13.24,1.51.71.38.48.58,1.16.61,2.05.14,3.3.12,6.67-.05,10.12h-1.96c.06-1.09.1-2.2.13-3.32.02-1.13.04-2.21.05-3.25,0-1.04,0-1.99-.04-2.85-.01-.49-.08-.89-.2-1.18-.12-.3-.36-.45-.75-.45-.28,0-.56.14-.85.41s-.54.58-.76.92l-.14,7.98h-1.54l-.12-7.77c0-.49-.07-.87-.21-1.14-.14-.27-.37-.4-.69-.4-.28,0-.56.13-.86.4-.3.27-.56.57-.79.91-.08,1.53-.09,3.12-.05,4.77s.11,3.31.18,4.98h-1.93Z"/>
        </g>
        <g>
          <path class="cls-6" d="M178.24,61.84V22.08h10.98c2.2,0,4.31.33,6.33.98,2.02.65,3.82,1.71,5.4,3.16s2.84,3.37,3.75,5.74c.92,2.37,1.37,5.29,1.37,8.76,0,4.41-.67,8.19-2.02,11.34-1.34,3.16-3.3,5.57-5.88,7.25-2.58,1.68-5.66,2.52-9.24,2.52h-10.7ZM183.56,56.91h5.38c2.35,0,4.29-.48,5.82-1.43,1.53-.95,2.73-2.22,3.61-3.81.88-1.59,1.5-3.33,1.88-5.24.37-1.9.56-3.81.56-5.71,0-4.44-1.06-7.84-3.16-10.19-2.11-2.35-4.92-3.53-8.43-3.53h-5.66v29.9Z"/>
          <path class="cls-6" d="M211.5,22.08h6.55l15.68,30.24v-30.24h5.32v39.76h-6.33l-15.9-30.35v30.35h-5.32V22.08Z"/>
          <path class="cls-6" d="M244.76,56.69l3.42-3.81c1.57,1.49,3.35,2.66,5.35,3.5,2,.84,4.04,1.26,6.13,1.26,2.54,0,4.57-.53,6.1-1.6,1.53-1.06,2.3-2.51,2.3-4.34,0-1.16-.4-2.15-1.2-2.97-.8-.82-1.85-1.56-3.14-2.21-1.29-.65-2.71-1.28-4.26-1.88-1.55-.6-3.1-1.25-4.65-1.96-1.55-.71-2.97-1.53-4.26-2.46-1.29-.93-2.32-2.04-3.11-3.33s-1.18-2.85-1.18-4.68.4-3.38,1.2-4.76c.8-1.38,1.87-2.54,3.19-3.47,1.33-.93,2.76-1.63,4.31-2.1,1.55-.47,3.05-.7,4.51-.7,2.43,0,4.76.5,7,1.48s4.16,2.4,5.77,4.23l-3.58,3.42c-1.49-1.49-2.95-2.54-4.37-3.14-1.42-.6-3.02-.9-4.82-.9-1.2,0-2.4.23-3.61.7-1.21.47-2.24,1.14-3.08,2.02-.84.88-1.26,1.91-1.26,3.11s.4,2.22,1.2,3.08c.8.86,1.86,1.62,3.16,2.3,1.31.67,2.73,1.33,4.28,1.96,1.55.64,3.09,1.31,4.62,2.02,1.53.71,2.95,1.52,4.26,2.44,1.31.92,2.35,2.01,3.14,3.28.78,1.27,1.18,2.78,1.18,4.54,0,3.32-1.18,5.99-3.53,8.01-2.35,2.02-5.75,3.02-10.19,3.02-2.91,0-5.67-.58-8.26-1.74-2.6-1.16-4.81-2.59-6.64-4.31Z"/>
        </g>
        <g class="cls-5">
          <g>
            <path class="cls-11" d="M174.88,84.74v-1.18l3.66-2.33-3.66-2.28v-1.18h.11l4.37,2.87v1.18l-4.37,2.92h-.11Z"/>
            <path class="cls-11" d="M186.98,79.07h1.99v-1.37c0-.46.07-.83.21-1.09.14-.26.31-.45.52-.57s.41-.19.62-.22.39-.04.52-.04c.34,0,.67.05,1.01.16.34.11.65.26.95.46l-.46.88c-.22-.14-.44-.25-.68-.33s-.45-.13-.63-.13c-.3,0-.53.05-.68.16-.15.11-.25.26-.31.47s-.08.46-.08.76v.85h2.05v1.04h-2.05v5.04c0,.35-.03.69-.09,1.01-.06.32-.18.59-.37.79-.19.2-.48.3-.87.3h-1.61v-1.07h1.07c.26,0,.45-.05.57-.16.12-.1.21-.24.25-.4s.06-.32.06-.48v-5.04h-1.99v-1.04Z"/>
            <path class="cls-11" d="M194.42,87.43v-1.04h1.39c.38,0,.69-.04.91-.11.22-.08.37-.21.46-.39.08-.18.13-.43.13-.73v-1.01c-.22.2-.45.37-.71.51-.26.14-.55.21-.86.2-.32,0-.62-.1-.89-.28-.27-.18-.49-.46-.64-.84-.16-.38-.23-.89-.23-1.52l.02-2.86-.89-.14v-.82h1.9v3.22c0,.4.02.76.06,1.07.04.32.12.57.25.75.13.18.33.28.6.28.25,0,.49-.07.72-.2s.46-.3.67-.5v-4.67h1.04v6.82c0,.79-.17,1.37-.51,1.73-.34.36-.84.54-1.49.54h-1.92Z"/>
            <path class="cls-11" d="M199.58,79.07h1.99v-1.37c0-.46.07-.83.21-1.09.14-.26.31-.45.52-.57s.41-.19.62-.22.39-.04.52-.04c.34,0,.67.05,1.01.16.34.11.65.26.95.46l-.46.88c-.22-.14-.44-.25-.68-.33s-.45-.13-.63-.13c-.3,0-.53.05-.68.16-.15.11-.25.26-.31.47s-.08.46-.08.76v.85h2.05v1.04h-2.05v5.04c0,.35-.03.69-.09,1.01-.06.32-.18.59-.37.79-.19.2-.48.3-.87.3h-1.61v-1.07h1.07c.26,0,.45-.05.57-.16.12-.1.21-.24.25-.4s.06-.32.06-.48v-5.04h-1.99v-1.04Z"/>
            <path class="cls-11" d="M210.68,80.72v1.02h-4.37v-1.02h4.37Z"/>
            <path class="cls-11" d="M212.72,84.87v-8.03l-.98-.19v-.68h1.99v3.26c.3-.23.63-.43.98-.59.35-.16.7-.24,1.05-.23.29,0,.55.07.78.2.23.14.42.36.55.67.14.31.2.73.2,1.27v4.33h-1.06v-4.03c0-.46-.07-.78-.2-.98-.14-.2-.35-.3-.64-.3-.23,0-.48.06-.76.18-.27.12-.58.32-.91.6v4.54h-1.01Z"/>
            <path class="cls-11" d="M221.1,85.1c-.25,0-.46-.1-.63-.29-.17-.2-.26-.43-.26-.69,0-.28.09-.52.26-.71.17-.19.38-.29.63-.29s.46.1.62.29c.17.19.25.43.25.71,0,.26-.08.49-.25.69-.17.2-.38.29-.62.29Z"/>
            <path class="cls-11" d="M227.7,85.07c-.9,0-1.61-.29-2.12-.89-.51-.6-.77-1.45-.77-2.54s.25-1.95.74-2.56c.49-.61,1.18-.92,2.06-.92.47,0,.89.13,1.27.4.37.26.65.63.85,1.09l-.8.42c-.13-.28-.31-.49-.53-.64-.23-.15-.49-.22-.77-.22-.56,0-1,.21-1.31.64-.32.43-.47,1.03-.47,1.79s.16,1.34.49,1.76c.33.42.79.64,1.39.64.33,0,.63-.07.9-.2.27-.14.53-.32.77-.54l.53.85c-.28.28-.61.5-.99.67-.38.16-.78.25-1.21.26Z"/>
            <path class="cls-11" d="M233.71,85.07c-.57,0-1.05-.14-1.43-.43-.39-.29-.68-.69-.88-1.21-.2-.52-.3-1.12-.3-1.81s.1-1.3.3-1.82.49-.92.88-1.21c.39-.29.87-.43,1.43-.43s1.04.14,1.43.43.68.69.88,1.21.3,1.12.3,1.82-.1,1.29-.3,1.81c-.2.52-.49.92-.88,1.21s-.86.43-1.43.43ZM233.71,84.03c.38,0,.69-.11.92-.32.23-.21.4-.5.51-.87.11-.37.16-.78.16-1.24s-.05-.89-.16-1.25c-.11-.36-.28-.64-.51-.85-.23-.21-.54-.31-.92-.31s-.69.1-.93.31c-.24.21-.41.49-.52.85-.11.36-.16.78-.16,1.25s.05.87.16,1.24c.11.37.28.66.52.87.24.21.55.32.93.32Z"/>
            <path class="cls-11" d="M237.26,84.87c-.06-.98-.09-2.03-.09-3.16,0-1.13.02-2.27.07-3.42h.86l.08.61c.19-.23.41-.42.64-.55.24-.14.45-.2.65-.2.23,0,.42.07.58.2.15.14.26.32.32.55.18-.22.39-.41.62-.55.23-.14.45-.21.66-.21.33,0,.59.12.79.37.2.25.3.6.32,1.07.07,1.72.06,3.48-.02,5.28h-1.02c.03-.57.05-1.15.07-1.73.01-.59.02-1.15.02-1.7s0-1.04-.02-1.49c0-.26-.04-.46-.1-.62-.06-.16-.19-.23-.39-.23-.14,0-.29.07-.44.22-.15.14-.28.3-.4.48l-.07,4.16h-.8l-.06-4.06c0-.26-.04-.45-.11-.59-.07-.14-.19-.21-.36-.21-.14,0-.29.07-.45.21-.16.14-.29.3-.41.47-.04.8-.05,1.63-.02,2.49.02.86.06,1.73.1,2.6h-1.01Z"/>
            <path class="cls-11" d="M246.31,80.12c-.22,0-.41-.09-.57-.26s-.23-.38-.23-.62.08-.46.23-.63c.16-.17.35-.26.57-.26s.4.09.56.26c.16.17.23.38.23.63s-.08.45-.23.62-.34.26-.56.26ZM246.31,84.87c-.22,0-.41-.09-.57-.26s-.23-.38-.23-.62.08-.46.23-.63.35-.26.57-.26.4.09.56.26.23.38.23.63-.08.45-.23.62-.34.26-.56.26Z"/>
            <path class="cls-11" d="M259.36,84.87c-.38,0-.67-.1-.87-.3-.2-.2-.33-.46-.4-.79s-.1-.66-.1-1.01v-3.38h-1.63v-1.04h1.63v-1.54h1.04v1.54h2.2v1.04h-2.2v3.38c0,.16.02.32.05.48s.12.29.24.4c.12.1.31.16.57.16h1.3v1.07h-1.84Z"/>
            <path class="cls-11" d="M263.72,87.43v-1.04h1.39c.38,0,.69-.04.91-.11.22-.08.37-.21.46-.39.08-.18.13-.43.13-.73v-1.01c-.22.2-.45.37-.71.51-.26.14-.55.21-.86.2-.32,0-.62-.1-.89-.28-.27-.18-.49-.46-.64-.84-.16-.38-.23-.89-.23-1.52l.02-2.86-.89-.14v-.82h1.9v3.22c0,.4.02.76.06,1.07.04.32.12.57.25.75.13.18.33.28.6.28.25,0,.49-.07.72-.2s.46-.3.67-.5v-4.67h1.04v6.82c0,.79-.17,1.37-.51,1.73-.34.36-.84.54-1.49.54h-1.92Z"/>
            <path class="cls-11" d="M269.44,87.21v-8.09l-1-.19v-.68h1.88l.11.66c.18-.21.41-.39.68-.53.27-.15.57-.22.89-.22.46,0,.86.13,1.21.39.35.26.61.63.79,1.12.18.49.25,1.07.21,1.75-.04.66-.18,1.25-.41,1.77-.24.52-.54.94-.92,1.24s-.81.45-1.3.45c-.24,0-.45-.04-.64-.13-.19-.09-.35-.2-.5-.32v2.8h-1ZM271.52,83.84c.31,0,.59-.11.82-.33.24-.22.43-.51.57-.88.14-.37.23-.77.26-1.21.05-.66-.03-1.19-.25-1.61-.21-.42-.56-.62-1.04-.62-.31,0-.6.1-.86.31s-.46.48-.61.8v2.69c.1.24.24.44.43.61.19.16.41.25.66.25Z"/>
            <path class="cls-11" d="M277.99,85.07c-.57,0-1.07-.13-1.5-.4s-.77-.65-1.01-1.16c-.24-.51-.37-1.14-.37-1.87,0-1.12.24-1.98.73-2.58.49-.6,1.15-.9,1.98-.9.52,0,.96.12,1.31.37.36.24.63.57.83.98.2.41.32.86.36,1.34.04.49,0,.97-.11,1.44h-4.06c.05.43.16.78.35,1.03.18.26.42.44.7.56s.58.17.89.17c.17,0,.4-.03.7-.08.3-.06.62-.17.98-.35l.35.9c-.47.25-.88.4-1.21.46-.34.06-.64.09-.91.09ZM276.11,81.27h3.3c.03-.37,0-.71-.13-1.03s-.3-.57-.55-.76c-.25-.19-.56-.29-.93-.29s-.67.1-.92.29c-.25.19-.44.45-.58.76-.13.32-.2.66-.2,1.03Z"/>
            <path class="cls-11" d="M287.63,83.78l.67-.8c.3.31.65.56,1.04.74.39.18.79.27,1.2.27.5,0,.91-.11,1.21-.34.3-.23.45-.53.45-.92,0-.25-.08-.46-.23-.63-.16-.17-.36-.33-.61-.47-.25-.14-.53-.27-.84-.4-.31-.13-.61-.27-.92-.41-.3-.15-.58-.32-.83-.52s-.46-.44-.61-.71c-.16-.27-.23-.6-.23-1s.08-.71.24-1c.16-.29.37-.54.63-.74.26-.2.54-.35.85-.45.3-.1.6-.15.88-.15.49,0,.95.11,1.39.32.44.21.82.51,1.13.89l-.71.73c-.29-.32-.57-.54-.85-.67-.28-.13-.6-.19-.96-.19-.23,0-.47.05-.7.15-.24.1-.44.24-.6.43-.16.19-.25.41-.25.65s.08.48.23.66c.16.18.36.35.62.49s.54.28.84.41c.3.14.61.28.91.43.3.15.58.32.83.52.26.2.46.43.62.7.16.27.23.59.23.97,0,.7-.23,1.27-.7,1.7-.46.43-1.13.64-2,.64-.57,0-1.11-.12-1.62-.37s-.94-.55-1.3-.91Z"/>
            <path class="cls-11" d="M296.7,85.07c-.53,0-.97-.11-1.34-.34-.36-.23-.66-.54-.89-.95-.23-.4-.39-.87-.5-1.4s-.16-1.1-.16-1.72.05-1.2.16-1.73c.1-.53.27-.99.5-1.4.23-.4.52-.72.89-.95.36-.23.81-.34,1.34-.34s.96.11,1.33.34c.37.23.66.54.89.95.22.4.39.87.49,1.4.1.53.16,1.1.16,1.73s-.05,1.19-.16,1.72c-.1.53-.27.99-.49,1.4-.22.4-.52.72-.89.95-.37.23-.81.34-1.33.34ZM296.7,84.01c.37,0,.67-.09.91-.27.24-.18.42-.43.55-.74.13-.31.22-.67.28-1.07.05-.4.08-.83.08-1.27s-.03-.87-.08-1.28c-.05-.4-.14-.76-.28-1.07-.13-.31-.32-.56-.55-.74-.24-.18-.54-.27-.91-.27s-.68.09-.91.27c-.23.18-.42.43-.55.74-.14.31-.23.67-.28,1.07-.05.4-.08.83-.08,1.28s.03.86.08,1.27c.05.4.15.76.28,1.07.14.31.32.56.55.74.23.18.54.27.91.27Z"/>
            <path class="cls-11" d="M300.11,84.87c.36-1.81.73-3.41,1.12-4.82.38-1.4.79-2.61,1.22-3.62h1.12c.44,1.01.85,2.21,1.23,3.62.38,1.4.75,3.01,1.11,4.82h-1.08c-.07-.35-.14-.7-.21-1.03s-.13-.66-.2-.98h-2.82c-.06.32-.13.65-.2.98s-.14.68-.21,1.03h-1.08ZM301.83,81.81h2.34c-.18-.81-.37-1.57-.56-2.27-.19-.71-.39-1.36-.6-1.95-.22.59-.42,1.24-.61,1.95s-.38,1.47-.56,2.27Z"/>
            <path class="cls-11" d="M308.42,87.17h-.65l.86-2.62c-.13-.17-.19-.36-.19-.58,0-.24.08-.45.24-.62.16-.18.35-.26.58-.26s.4.09.55.26c.15.18.23.38.23.62,0,.16-.03.3-.1.43l-1.52,2.76Z"/>
            <path class="cls-11" d="M322.2,85.07c-.9,0-1.61-.29-2.12-.89-.51-.6-.77-1.45-.77-2.54s.25-1.95.74-2.56c.49-.61,1.18-.92,2.06-.92.47,0,.89.13,1.27.4.37.26.65.63.85,1.09l-.8.42c-.13-.28-.31-.49-.53-.64-.23-.15-.49-.22-.77-.22-.56,0-1,.21-1.31.64-.32.43-.47,1.03-.47,1.79s.16,1.34.49,1.76c.33.42.79.64,1.39.64.33,0,.63-.07.9-.2.27-.14.53-.32.77-.54l.53.85c-.28.28-.61.5-.99.67-.38.16-.78.25-1.21.26Z"/>
            <path class="cls-11" d="M325.89,75.97h2.32v6.8c0,.16.02.32.05.48s.11.29.24.4c.13.1.32.16.56.16h1.26v1.07h-1.78c-.39,0-.69-.1-.89-.3-.2-.2-.33-.46-.4-.79-.06-.32-.1-.66-.1-1.01v-5.88l-1.27-.25v-.67Z"/>
            <path class="cls-11" d="M336.6,83.31c0,.22.04.38.13.5.08.12.24.18.46.2v.96c-.41.02-.72-.03-.94-.15-.22-.12-.38-.29-.49-.53-.18.22-.41.4-.7.55-.29.15-.67.23-1.15.23-.3,0-.6-.07-.91-.22-.31-.15-.56-.37-.76-.67s-.3-.68-.3-1.15.08-.8.25-1.09c.16-.28.38-.51.66-.68.28-.17.57-.29.89-.37.32-.08.64-.12.95-.14.32-.02.6-.02.86,0v-.16c0-.3-.03-.56-.08-.76s-.16-.36-.34-.46c-.17-.1-.45-.16-.82-.16-.24,0-.47.03-.7.08-.23.05-.49.15-.79.31l-.5-.89c.38-.2.74-.34,1.1-.43.36-.08.72-.13,1.07-.13.19,0,.41.02.65.05s.47.11.7.22c.22.11.41.29.55.54.14.25.21.58.21,1v3.35ZM332.88,82.96c0,.32.11.57.34.76.23.18.49.28.79.28.44,0,.78-.1,1.01-.31s.41-.43.53-.67v-1.33c-.28-.02-.58-.03-.89-.02-.31.01-.6.06-.88.13-.27.08-.49.21-.66.39-.17.18-.25.44-.25.77Z"/>
            <path class="cls-11" d="M338.39,84.05l.65-.8c.29.22.59.4.92.55s.64.22.95.22c.42,0,.73-.08.94-.23s.32-.35.32-.59c0-.22-.08-.42-.25-.58s-.39-.3-.66-.43c-.27-.12-.56-.24-.86-.36s-.59-.25-.86-.41c-.27-.16-.49-.35-.66-.57-.17-.22-.25-.5-.25-.84,0-.3.07-.57.21-.8.14-.23.32-.42.55-.58.23-.16.48-.28.74-.35.27-.08.53-.11.77-.11.44,0,.83.08,1.16.24s.66.39.98.7l-.64.76c-.24-.21-.48-.37-.71-.48s-.5-.17-.79-.17c-.31,0-.59.07-.85.22-.25.14-.38.33-.39.56,0,.18.07.33.23.46s.38.26.65.38c.27.12.56.25.86.38.3.14.59.29.86.46.27.17.49.38.67.63.17.25.26.54.26.88,0,.57-.2,1.02-.6,1.36-.4.34-.97.51-1.7.51-.48,0-.94-.1-1.39-.29-.45-.2-.82-.43-1.13-.71Z"/>
            <path class="cls-11" d="M344.69,84.05l.65-.8c.29.22.59.4.92.55s.64.22.95.22c.42,0,.73-.08.94-.23s.32-.35.32-.59c0-.22-.08-.42-.25-.58s-.39-.3-.66-.43c-.27-.12-.56-.24-.86-.36s-.59-.25-.86-.41c-.27-.16-.49-.35-.66-.57-.17-.22-.25-.5-.25-.84,0-.3.07-.57.21-.8.14-.23.32-.42.55-.58.23-.16.48-.28.74-.35.27-.08.53-.11.77-.11.44,0,.83.08,1.16.24s.66.39.98.7l-.64.76c-.24-.21-.48-.37-.71-.48s-.5-.17-.79-.17c-.31,0-.59.07-.85.22-.25.14-.38.33-.39.56,0,.18.07.33.23.46s.38.26.65.38c.27.12.56.25.86.38.3.14.59.29.86.46.27.17.49.38.67.63.17.25.26.54.26.88,0,.57-.2,1.02-.6,1.36-.4.34-.97.51-1.7.51-.48,0-.94-.1-1.39-.29-.45-.2-.82-.43-1.13-.71Z"/>
            <path class="cls-11" d="M362.05,84.87h-4.69v-1.04h1.82v-6.35h-1.76v-1.04h4.57v1.04h-1.76v6.35h1.82v1.04Z"/>
            <path class="cls-11" d="M363.3,76.44h1.3l3.07,6.42v-6.42h1.04v8.44h-1.25l-3.12-6.44v6.44h-1.04v-8.44Z"/>
          </g>
          <g>
            <path class="cls-1" d="M56.7,93.27h1.99v-1.37c0-.46.07-.83.21-1.09.14-.26.31-.45.52-.57s.41-.19.62-.22c.21-.03.39-.04.52-.04.34,0,.67.05,1.01.16.34.11.65.26.95.46l-.46.88c-.22-.14-.44-.25-.68-.33-.24-.08-.45-.13-.63-.13-.3,0-.53.05-.68.16-.15.11-.25.26-.31.47s-.08.46-.08.76v.85h2.05v1.04h-2.05v5.04c0,.35-.03.69-.09,1.01s-.18.59-.37.79c-.19.2-.48.3-.87.3h-1.61v-1.07h1.07c.26,0,.45-.05.57-.16.12-.1.21-.24.25-.4s.06-.32.06-.48v-5.04h-1.99v-1.04Z"/>
            <path class="cls-1" d="M64.14,101.63v-1.04h1.39c.38,0,.69-.04.91-.11.22-.08.37-.21.46-.39.08-.18.13-.43.13-.73v-1.01c-.22.2-.45.37-.71.51-.26.14-.55.21-.86.2-.32,0-.62-.1-.89-.28-.27-.18-.49-.46-.64-.84-.16-.38-.23-.89-.23-1.52l.02-2.86-.89-.14v-.82h1.9v3.22c0,.4.02.76.06,1.07.04.32.12.57.25.75.13.18.33.28.6.28.25,0,.49-.07.72-.2.23-.13.46-.3.67-.5v-4.67h1.04v6.82c0,.79-.17,1.37-.51,1.73-.34.36-.84.54-1.49.54h-1.92Z"/>
            <path class="cls-1" d="M69.3,93.27h1.99v-1.37c0-.46.07-.83.21-1.09.14-.26.31-.45.52-.57s.41-.19.62-.22c.21-.03.39-.04.52-.04.34,0,.67.05,1.01.16.34.11.65.26.95.46l-.46.88c-.22-.14-.44-.25-.68-.33-.24-.08-.45-.13-.63-.13-.3,0-.53.05-.68.16-.15.11-.25.26-.31.47s-.08.46-.08.76v.85h2.05v1.04h-2.05v5.04c0,.35-.03.69-.09,1.01s-.18.59-.37.79c-.19.2-.48.3-.87.3h-1.61v-1.07h1.07c.26,0,.45-.05.57-.16.12-.1.21-.24.25-.4s.06-.32.06-.48v-5.04h-1.99v-1.04Z"/>
            <path class="cls-1" d="M80.4,94.93v1.02h-4.37v-1.02h4.37Z"/>
            <path class="cls-1" d="M82.44,99.08v-8.03l-.98-.19v-.68h1.99v3.26c.3-.23.63-.43.98-.59.35-.16.7-.24,1.05-.23.29,0,.55.07.78.2.23.14.42.36.55.67.14.31.2.73.2,1.27v4.33h-1.06v-4.03c0-.46-.07-.78-.2-.98-.14-.2-.35-.3-.64-.3-.23,0-.48.06-.76.18-.27.12-.58.32-.91.6v4.54h-1.01Z"/>
            <path class="cls-1" d="M90.82,99.31c-.25,0-.46-.1-.63-.29-.17-.2-.26-.43-.26-.69,0-.28.09-.52.26-.71.17-.19.38-.29.63-.29s.46.1.62.29c.17.19.25.43.25.71,0,.26-.08.49-.25.69-.17.2-.38.29-.62.29Z"/>
            <path class="cls-1" d="M97.42,99.27c-.9,0-1.61-.29-2.12-.89-.51-.6-.77-1.45-.77-2.54s.25-1.95.74-2.56c.49-.61,1.18-.92,2.06-.92.47,0,.89.13,1.27.4.37.26.65.63.85,1.09l-.8.42c-.13-.28-.31-.49-.53-.64-.23-.15-.49-.22-.77-.22-.56,0-1,.21-1.31.64-.32.43-.47,1.03-.47,1.79s.16,1.34.49,1.76c.33.42.79.64,1.39.64.33,0,.63-.07.9-.2.27-.14.53-.32.77-.54l.53.85c-.28.28-.61.5-.99.67-.38.16-.78.25-1.21.26Z"/>
            <path class="cls-1" d="M103.43,99.27c-.57,0-1.05-.14-1.43-.43s-.68-.69-.88-1.21c-.2-.52-.3-1.12-.3-1.81s.1-1.3.3-1.82.49-.92.88-1.21.87-.43,1.43-.43,1.04.14,1.43.43.68.69.88,1.21c.2.52.3,1.12.3,1.82s-.1,1.29-.3,1.81c-.2.52-.49.92-.88,1.21s-.86.43-1.43.43ZM103.43,98.24c.38,0,.69-.11.92-.32.23-.21.4-.5.51-.87.11-.37.16-.78.16-1.24s-.05-.89-.16-1.25c-.11-.36-.28-.64-.51-.85-.23-.21-.54-.31-.92-.31s-.69.1-.93.31-.41.49-.52.85c-.11.36-.16.78-.16,1.25s.05.87.16,1.24c.11.37.28.66.52.87s.55.32.93.32Z"/>
            <path class="cls-1" d="M106.98,99.08c-.06-.98-.09-2.03-.09-3.16s.02-2.27.07-3.42h.86l.08.61c.19-.23.41-.42.64-.55.24-.14.45-.2.65-.2.23,0,.42.07.58.2.15.14.26.32.32.55.18-.22.39-.41.62-.55.23-.14.45-.21.66-.21.33,0,.59.12.79.37s.3.6.32,1.07c.07,1.72.06,3.48-.02,5.28h-1.02c.03-.57.05-1.15.07-1.73.01-.59.02-1.15.02-1.7s0-1.04-.02-1.49c0-.26-.04-.46-.1-.62s-.19-.23-.39-.23c-.14,0-.29.07-.44.22-.15.14-.28.3-.4.48l-.07,4.16h-.8l-.06-4.06c0-.26-.04-.45-.11-.59-.07-.14-.19-.21-.36-.21-.14,0-.29.07-.45.21-.16.14-.29.3-.41.47-.04.8-.05,1.63-.02,2.49.02.86.06,1.73.1,2.6h-1.01Z"/>
            <path class="cls-1" d="M116.03,94.33c-.22,0-.41-.09-.57-.26s-.23-.38-.23-.62.08-.46.23-.63c.16-.17.35-.26.57-.26s.4.09.56.26c.16.17.23.38.23.63s-.08.45-.23.62-.34.26-.56.26ZM116.03,99.08c-.22,0-.41-.09-.57-.26s-.23-.38-.23-.62.08-.46.23-.63.35-.26.57-.26.4.09.56.26.23.38.23.63-.08.45-.23.62-.34.26-.56.26Z"/>
            <path class="cls-1" d="M129.07,99.08c-.38,0-.67-.1-.87-.3-.2-.2-.33-.46-.4-.79-.07-.32-.1-.66-.1-1.01v-3.38h-1.63v-1.04h1.63v-1.54h1.04v1.54h2.2v1.04h-2.2v3.38c0,.16.02.32.05.48s.12.29.24.4c.12.1.31.16.57.16h1.3v1.07h-1.84Z"/>
            <path class="cls-1" d="M133.44,101.63v-1.04h1.39c.38,0,.69-.04.91-.11.22-.08.37-.21.46-.39.08-.18.13-.43.13-.73v-1.01c-.22.2-.45.37-.71.51-.26.14-.55.21-.86.2-.32,0-.62-.1-.89-.28-.27-.18-.49-.46-.64-.84-.16-.38-.23-.89-.23-1.52l.02-2.86-.89-.14v-.82h1.9v3.22c0,.4.02.76.06,1.07.04.32.12.57.25.75.13.18.33.28.6.28.25,0,.49-.07.72-.2.23-.13.46-.3.67-.5v-4.67h1.04v6.82c0,.79-.17,1.37-.51,1.73-.34.36-.84.54-1.49.54h-1.92Z"/>
            <path class="cls-1" d="M139.15,101.42v-8.09l-1-.19v-.68h1.88l.11.66c.18-.21.41-.39.68-.53.27-.15.57-.22.89-.22.46,0,.86.13,1.21.39.35.26.61.63.79,1.12.18.49.25,1.07.21,1.75-.04.66-.18,1.25-.41,1.77-.24.52-.54.94-.92,1.24-.38.3-.81.45-1.3.45-.24,0-.45-.04-.64-.13-.19-.09-.35-.2-.5-.32v2.8h-1ZM141.24,98.05c.31,0,.59-.11.82-.33.24-.22.43-.51.57-.88.14-.37.23-.77.26-1.21.05-.66-.03-1.19-.25-1.61-.21-.42-.56-.62-1.04-.62-.31,0-.6.1-.86.31-.26.21-.46.48-.61.8v2.69c.1.24.24.44.43.61.19.16.41.25.66.25Z"/>
            <path class="cls-1" d="M147.71,99.27c-.57,0-1.07-.13-1.5-.4-.43-.26-.77-.65-1.01-1.16-.24-.51-.37-1.14-.37-1.87,0-1.12.24-1.98.73-2.58.49-.6,1.15-.9,1.98-.9.52,0,.96.12,1.31.37.36.24.63.57.83.98s.32.86.36,1.34c.04.49,0,.97-.11,1.44h-4.06c.05.43.16.78.35,1.03.18.26.42.44.7.56.28.12.58.17.89.17.17,0,.4-.03.7-.08.3-.06.62-.17.98-.35l.35.9c-.47.25-.88.4-1.21.46-.34.06-.64.09-.91.09ZM145.82,95.48h3.3c.03-.37-.01-.71-.13-1.03-.12-.32-.3-.57-.55-.76-.25-.19-.56-.29-.93-.29s-.67.1-.92.29c-.25.19-.44.45-.58.76-.13.32-.2.66-.2,1.03Z"/>
            <path class="cls-1" d="M157.34,97.99l.67-.8c.3.31.65.56,1.04.74.39.18.79.27,1.2.27.5,0,.91-.11,1.21-.34.3-.23.45-.53.45-.92,0-.25-.08-.46-.23-.63-.16-.17-.36-.33-.61-.47-.25-.14-.53-.27-.84-.4-.31-.13-.61-.27-.92-.41-.3-.15-.58-.32-.83-.52s-.46-.44-.61-.71c-.16-.27-.23-.6-.23-1s.08-.71.24-1,.37-.54.63-.74c.26-.2.54-.35.85-.45.3-.1.6-.15.88-.15.49,0,.95.11,1.39.32.44.21.82.51,1.13.89l-.71.73c-.29-.32-.57-.54-.85-.67-.28-.13-.6-.19-.96-.19-.23,0-.47.05-.7.15-.24.1-.44.24-.6.43-.16.19-.25.41-.25.65s.08.48.23.66c.16.18.36.35.62.49s.54.28.84.41.61.28.91.43c.3.15.58.32.83.52.26.2.46.43.62.7.16.27.23.59.23.97,0,.7-.23,1.27-.7,1.7-.46.43-1.13.64-2,.64-.57,0-1.11-.12-1.62-.37-.51-.25-.94-.55-1.3-.91Z"/>
            <path class="cls-1" d="M166.41,99.27c-.53,0-.97-.11-1.34-.34-.36-.23-.66-.54-.89-.95-.23-.4-.39-.87-.5-1.4-.1-.53-.16-1.1-.16-1.72s.05-1.2.16-1.73c.1-.53.27-.99.5-1.4.23-.4.52-.72.89-.95.36-.23.81-.34,1.34-.34s.96.11,1.33.34c.37.23.66.54.89.95.22.4.39.87.49,1.4.1.53.16,1.1.16,1.73s-.05,1.19-.16,1.72c-.1.53-.27.99-.49,1.4-.22.4-.52.72-.89.95-.37.23-.81.34-1.33.34ZM166.41,98.21c.37,0,.67-.09.91-.27.24-.18.42-.43.55-.74.13-.31.22-.67.28-1.07.05-.4.08-.83.08-1.27s-.03-.87-.08-1.28c-.05-.4-.14-.76-.28-1.07-.13-.31-.32-.56-.55-.74-.24-.18-.54-.27-.91-.27s-.68.09-.91.27c-.23.18-.42.43-.55.74-.14.31-.23.67-.28,1.07-.05.4-.08.83-.08,1.28s.03.86.08,1.27c.05.4.15.76.28,1.07.14.31.32.56.55.74.23.18.54.27.91.27Z"/>
            <path class="cls-1" d="M169.82,99.08c.36-1.81.73-3.41,1.12-4.82.38-1.4.79-2.61,1.22-3.62h1.12c.44,1.01.85,2.21,1.23,3.62.38,1.4.75,3.01,1.11,4.82h-1.08c-.07-.35-.14-.7-.21-1.03-.07-.34-.13-.66-.2-.98h-2.82c-.06.32-.13.65-.2.98-.07.34-.14.68-.21,1.03h-1.08ZM171.55,96.02h2.34c-.18-.81-.37-1.57-.56-2.27s-.39-1.36-.6-1.95c-.22.59-.42,1.24-.61,1.95-.19.71-.38,1.47-.56,2.27Z"/>
            <path class="cls-1" d="M178.14,101.37h-.65l.86-2.62c-.13-.17-.19-.36-.19-.58,0-.24.08-.45.24-.62.16-.18.35-.26.58-.26s.4.09.55.26c.15.18.23.38.23.62,0,.16-.03.3-.1.43l-1.52,2.76Z"/>
            <path class="cls-1" d="M191.91,99.27c-.9,0-1.61-.29-2.12-.89-.51-.6-.77-1.45-.77-2.54s.25-1.95.74-2.56c.49-.61,1.18-.92,2.06-.92.47,0,.89.13,1.27.4.37.26.65.63.85,1.09l-.8.42c-.13-.28-.31-.49-.53-.64-.23-.15-.49-.22-.77-.22-.56,0-1,.21-1.31.64-.32.43-.47,1.03-.47,1.79s.16,1.34.49,1.76c.33.42.79.64,1.39.64.33,0,.63-.07.9-.2.27-.14.53-.32.77-.54l.53.85c-.28.28-.61.5-.99.67-.38.16-.78.25-1.21.26Z"/>
            <path class="cls-1" d="M195.61,90.17h2.32v6.8c0,.16.02.32.05.48.03.16.11.29.24.4.13.1.32.16.56.16h1.26v1.07h-1.78c-.39,0-.69-.1-.89-.3s-.33-.46-.4-.79c-.06-.32-.1-.66-.1-1.01v-5.88l-1.27-.25v-.67Z"/>
            <path class="cls-1" d="M206.31,97.52c0,.22.04.38.13.5.08.12.24.18.46.2v.96c-.41.02-.72-.03-.94-.15-.22-.12-.38-.29-.49-.53-.18.22-.41.4-.7.55-.29.15-.67.23-1.15.23-.3,0-.6-.07-.91-.22-.31-.15-.56-.37-.76-.67s-.3-.68-.3-1.15.08-.8.25-1.09c.16-.28.38-.51.66-.68.28-.17.57-.29.89-.37.32-.08.64-.12.95-.14.32-.02.6-.02.86,0v-.16c0-.3-.03-.56-.08-.76-.05-.2-.16-.36-.34-.46-.17-.1-.45-.16-.82-.16-.24,0-.47.03-.7.08-.23.05-.49.15-.79.31l-.5-.89c.38-.2.74-.34,1.1-.43.36-.08.72-.13,1.07-.13.19,0,.41.02.65.05s.47.11.7.22c.22.11.41.29.55.54.14.25.21.58.21,1v3.35ZM202.59,97.17c0,.32.11.57.34.76.23.18.49.28.79.28.44,0,.78-.1,1.01-.31.24-.2.41-.43.53-.67v-1.33c-.28-.02-.58-.03-.89-.02-.31.01-.6.06-.88.13-.27.08-.49.21-.66.39-.17.18-.25.44-.25.77Z"/>
            <path class="cls-1" d="M208.1,98.25l.65-.8c.29.22.59.4.92.55s.64.22.95.22c.42,0,.73-.08.94-.23s.32-.35.32-.59c0-.22-.08-.42-.25-.58s-.39-.3-.66-.43c-.27-.12-.56-.24-.86-.36-.3-.12-.59-.25-.86-.41-.27-.16-.49-.35-.66-.57-.17-.22-.25-.5-.25-.84,0-.3.07-.57.21-.8.14-.23.32-.42.55-.58.23-.16.48-.28.74-.35.27-.08.53-.11.77-.11.44,0,.83.08,1.16.24.33.16.66.39.98.7l-.64.76c-.24-.21-.48-.37-.71-.48-.23-.11-.5-.17-.79-.17-.31,0-.59.07-.85.22-.25.14-.38.33-.39.56,0,.18.07.33.23.46s.38.26.65.38c.27.12.56.25.86.38.3.14.59.29.86.46.27.17.49.38.67.63.17.25.26.54.26.88,0,.57-.2,1.02-.6,1.36-.4.34-.97.51-1.7.51-.48,0-.94-.1-1.39-.29-.45-.2-.82-.43-1.13-.71Z"/>
            <path class="cls-1" d="M214.4,98.25l.65-.8c.29.22.59.4.92.55s.64.22.95.22c.42,0,.73-.08.94-.23s.32-.35.32-.59c0-.22-.08-.42-.25-.58s-.39-.3-.66-.43c-.27-.12-.56-.24-.86-.36-.3-.12-.59-.25-.86-.41-.27-.16-.49-.35-.66-.57-.17-.22-.25-.5-.25-.84,0-.3.07-.57.21-.8.14-.23.32-.42.55-.58.23-.16.48-.28.74-.35.27-.08.53-.11.77-.11.44,0,.83.08,1.16.24.33.16.66.39.98.7l-.64.76c-.24-.21-.48-.37-.71-.48-.23-.11-.5-.17-.79-.17-.31,0-.59.07-.85.22-.25.14-.38.33-.39.56,0,.18.07.33.23.46s.38.26.65.38c.27.12.56.25.86.38.3.14.59.29.86.46.27.17.49.38.67.63.17.25.26.54.26.88,0,.57-.2,1.02-.6,1.36-.4.34-.97.51-1.7.51-.48,0-.94-.1-1.39-.29-.45-.2-.82-.43-1.13-.71Z"/>
            <path class="cls-1" d="M231.77,99.08h-4.69v-1.04h1.82v-6.35h-1.76v-1.04h4.57v1.04h-1.76v6.35h1.82v1.04Z"/>
            <path class="cls-1" d="M233.01,90.64h1.3l3.07,6.42v-6.42h1.04v8.44h-1.25l-3.12-6.44v6.44h-1.04v-8.44Z"/>
            <path class="cls-1" d="M241.14,101.37h-.65l.86-2.62c-.13-.17-.19-.36-.19-.58,0-.24.08-.45.24-.62.16-.18.35-.26.58-.26s.4.09.55.26c.15.18.23.38.23.62,0,.16-.03.3-.1.43l-1.52,2.76Z"/>
            <path class="cls-1" d="M251.88,99.08c-.06-.98-.09-2.03-.09-3.16s.02-2.27.07-3.42h.86l.08.61c.19-.23.41-.42.64-.55.24-.14.45-.2.65-.2.23,0,.42.07.58.2.15.14.26.32.32.55.18-.22.39-.41.62-.55.23-.14.45-.21.66-.21.33,0,.59.12.79.37s.3.6.32,1.07c.07,1.72.06,3.48-.02,5.28h-1.02c.03-.57.05-1.15.07-1.73.01-.59.02-1.15.02-1.7s0-1.04-.02-1.49c0-.26-.04-.46-.1-.62s-.19-.23-.39-.23c-.14,0-.29.07-.44.22-.15.14-.28.3-.4.48l-.07,4.16h-.8l-.06-4.06c0-.26-.04-.45-.11-.59-.07-.14-.19-.21-.36-.21-.14,0-.29.07-.45.21-.16.14-.29.3-.41.47-.04.8-.05,1.63-.02,2.49.02.86.06,1.73.1,2.6h-1.01Z"/>
            <path class="cls-1" d="M258.54,99.08v-6.58h.91l.1.79c.31-.27.66-.5,1.06-.68.39-.18.77-.27,1.13-.26.27,0,.52.07.76.22.23.14.42.38.56.71.14.33.22.77.22,1.32v4.48h-1.06v-4.28c0-.46-.07-.8-.21-1-.14-.2-.35-.3-.63-.3-.25,0-.52.07-.82.2-.3.14-.63.37-1,.7v4.68h-1.02Z"/>
            <path class="cls-1" d="M269.31,97.52c0,.22.04.38.13.5.08.12.24.18.46.2v.96c-.41.02-.72-.03-.94-.15-.22-.12-.38-.29-.49-.53-.18.22-.41.4-.7.55-.29.15-.67.23-1.15.23-.3,0-.6-.07-.91-.22-.31-.15-.56-.37-.76-.67s-.3-.68-.3-1.15.08-.8.25-1.09c.16-.28.38-.51.66-.68.28-.17.57-.29.89-.37.32-.08.64-.12.95-.14.32-.02.6-.02.86,0v-.16c0-.3-.03-.56-.08-.76-.05-.2-.16-.36-.34-.46-.17-.1-.45-.16-.82-.16-.24,0-.47.03-.7.08-.23.05-.49.15-.79.31l-.5-.89c.38-.2.74-.34,1.1-.43.36-.08.72-.13,1.07-.13.19,0,.41.02.65.05s.47.11.7.22c.22.11.41.29.55.54.14.25.21.58.21,1v3.35ZM265.59,97.17c0,.32.11.57.34.76.23.18.49.28.79.28.44,0,.78-.1,1.01-.31.24-.2.41-.43.53-.67v-1.33c-.28-.02-.58-.03-.89-.02-.31.01-.6.06-.88.13-.27.08-.49.21-.66.39-.17.18-.25.44-.25.77Z"/>
            <path class="cls-1" d="M270.78,99.08c-.06-.98-.09-2.03-.09-3.16s.02-2.27.07-3.42h.86l.08.61c.19-.23.41-.42.64-.55.24-.14.45-.2.65-.2.23,0,.42.07.58.2.15.14.26.32.32.55.18-.22.39-.41.62-.55.23-.14.45-.21.66-.21.33,0,.59.12.79.37s.3.6.32,1.07c.07,1.72.06,3.48-.02,5.28h-1.02c.03-.57.05-1.15.07-1.73.01-.59.02-1.15.02-1.7s0-1.04-.02-1.49c0-.26-.04-.46-.1-.62s-.19-.23-.39-.23c-.14,0-.29.07-.44.22-.15.14-.28.3-.4.48l-.07,4.16h-.8l-.06-4.06c0-.26-.04-.45-.11-.59-.07-.14-.19-.21-.36-.21-.14,0-.29.07-.45.21-.16.14-.29.3-.41.47-.04.8-.05,1.63-.02,2.49.02.86.06,1.73.1,2.6h-1.01Z"/>
            <path class="cls-1" d="M280,99.27c-.57,0-1.07-.13-1.5-.4-.43-.26-.77-.65-1.01-1.16-.24-.51-.37-1.14-.37-1.87,0-1.12.24-1.98.73-2.58.49-.6,1.15-.9,1.98-.9.52,0,.96.12,1.31.37.36.24.63.57.83.98.2.41.32.86.36,1.34.04.49,0,.97-.11,1.44h-4.06c.05.43.16.78.35,1.03.18.26.42.44.7.56s.58.17.89.17c.17,0,.4-.03.7-.08.3-.06.62-.17.98-.35l.35.9c-.47.25-.88.4-1.21.46-.34.06-.64.09-.91.09ZM278.12,95.48h3.3c.03-.37,0-.71-.13-1.03s-.3-.57-.55-.76c-.25-.19-.56-.29-.93-.29s-.67.1-.92.29c-.25.19-.44.45-.58.76s-.2.66-.2,1.03Z"/>
            <path class="cls-1" d="M289.68,99.08c-.06-.98-.09-2.03-.09-3.16s.02-2.27.07-3.42h.86l.08.61c.19-.23.41-.42.64-.55.24-.14.45-.2.65-.2.23,0,.42.07.58.2.15.14.26.32.32.55.18-.22.39-.41.62-.55.23-.14.45-.21.66-.21.33,0,.59.12.79.37.2.25.3.6.32,1.07.07,1.72.06,3.48-.02,5.28h-1.02c.03-.57.05-1.15.07-1.73.01-.59.02-1.15.02-1.7s0-1.04-.02-1.49c0-.26-.04-.46-.1-.62-.06-.16-.19-.23-.39-.23-.14,0-.29.07-.44.22-.15.14-.28.3-.4.48l-.07,4.16h-.8l-.06-4.06c0-.26-.04-.45-.11-.59-.07-.14-.19-.21-.36-.21-.14,0-.29.07-.45.21-.16.14-.29.3-.41.47-.04.8-.05,1.63-.02,2.49.02.86.06,1.73.1,2.6h-1.01Z"/>
            <path class="cls-1" d="M300.81,97.52c0,.22.04.38.13.5.08.12.24.18.46.2v.96c-.41.02-.72-.03-.94-.15-.22-.12-.38-.29-.49-.53-.18.22-.41.4-.7.55-.29.15-.67.23-1.15.23-.3,0-.6-.07-.91-.22-.31-.15-.56-.37-.76-.67s-.3-.68-.3-1.15.08-.8.25-1.09c.16-.28.38-.51.66-.68.28-.17.57-.29.89-.37.32-.08.64-.12.95-.14.32-.02.6-.02.86,0v-.16c0-.3-.03-.56-.08-.76-.05-.2-.16-.36-.34-.46-.17-.1-.45-.16-.82-.16-.24,0-.47.03-.7.08-.23.05-.49.15-.79.31l-.5-.89c.38-.2.74-.34,1.1-.43.36-.08.72-.13,1.07-.13.19,0,.41.02.65.05s.47.11.7.22c.22.11.41.29.55.54.14.25.21.58.21,1v3.35ZM297.09,97.17c0,.32.11.57.34.76.23.18.49.28.79.28.44,0,.78-.1,1.01-.31.24-.2.41-.43.53-.67v-1.33c-.28-.02-.58-.03-.89-.02-.31.01-.6.06-.88.13-.27.08-.49.21-.66.39-.17.18-.25.44-.25.77Z"/>
            <path class="cls-1" d="M302.6,98.25l.65-.8c.29.22.59.4.92.55s.64.22.95.22c.42,0,.73-.08.94-.23s.32-.35.32-.59c0-.22-.08-.42-.25-.58s-.39-.3-.66-.43c-.27-.12-.56-.24-.86-.36-.3-.12-.59-.25-.86-.41-.27-.16-.49-.35-.66-.57-.17-.22-.25-.5-.25-.84,0-.3.07-.57.21-.8.14-.23.32-.42.55-.58.23-.16.48-.28.74-.35.27-.08.53-.11.77-.11.44,0,.83.08,1.16.24.33.16.66.39.98.7l-.64.76c-.24-.21-.48-.37-.71-.48-.23-.11-.5-.17-.79-.17-.31,0-.59.07-.85.22-.25.14-.38.33-.39.56,0,.18.07.33.23.46s.38.26.65.38c.27.12.56.25.86.38.3.14.59.29.86.46.27.17.49.38.67.63.17.25.26.54.26.88,0,.57-.2,1.02-.6,1.36-.4.34-.97.51-1.7.51-.48,0-.94-.1-1.39-.29-.45-.2-.82-.43-1.13-.71Z"/>
            <path class="cls-1" d="M311.77,99.08c-.38,0-.67-.1-.87-.3s-.33-.46-.4-.79c-.07-.32-.1-.66-.1-1.01v-3.38h-1.63v-1.04h1.63v-1.54h1.04v1.54h2.2v1.04h-2.2v3.38c0,.16.02.32.05.48s.12.29.24.4c.12.1.31.16.57.16h1.3v1.07h-1.84Z"/>
            <path class="cls-1" d="M317.8,99.27c-.57,0-1.07-.13-1.5-.4-.43-.26-.77-.65-1.01-1.16-.24-.51-.37-1.14-.37-1.87,0-1.12.24-1.98.73-2.58.49-.6,1.15-.9,1.98-.9.52,0,.96.12,1.31.37.36.24.63.57.83.98s.32.86.36,1.34c.04.49,0,.97-.11,1.44h-4.06c.05.43.16.78.35,1.03.18.26.42.44.7.56.28.12.58.17.89.17.17,0,.4-.03.7-.08.3-.06.62-.17.98-.35l.35.9c-.47.25-.88.4-1.21.46-.34.06-.64.09-.91.09ZM315.92,95.48h3.3c.03-.37-.01-.71-.13-1.03-.12-.32-.3-.57-.55-.76-.25-.19-.56-.29-.93-.29s-.67.1-.92.29c-.25.19-.44.45-.58.76-.13.32-.2.66-.2,1.03Z"/>
            <path class="cls-1" d="M321.32,99.08v-.97h1.19v-4.78l-.96-.19v-.68h1.87l.11.86c.26-.26.53-.49.81-.68.28-.19.59-.28.92-.28.3,0,.59.08.85.23.26.14.46.36.6.64l-.74.7c-.11-.15-.25-.27-.43-.35s-.35-.12-.53-.12c-.24,0-.48.09-.71.27-.23.18-.48.41-.74.7v3.68h2.2v.97h-4.43Z"/>
            <path class="cls-1" d="M330.21,99.31c-.25,0-.46-.1-.63-.29-.17-.2-.26-.43-.26-.69,0-.28.09-.52.26-.71.17-.19.38-.29.63-.29s.46.1.62.29c.17.19.25.43.25.71,0,.26-.08.49-.25.69-.17.2-.38.29-.62.29Z"/>
            <path class="cls-1" d="M336.6,99.28c-.5,0-.95-.14-1.37-.43-.42-.29-.75-.69-1-1.21-.25-.52-.38-1.12-.38-1.8,0-.73.11-1.34.34-1.85s.53-.89.91-1.15c.38-.26.78-.39,1.22-.39.25,0,.48.04.68.13.21.09.39.21.55.37v-2.78h1.02v7.34c0,.44.23.67.68.7v.96c-.55.02-.96-.09-1.24-.31-.2.12-.42.22-.67.3s-.5.12-.76.12ZM336.6,98.25c.37,0,.69-.06.96-.19v-4.07c-.11-.15-.26-.27-.45-.36-.19-.09-.38-.13-.58-.13-.58,0-1,.21-1.27.62-.27.42-.4.99-.4,1.72,0,.48.08.9.23,1.27.15.36.36.65.62.85.26.2.56.3.89.3Z"/>
            <path class="cls-1" d="M340.44,99.08v-6.58h.91l.1.79c.31-.27.66-.5,1.06-.68s.77-.27,1.13-.26c.27,0,.52.07.76.22.23.14.42.38.56.71s.22.77.22,1.32v4.48h-1.06v-4.28c0-.46-.07-.8-.21-1-.14-.2-.35-.3-.63-.3-.25,0-.52.07-.82.2s-.63.37-1,.7v4.68h-1.02Z"/>
            <path class="cls-1" d="M346.7,98.25l.65-.8c.29.22.59.4.92.55s.64.22.95.22c.42,0,.73-.08.94-.23s.32-.35.32-.59c0-.22-.08-.42-.25-.58s-.39-.3-.66-.43c-.27-.12-.56-.24-.86-.36-.3-.12-.59-.25-.86-.41-.27-.16-.49-.35-.66-.57-.17-.22-.25-.5-.25-.84,0-.3.07-.57.21-.8.14-.23.32-.42.55-.58.23-.16.48-.28.74-.35.27-.08.53-.11.77-.11.44,0,.83.08,1.16.24.33.16.66.39.98.7l-.64.76c-.24-.21-.48-.37-.71-.48-.23-.11-.5-.17-.79-.17-.31,0-.59.07-.85.22-.25.14-.38.33-.39.56,0,.18.07.33.23.46s.38.26.65.38c.27.12.56.25.86.38.3.14.59.29.86.46.27.17.49.38.67.63.17.25.26.54.26.88,0,.57-.2,1.02-.6,1.36-.4.34-.97.51-1.7.51-.48,0-.94-.1-1.39-.29-.45-.2-.82-.43-1.13-.71Z"/>
            <path class="cls-1" d="M355.41,99.31c-.25,0-.46-.1-.63-.29-.17-.2-.26-.43-.26-.69,0-.28.09-.52.26-.71.17-.19.38-.29.63-.29s.46.1.62.29c.17.19.25.43.25.71,0,.26-.08.49-.25.69-.17.2-.38.29-.62.29Z"/>
            <path class="cls-1" d="M359.34,99.08v-6.58h.91l.1.79c.31-.27.66-.5,1.06-.68.39-.18.77-.27,1.13-.26.27,0,.52.07.76.22.23.14.42.38.56.71.14.33.22.77.22,1.32v4.48h-1.06v-4.28c0-.46-.07-.8-.21-1-.14-.2-.35-.3-.63-.3-.25,0-.52.07-.82.2-.3.14-.63.37-1,.7v4.68h-1.02Z"/>
            <path class="cls-1" d="M368.2,99.27c-.57,0-1.07-.13-1.5-.4-.43-.26-.77-.65-1.01-1.16-.24-.51-.37-1.14-.37-1.87,0-1.12.24-1.98.73-2.58.49-.6,1.15-.9,1.98-.9.52,0,.96.12,1.31.37.36.24.63.57.83.98s.32.86.36,1.34c.04.49,0,.97-.11,1.44h-4.06c.05.43.16.78.35,1.03.18.26.42.44.7.56.28.12.58.17.89.17.17,0,.4-.03.7-.08.3-.06.62-.17.98-.35l.35.9c-.47.25-.88.4-1.21.46-.34.06-.64.09-.91.09ZM366.32,95.48h3.3c.03-.37-.01-.71-.13-1.03-.12-.32-.3-.57-.55-.76-.25-.19-.56-.29-.93-.29s-.67.1-.92.29c-.25.19-.44.45-.58.76-.13.32-.2.66-.2,1.03Z"/>
            <path class="cls-1" d="M374.31,99.31c-.25,0-.46-.1-.63-.29-.17-.2-.26-.43-.26-.69,0-.28.09-.52.26-.71.17-.19.38-.29.63-.29s.46.1.62.29c.17.19.25.43.25.71,0,.26-.08.49-.25.69-.17.2-.38.29-.62.29Z"/>
            <path class="cls-1" d="M378.2,101.45v-1.07h2.16c.28,0,.48-.05.6-.14.12-.1.19-.25.22-.45.03-.2.04-.47.04-.8v-4.97h-2.4v-1.04h3.44v6.01c0,.41-.01.76-.04,1.07-.03.3-.09.56-.2.77-.1.21-.27.36-.49.47-.22.1-.54.16-.95.16h-2.39ZM380.94,91.88c-.22,0-.42-.09-.59-.27-.17-.18-.26-.41-.26-.68s.09-.49.26-.67c.17-.18.37-.28.59-.28.24,0,.44.09.61.28.16.18.25.41.25.67s-.08.5-.25.68c-.16.18-.37.27-.61.27Z"/>
            <path class="cls-1" d="M384.85,101.42v-8.09l-1-.19v-.68h1.88l.11.66c.18-.21.41-.39.68-.53.27-.15.57-.22.89-.22.46,0,.86.13,1.21.39.35.26.61.63.79,1.12.18.49.25,1.07.21,1.75-.04.66-.18,1.25-.41,1.77-.24.52-.54.94-.92,1.24s-.81.45-1.3.45c-.24,0-.45-.04-.64-.13-.19-.09-.35-.2-.5-.32v2.8h-1ZM386.94,98.05c.31,0,.59-.11.82-.33.24-.22.43-.51.57-.88.14-.37.23-.77.26-1.21.05-.66-.03-1.19-.25-1.61-.21-.42-.56-.62-1.04-.62-.31,0-.6.1-.86.31s-.46.48-.61.8v2.69c.1.24.24.44.43.61.19.16.41.25.66.25Z"/>
            <path class="cls-1" d="M401.65,98.95h-.11l-4.37-2.92v-1.18l4.37-2.87h.11v1.18l-3.65,2.28,3.65,2.33v1.18Z"/>
          </g>
          <g>
            <path class="cls-8" d="M174.88,113.16v-1.18l3.66-2.33-3.66-2.28v-1.18h.11l4.37,2.87v1.18l-4.37,2.92h-.11Z"/>
            <path class="cls-8" d="M186.98,107.49h1.99v-1.37c0-.46.07-.83.21-1.09.14-.26.31-.45.52-.57s.41-.19.62-.22.39-.04.52-.04c.34,0,.67.05,1.01.16.34.11.65.26.95.46l-.46.88c-.22-.14-.44-.25-.68-.33s-.45-.13-.63-.13c-.3,0-.53.05-.68.16-.15.11-.25.26-.31.47s-.08.46-.08.76v.85h2.05v1.04h-2.05v5.04c0,.35-.03.69-.09,1.01-.06.32-.18.59-.37.79-.19.2-.48.3-.87.3h-1.61v-1.07h1.07c.26,0,.45-.05.57-.16.12-.1.21-.24.25-.4s.06-.32.06-.48v-5.04h-1.99v-1.04Z"/>
            <path class="cls-8" d="M194.42,115.85v-1.04h1.39c.38,0,.69-.04.91-.11.22-.08.37-.21.46-.39.08-.18.13-.43.13-.73v-1.01c-.22.2-.45.37-.71.51-.26.14-.55.21-.86.2-.32,0-.62-.1-.89-.28-.27-.18-.49-.46-.64-.84-.16-.38-.23-.89-.23-1.52l.02-2.86-.89-.14v-.82h1.9v3.22c0,.4.02.76.06,1.07.04.32.12.57.25.75.13.18.33.28.6.28.25,0,.49-.07.72-.2s.46-.3.67-.5v-4.67h1.04v6.82c0,.79-.17,1.37-.51,1.73-.34.36-.84.54-1.49.54h-1.92Z"/>
            <path class="cls-8" d="M199.58,107.49h1.99v-1.37c0-.46.07-.83.21-1.09.14-.26.31-.45.52-.57s.41-.19.62-.22.39-.04.52-.04c.34,0,.67.05,1.01.16.34.11.65.26.95.46l-.46.88c-.22-.14-.44-.25-.68-.33s-.45-.13-.63-.13c-.3,0-.53.05-.68.16-.15.11-.25.26-.31.47s-.08.46-.08.76v.85h2.05v1.04h-2.05v5.04c0,.35-.03.69-.09,1.01-.06.32-.18.59-.37.79-.19.2-.48.3-.87.3h-1.61v-1.07h1.07c.26,0,.45-.05.57-.16.12-.1.21-.24.25-.4s.06-.32.06-.48v-5.04h-1.99v-1.04Z"/>
            <path class="cls-8" d="M210.68,109.14v1.02h-4.37v-1.02h4.37Z"/>
            <path class="cls-8" d="M212.72,113.29v-8.03l-.98-.19v-.68h1.99v3.26c.3-.23.63-.43.98-.59.35-.16.7-.24,1.05-.23.29,0,.55.07.78.2.23.14.42.36.55.67.14.31.2.73.2,1.27v4.33h-1.06v-4.03c0-.46-.07-.78-.2-.98-.14-.2-.35-.3-.64-.3-.23,0-.48.06-.76.18-.27.12-.58.32-.91.6v4.54h-1.01Z"/>
            <path class="cls-8" d="M221.1,113.52c-.25,0-.46-.1-.63-.29-.17-.2-.26-.43-.26-.69,0-.28.09-.52.26-.71.17-.19.38-.29.63-.29s.46.1.62.29c.17.19.25.43.25.71,0,.26-.08.49-.25.69-.17.2-.38.29-.62.29Z"/>
            <path class="cls-8" d="M227.7,113.49c-.9,0-1.61-.29-2.12-.89-.51-.6-.77-1.45-.77-2.54s.25-1.95.74-2.56c.49-.61,1.18-.92,2.06-.92.47,0,.89.13,1.27.4.37.26.65.63.85,1.09l-.8.42c-.13-.28-.31-.49-.53-.64-.23-.15-.49-.22-.77-.22-.56,0-1,.21-1.31.64-.32.43-.47,1.03-.47,1.79s.16,1.34.49,1.76c.33.42.79.64,1.39.64.33,0,.63-.07.9-.2.27-.14.53-.32.77-.54l.53.85c-.28.28-.61.5-.99.67-.38.16-.78.25-1.21.26Z"/>
            <path class="cls-8" d="M233.71,113.49c-.57,0-1.05-.14-1.43-.43-.39-.29-.68-.69-.88-1.21-.2-.52-.3-1.12-.3-1.81s.1-1.3.3-1.82.49-.92.88-1.21c.39-.29.87-.43,1.43-.43s1.04.14,1.43.43.68.69.88,1.21.3,1.12.3,1.82-.1,1.29-.3,1.81c-.2.52-.49.92-.88,1.21s-.86.43-1.43.43ZM233.71,112.45c.38,0,.69-.11.92-.32.23-.21.4-.5.51-.87.11-.37.16-.78.16-1.24s-.05-.89-.16-1.25c-.11-.36-.28-.64-.51-.85-.23-.21-.54-.31-.92-.31s-.69.1-.93.31c-.24.21-.41.49-.52.85-.11.36-.16.78-.16,1.25s.05.87.16,1.24c.11.37.28.66.52.87.24.21.55.32.93.32Z"/>
            <path class="cls-8" d="M237.26,113.29c-.06-.98-.09-2.03-.09-3.16,0-1.13.02-2.27.07-3.42h.86l.08.61c.19-.23.41-.42.64-.55.24-.14.45-.2.65-.2.23,0,.42.07.58.2.15.14.26.32.32.55.18-.22.39-.41.62-.55.23-.14.45-.21.66-.21.33,0,.59.12.79.37.2.25.3.6.32,1.07.07,1.72.06,3.48-.02,5.28h-1.02c.03-.57.05-1.15.07-1.73.01-.59.02-1.15.02-1.7s0-1.04-.02-1.49c0-.26-.04-.46-.1-.62-.06-.16-.19-.23-.39-.23-.14,0-.29.07-.44.22-.15.14-.28.3-.4.48l-.07,4.16h-.8l-.06-4.06c0-.26-.04-.45-.11-.59-.07-.14-.19-.21-.36-.21-.14,0-.29.07-.45.21-.16.14-.29.3-.41.47-.04.8-.05,1.63-.02,2.49.02.86.06,1.73.1,2.6h-1.01Z"/>
            <path class="cls-8" d="M246.31,108.54c-.22,0-.41-.09-.57-.26s-.23-.38-.23-.62.08-.46.23-.63c.16-.17.35-.26.57-.26s.4.09.56.26c.16.17.23.38.23.63s-.08.45-.23.62-.34.26-.56.26ZM246.31,113.29c-.22,0-.41-.09-.57-.26s-.23-.38-.23-.62.08-.46.23-.63.35-.26.57-.26.4.09.56.26.23.38.23.63-.08.45-.23.62-.34.26-.56.26Z"/>
            <path class="cls-8" d="M259.36,113.29c-.38,0-.67-.1-.87-.3-.2-.2-.33-.46-.4-.79s-.1-.66-.1-1.01v-3.38h-1.63v-1.04h1.63v-1.54h1.04v1.54h2.2v1.04h-2.2v3.38c0,.16.02.32.05.48s.12.29.24.4c.12.1.31.16.57.16h1.3v1.07h-1.84Z"/>
            <path class="cls-8" d="M263.72,115.85v-1.04h1.39c.38,0,.69-.04.91-.11.22-.08.37-.21.46-.39.08-.18.13-.43.13-.73v-1.01c-.22.2-.45.37-.71.51-.26.14-.55.21-.86.2-.32,0-.62-.1-.89-.28-.27-.18-.49-.46-.64-.84-.16-.38-.23-.89-.23-1.52l.02-2.86-.89-.14v-.82h1.9v3.22c0,.4.02.76.06,1.07.04.32.12.57.25.75.13.18.33.28.6.28.25,0,.49-.07.72-.2s.46-.3.67-.5v-4.67h1.04v6.82c0,.79-.17,1.37-.51,1.73-.34.36-.84.54-1.49.54h-1.92Z"/>
            <path class="cls-8" d="M269.44,115.63v-8.09l-1-.19v-.68h1.88l.11.66c.18-.21.41-.39.68-.53.27-.15.57-.22.89-.22.46,0,.86.13,1.21.39.35.26.61.63.79,1.12.18.49.25,1.07.21,1.75-.04.66-.18,1.25-.41,1.77-.24.52-.54.94-.92,1.24s-.81.45-1.3.45c-.24,0-.45-.04-.64-.13-.19-.09-.35-.2-.5-.32v2.8h-1ZM271.52,112.26c.31,0,.59-.11.82-.33.24-.22.43-.51.57-.88.14-.37.23-.77.26-1.21.05-.66-.03-1.19-.25-1.61-.21-.42-.56-.62-1.04-.62-.31,0-.6.1-.86.31s-.46.48-.61.8v2.69c.1.24.24.44.43.61.19.16.41.25.66.25Z"/>
            <path class="cls-8" d="M277.99,113.49c-.57,0-1.07-.13-1.5-.4s-.77-.65-1.01-1.16c-.24-.51-.37-1.14-.37-1.87,0-1.12.24-1.98.73-2.58.49-.6,1.15-.9,1.98-.9.52,0,.96.12,1.31.37.36.24.63.57.83.98.2.41.32.86.36,1.34.04.49,0,.97-.11,1.44h-4.06c.05.43.16.78.35,1.03.18.26.42.44.7.56s.58.17.89.17c.17,0,.4-.03.7-.08.3-.06.62-.17.98-.35l.35.9c-.47.25-.88.4-1.21.46-.34.06-.64.09-.91.09ZM276.11,109.69h3.3c.03-.37,0-.71-.13-1.03s-.3-.57-.55-.76c-.25-.19-.56-.29-.93-.29s-.67.1-.92.29c-.25.19-.44.45-.58.76-.13.32-.2.66-.2,1.03Z"/>
            <path class="cls-8" d="M287.51,113.29c.36-1.81.73-3.41,1.12-4.82.38-1.4.79-2.61,1.22-3.62h1.12c.44,1.01.85,2.21,1.23,3.62.38,1.4.75,3.01,1.11,4.82h-1.08c-.07-.35-.14-.7-.21-1.03s-.13-.66-.2-.98h-2.82c-.06.32-.13.65-.2.98s-.14.68-.21,1.03h-1.08ZM289.24,110.23h2.34c-.18-.81-.37-1.57-.56-2.27-.19-.71-.39-1.36-.6-1.95-.22.59-.42,1.24-.61,1.95s-.38,1.47-.56,2.27Z"/>
            <path class="cls-8" d="M295.82,115.59h-.65l.86-2.62c-.13-.17-.19-.36-.19-.58,0-.24.08-.45.24-.62.16-.18.35-.26.58-.26s.4.09.55.26c.15.18.23.38.23.62,0,.16-.03.3-.1.43l-1.52,2.76Z"/>
            <path class="cls-8" d="M309.6,113.49c-.9,0-1.61-.29-2.12-.89-.51-.6-.77-1.45-.77-2.54s.25-1.95.74-2.56c.49-.61,1.18-.92,2.06-.92.47,0,.89.13,1.27.4.37.26.65.63.85,1.09l-.8.42c-.13-.28-.31-.49-.53-.64-.23-.15-.49-.22-.77-.22-.56,0-1,.21-1.31.64-.32.43-.47,1.03-.47,1.79s.16,1.34.49,1.76c.33.42.79.64,1.39.64.33,0,.63-.07.9-.2.27-.14.53-.32.77-.54l.53.85c-.28.28-.61.5-.99.67-.38.16-.78.25-1.21.26Z"/>
            <path class="cls-8" d="M313.29,104.39h2.32v6.8c0,.16.02.32.05.48s.11.29.24.4c.13.1.32.16.56.16h1.26v1.07h-1.78c-.39,0-.69-.1-.89-.3-.2-.2-.33-.46-.4-.79-.06-.32-.1-.66-.1-1.01v-5.88l-1.27-.25v-.67Z"/>
            <path class="cls-8" d="M324,111.73c0,.22.04.38.13.5.08.12.24.18.46.2v.96c-.41.02-.72-.03-.94-.15-.22-.12-.38-.29-.49-.53-.18.22-.41.4-.7.55-.29.15-.67.23-1.15.23-.3,0-.6-.07-.91-.22-.31-.15-.56-.37-.76-.67s-.3-.68-.3-1.15.08-.8.25-1.09c.16-.28.38-.51.66-.68.28-.17.57-.29.89-.37.32-.08.64-.12.95-.14.32-.02.6-.02.86,0v-.16c0-.3-.03-.56-.08-.76s-.16-.36-.34-.46c-.17-.1-.45-.16-.82-.16-.24,0-.47.03-.7.08-.23.05-.49.15-.79.31l-.5-.89c.38-.2.74-.34,1.1-.43.36-.08.72-.13,1.07-.13.19,0,.41.02.65.05s.47.11.7.22c.22.11.41.29.55.54.14.25.21.58.21,1v3.35ZM320.28,111.39c0,.32.11.57.34.76.23.18.49.28.79.28.44,0,.78-.1,1.01-.31s.41-.43.53-.67v-1.33c-.28-.02-.58-.03-.89-.02-.31.01-.6.06-.88.13-.27.08-.49.21-.66.39-.17.18-.25.44-.25.77Z"/>
            <path class="cls-8" d="M325.79,112.47l.65-.8c.29.22.59.4.92.55s.64.22.95.22c.42,0,.73-.08.94-.23s.32-.35.32-.59c0-.22-.08-.42-.25-.58s-.39-.3-.66-.43c-.27-.12-.56-.24-.86-.36s-.59-.25-.86-.41c-.27-.16-.49-.35-.66-.57-.17-.22-.25-.5-.25-.84,0-.3.07-.57.21-.8.14-.23.32-.42.55-.58.23-.16.48-.28.74-.35.27-.08.53-.11.77-.11.44,0,.83.08,1.16.24s.66.39.98.7l-.64.76c-.24-.21-.48-.37-.71-.48s-.5-.17-.79-.17c-.31,0-.59.07-.85.22-.25.14-.38.33-.39.56,0,.18.07.33.23.46s.38.26.65.38c.27.12.56.25.86.38.3.14.59.29.86.46.27.17.49.38.67.63.17.25.26.54.26.88,0,.57-.2,1.02-.6,1.36-.4.34-.97.51-1.7.51-.48,0-.94-.1-1.39-.29-.45-.2-.82-.43-1.13-.71Z"/>
            <path class="cls-8" d="M332.09,112.47l.65-.8c.29.22.59.4.92.55s.64.22.95.22c.42,0,.73-.08.94-.23s.32-.35.32-.59c0-.22-.08-.42-.25-.58s-.39-.3-.66-.43c-.27-.12-.56-.24-.86-.36s-.59-.25-.86-.41c-.27-.16-.49-.35-.66-.57-.17-.22-.25-.5-.25-.84,0-.3.07-.57.21-.8.14-.23.32-.42.55-.58.23-.16.48-.28.74-.35.27-.08.53-.11.77-.11.44,0,.83.08,1.16.24s.66.39.98.7l-.64.76c-.24-.21-.48-.37-.71-.48s-.5-.17-.79-.17c-.31,0-.59.07-.85.22-.25.14-.38.33-.39.56,0,.18.07.33.23.46s.38.26.65.38c.27.12.56.25.86.38.3.14.59.29.86.46.27.17.49.38.67.63.17.25.26.54.26.88,0,.57-.2,1.02-.6,1.36-.4.34-.97.51-1.7.51-.48,0-.94-.1-1.39-.29-.45-.2-.82-.43-1.13-.71Z"/>
            <path class="cls-8" d="M349.45,113.29h-4.69v-1.04h1.82v-6.35h-1.76v-1.04h4.57v1.04h-1.76v6.35h1.82v1.04Z"/>
            <path class="cls-8" d="M350.7,104.86h1.3l3.07,6.42v-6.42h1.04v8.44h-1.25l-3.12-6.44v6.44h-1.04v-8.44Z"/>
          </g>
          <g>
            <path class="cls-10" d="M81.9,121.69h1.99v-1.37c0-.46.07-.83.21-1.09.14-.26.31-.45.52-.57s.41-.19.62-.22.39-.04.52-.04c.34,0,.67.05,1.01.16.34.11.65.26.95.46l-.46.88c-.22-.14-.44-.25-.68-.33-.24-.08-.45-.13-.63-.13-.3,0-.53.05-.68.16-.15.11-.25.26-.31.47-.05.2-.08.46-.08.76v.85h2.05v1.04h-2.05v5.04c0,.35-.03.69-.09,1.01-.06.32-.18.59-.37.79-.19.2-.48.3-.87.3h-1.61v-1.07h1.07c.26,0,.45-.05.57-.16.12-.1.21-.24.25-.4s.06-.32.06-.48v-5.04h-1.99v-1.04Z"/>
            <path class="cls-10" d="M89.34,130.05v-1.04h1.39c.38,0,.69-.04.91-.11.22-.08.37-.21.46-.39.08-.18.13-.43.13-.73v-1.01c-.22.2-.45.37-.71.51-.26.14-.55.21-.86.2-.32,0-.62-.1-.89-.28-.27-.18-.49-.46-.64-.84-.16-.38-.23-.89-.23-1.52l.02-2.86-.89-.14v-.82h1.9v3.22c0,.4.02.76.06,1.07.04.32.12.57.25.75.13.18.33.28.6.28.25,0,.49-.07.72-.2.23-.13.46-.3.67-.5v-4.67h1.04v6.82c0,.79-.17,1.37-.51,1.73-.34.36-.84.54-1.49.54h-1.92Z"/>
            <path class="cls-10" d="M94.5,121.69h1.99v-1.37c0-.46.07-.83.21-1.09.14-.26.31-.45.52-.57s.41-.19.62-.22c.21-.03.39-.04.52-.04.34,0,.67.05,1.01.16.34.11.65.26.95.46l-.46.88c-.22-.14-.44-.25-.68-.33-.24-.08-.45-.13-.63-.13-.3,0-.53.05-.68.16-.15.11-.25.26-.31.47s-.08.46-.08.76v.85h2.05v1.04h-2.05v5.04c0,.35-.03.69-.09,1.01s-.18.59-.37.79c-.19.2-.48.3-.87.3h-1.61v-1.07h1.07c.26,0,.45-.05.57-.16.12-.1.21-.24.25-.4s.06-.32.06-.48v-5.04h-1.99v-1.04Z"/>
            <path class="cls-10" d="M105.6,123.35v1.02h-4.37v-1.02h4.37Z"/>
            <path class="cls-10" d="M107.64,127.5v-8.03l-.98-.19v-.68h1.99v3.26c.3-.23.63-.43.98-.59.35-.16.7-.24,1.05-.23.29,0,.55.07.78.2.23.14.42.36.55.67.14.31.2.73.2,1.27v4.33h-1.06v-4.03c0-.46-.07-.78-.2-.98-.14-.2-.35-.3-.64-.3-.23,0-.48.06-.76.18-.27.12-.58.32-.91.6v4.54h-1.01Z"/>
            <path class="cls-10" d="M116.01,127.73c-.25,0-.46-.1-.63-.29-.17-.2-.26-.43-.26-.69,0-.28.09-.52.26-.71.17-.19.38-.29.63-.29s.46.1.62.29c.17.19.25.43.25.71,0,.26-.08.49-.25.69-.17.2-.38.29-.62.29Z"/>
            <path class="cls-10" d="M122.61,127.69c-.9,0-1.61-.29-2.12-.89-.51-.6-.77-1.45-.77-2.54s.25-1.95.74-2.56c.49-.61,1.18-.92,2.06-.92.47,0,.89.13,1.27.4.37.26.65.63.85,1.09l-.8.42c-.13-.28-.31-.49-.53-.64-.23-.15-.49-.22-.77-.22-.56,0-1,.21-1.31.64-.32.43-.47,1.03-.47,1.79s.16,1.34.49,1.76c.33.42.79.64,1.39.64.33,0,.63-.07.9-.2.27-.14.53-.32.77-.54l.53.85c-.28.28-.61.5-.99.67-.38.16-.78.25-1.21.26Z"/>
            <path class="cls-10" d="M128.63,127.69c-.57,0-1.05-.14-1.43-.43-.39-.29-.68-.69-.88-1.21-.2-.52-.3-1.12-.3-1.81s.1-1.3.3-1.82c.2-.52.49-.92.88-1.21.39-.29.87-.43,1.43-.43s1.04.14,1.43.43.68.69.88,1.21.3,1.12.3,1.82-.1,1.29-.3,1.81c-.2.52-.49.92-.88,1.21s-.86.43-1.43.43ZM128.63,126.66c.38,0,.69-.11.92-.32s.4-.5.51-.87c.11-.37.16-.78.16-1.24s-.05-.89-.16-1.25c-.11-.36-.28-.64-.51-.85s-.54-.31-.92-.31-.69.1-.93.31c-.24.21-.41.49-.52.85-.11.36-.16.78-.16,1.25s.05.87.16,1.24c.11.37.28.66.52.87.24.21.55.32.93.32Z"/>
            <path class="cls-10" d="M132.18,127.5c-.06-.98-.09-2.03-.09-3.16s.02-2.27.07-3.42h.86l.08.61c.19-.23.41-.42.64-.55.24-.14.45-.2.65-.2.23,0,.42.07.58.2.15.14.26.32.32.55.18-.22.39-.41.62-.55.23-.14.45-.21.66-.21.33,0,.59.12.79.37.2.25.3.6.32,1.07.07,1.72.06,3.48-.02,5.28h-1.02c.03-.57.05-1.15.07-1.73.01-.59.02-1.15.02-1.7s0-1.04-.02-1.49c0-.26-.04-.46-.1-.62-.06-.16-.19-.23-.39-.23-.14,0-.29.07-.44.22-.15.14-.28.3-.4.48l-.07,4.16h-.8l-.06-4.06c0-.26-.04-.45-.11-.59-.07-.14-.19-.21-.36-.21-.14,0-.29.07-.45.21-.16.14-.29.3-.41.47-.04.8-.05,1.63-.02,2.49.02.86.06,1.73.1,2.6h-1.01Z"/>
            <path class="cls-10" d="M141.23,122.75c-.22,0-.41-.09-.57-.26-.16-.18-.23-.38-.23-.62s.08-.46.23-.63c.16-.17.35-.26.57-.26s.4.09.56.26c.16.17.23.38.23.63s-.08.45-.23.62c-.16.18-.34.26-.56.26ZM141.23,127.5c-.22,0-.41-.09-.57-.26-.16-.18-.23-.38-.23-.62s.08-.46.23-.63c.16-.17.35-.26.57-.26s.4.09.56.26c.16.17.23.38.23.63s-.08.45-.23.62c-.16.18-.34.26-.56.26Z"/>
            <path class="cls-10" d="M154.27,127.5c-.38,0-.67-.1-.87-.3s-.33-.46-.4-.79c-.07-.32-.1-.66-.1-1.01v-3.38h-1.63v-1.04h1.63v-1.54h1.04v1.54h2.2v1.04h-2.2v3.38c0,.16.02.32.05.48s.12.29.24.4c.12.1.31.16.57.16h1.3v1.07h-1.84Z"/>
            <path class="cls-10" d="M158.64,130.05v-1.04h1.39c.38,0,.69-.04.91-.11.22-.08.37-.21.46-.39.08-.18.13-.43.13-.73v-1.01c-.22.2-.45.37-.71.51-.26.14-.55.21-.86.2-.32,0-.62-.1-.89-.28-.27-.18-.49-.46-.64-.84-.16-.38-.23-.89-.23-1.52l.02-2.86-.89-.14v-.82h1.9v3.22c0,.4.02.76.06,1.07.04.32.12.57.25.75.13.18.33.28.6.28.25,0,.49-.07.72-.2.23-.13.46-.3.67-.5v-4.67h1.04v6.82c0,.79-.17,1.37-.51,1.73-.34.36-.84.54-1.49.54h-1.92Z"/>
            <path class="cls-10" d="M164.35,129.84v-8.09l-1-.19v-.68h1.88l.11.66c.18-.21.41-.39.68-.53.27-.15.57-.22.89-.22.46,0,.86.13,1.21.39.35.26.61.63.79,1.12.18.49.25,1.07.21,1.75-.04.66-.18,1.25-.41,1.77-.24.52-.54.94-.92,1.24s-.81.45-1.3.45c-.24,0-.45-.04-.64-.13-.19-.09-.35-.2-.5-.32v2.8h-1ZM166.44,126.47c.31,0,.59-.11.82-.33.24-.22.43-.51.57-.88.14-.37.23-.77.26-1.21.05-.66-.03-1.19-.25-1.61-.21-.42-.56-.62-1.04-.62-.31,0-.6.1-.86.31s-.46.48-.61.8v2.69c.1.24.24.44.43.61.19.16.41.25.66.25Z"/>
            <path class="cls-10" d="M172.91,127.69c-.57,0-1.07-.13-1.5-.4-.43-.26-.77-.65-1.01-1.16-.24-.51-.37-1.14-.37-1.87,0-1.12.24-1.98.73-2.58.49-.6,1.15-.9,1.98-.9.52,0,.96.12,1.31.37.36.24.63.57.83.98s.32.86.36,1.34c.04.49,0,.97-.11,1.44h-4.06c.05.43.16.78.35,1.03.18.26.42.44.7.56.28.12.58.17.89.17.17,0,.4-.03.7-.08.3-.06.62-.17.98-.35l.35.9c-.47.25-.88.4-1.21.46-.34.06-.64.09-.91.09ZM171.02,123.9h3.3c.03-.37-.01-.71-.13-1.03-.12-.32-.3-.57-.55-.76-.25-.19-.56-.29-.93-.29s-.67.1-.92.29c-.25.19-.44.45-.58.76-.13.32-.2.66-.2,1.03Z"/>
            <path class="cls-10" d="M182.42,127.5c.36-1.81.73-3.41,1.12-4.82.38-1.4.79-2.61,1.22-3.62h1.12c.44,1.01.85,2.21,1.23,3.62.38,1.4.75,3.01,1.11,4.82h-1.08c-.07-.35-.14-.7-.21-1.03-.07-.34-.13-.66-.2-.98h-2.82c-.06.32-.13.65-.2.98-.07.34-.14.68-.21,1.03h-1.08ZM184.15,124.44h2.34c-.18-.81-.37-1.57-.56-2.27-.19-.71-.39-1.36-.6-1.95-.22.59-.42,1.24-.61,1.95-.19.71-.38,1.47-.56,2.27Z"/>
            <path class="cls-10" d="M190.74,129.79h-.65l.86-2.62c-.13-.17-.19-.36-.19-.58,0-.24.08-.45.24-.62.16-.18.35-.26.58-.26s.4.09.55.26c.15.18.23.38.23.62,0,.16-.03.3-.1.43l-1.52,2.76Z"/>
            <path class="cls-10" d="M204.51,127.69c-.9,0-1.61-.29-2.12-.89-.51-.6-.77-1.45-.77-2.54s.25-1.95.74-2.56c.49-.61,1.18-.92,2.06-.92.47,0,.89.13,1.27.4.37.26.65.63.85,1.09l-.8.42c-.13-.28-.31-.49-.53-.64-.23-.15-.49-.22-.77-.22-.56,0-1,.21-1.31.64-.32.43-.47,1.03-.47,1.79s.16,1.34.49,1.76c.33.42.79.64,1.39.64.33,0,.63-.07.9-.2.27-.14.53-.32.77-.54l.53.85c-.28.28-.61.5-.99.67-.38.16-.78.25-1.21.26Z"/>
            <path class="cls-10" d="M208.21,118.59h2.32v6.8c0,.16.02.32.05.48.03.16.11.29.24.4.13.1.32.16.56.16h1.26v1.07h-1.78c-.39,0-.69-.1-.89-.3s-.33-.46-.4-.79c-.06-.32-.1-.66-.1-1.01v-5.88l-1.27-.25v-.67Z"/>
            <path class="cls-10" d="M218.91,125.94c0,.22.04.38.13.5.08.12.24.18.46.2v.96c-.41.02-.72-.03-.94-.15-.22-.12-.38-.29-.49-.53-.18.22-.41.4-.7.55-.29.15-.67.23-1.15.23-.3,0-.6-.07-.91-.22-.31-.15-.56-.37-.76-.67s-.3-.68-.3-1.15.08-.8.25-1.09c.16-.28.38-.51.66-.68.28-.17.57-.29.89-.37.32-.08.64-.12.95-.14.32-.02.6-.02.86,0v-.16c0-.3-.03-.56-.08-.76-.05-.2-.16-.36-.34-.46-.17-.1-.45-.16-.82-.16-.24,0-.47.03-.7.08-.23.05-.49.15-.79.31l-.5-.89c.38-.2.74-.34,1.1-.43.36-.08.72-.13,1.07-.13.19,0,.41.02.65.05s.47.11.7.22c.22.11.41.29.55.54.14.25.21.58.21,1v3.35ZM215.19,125.59c0,.32.11.57.34.76.23.18.49.28.79.28.44,0,.78-.1,1.01-.31.24-.2.41-.43.53-.67v-1.33c-.28-.02-.58-.03-.89-.02-.31.01-.6.06-.88.13-.27.08-.49.21-.66.39-.17.18-.25.44-.25.77Z"/>
            <path class="cls-10" d="M220.7,126.67l.65-.8c.29.22.59.4.92.55s.64.22.95.22c.42,0,.73-.08.94-.23s.32-.35.32-.59c0-.22-.08-.42-.25-.58s-.39-.3-.66-.43c-.27-.12-.56-.24-.86-.36-.3-.12-.59-.25-.86-.41-.27-.16-.49-.35-.66-.57-.17-.22-.25-.5-.25-.84,0-.3.07-.57.21-.8.14-.23.32-.42.55-.58.23-.16.48-.28.74-.35.27-.08.53-.11.77-.11.44,0,.83.08,1.16.24.33.16.66.39.98.7l-.64.76c-.24-.21-.48-.37-.71-.48-.23-.11-.5-.17-.79-.17-.31,0-.59.07-.85.22-.25.14-.38.33-.39.56,0,.18.07.33.23.46s.38.26.65.38c.27.12.56.25.86.38.3.14.59.29.86.46.27.17.49.38.67.63.17.25.26.54.26.88,0,.57-.2,1.02-.6,1.36-.4.34-.97.51-1.7.51-.48,0-.94-.1-1.39-.29-.45-.2-.82-.43-1.13-.71Z"/>
            <path class="cls-10" d="M227,126.67l.65-.8c.29.22.59.4.92.55.32.15.64.22.95.22.42,0,.73-.08.94-.23s.32-.35.32-.59c0-.22-.08-.42-.25-.58-.17-.16-.39-.3-.66-.43-.27-.12-.56-.24-.86-.36s-.59-.25-.86-.41c-.27-.16-.49-.35-.66-.57-.17-.22-.25-.5-.25-.84,0-.3.07-.57.21-.8.14-.23.32-.42.55-.58.23-.16.48-.28.74-.35.27-.08.53-.11.77-.11.44,0,.83.08,1.16.24s.66.39.98.7l-.64.76c-.24-.21-.48-.37-.71-.48-.23-.11-.5-.17-.79-.17-.31,0-.59.07-.85.22-.25.14-.38.33-.39.56,0,.18.07.33.23.46s.38.26.65.38c.27.12.56.25.86.38.3.14.59.29.86.46.27.17.49.38.67.63.17.25.26.54.26.88,0,.57-.2,1.02-.6,1.36s-.97.51-1.7.51c-.48,0-.94-.1-1.39-.29-.45-.2-.82-.43-1.13-.71Z"/>
            <path class="cls-10" d="M244.37,127.5h-4.69v-1.04h1.82v-6.35h-1.76v-1.04h4.57v1.04h-1.76v6.35h1.82v1.04Z"/>
            <path class="cls-10" d="M245.61,119.06h1.3l3.07,6.42v-6.42h1.04v8.44h-1.25l-3.12-6.44v6.44h-1.04v-8.44Z"/>
            <path class="cls-10" d="M253.74,129.79h-.65l.86-2.62c-.13-.17-.19-.36-.19-.58,0-.24.08-.45.24-.62.16-.18.35-.26.58-.26s.4.09.55.26c.15.18.23.38.23.62,0,.16-.03.3-.1.43l-1.52,2.76Z"/>
            <path class="cls-10" d="M269.31,125.94c0,.22.04.38.13.5.08.12.24.18.46.2v.96c-.41.02-.72-.03-.94-.15-.22-.12-.38-.29-.49-.53-.18.22-.41.4-.7.55-.29.15-.67.23-1.15.23-.3,0-.6-.07-.91-.22-.31-.15-.56-.37-.76-.67s-.3-.68-.3-1.15.08-.8.25-1.09c.16-.28.38-.51.66-.68.28-.17.57-.29.89-.37.32-.08.64-.12.95-.14.32-.02.6-.02.86,0v-.16c0-.3-.03-.56-.08-.76-.05-.2-.16-.36-.34-.46-.17-.1-.45-.16-.82-.16-.24,0-.47.03-.7.08-.23.05-.49.15-.79.31l-.5-.89c.38-.2.74-.34,1.1-.43.36-.08.72-.13,1.07-.13.19,0,.41.02.65.05s.47.11.7.22c.22.11.41.29.55.54.14.25.21.58.21,1v3.35ZM265.59,125.59c0,.32.11.57.34.76.23.18.49.28.79.28.44,0,.78-.1,1.01-.31.24-.2.41-.43.53-.67v-1.33c-.28-.02-.58-.03-.89-.02-.31.01-.6.06-.88.13-.27.08-.49.21-.66.39-.17.18-.25.44-.25.77Z"/>
            <path class="cls-10" d="M273.6,127.7c-.5,0-.95-.14-1.37-.43-.42-.29-.75-.69-1-1.21-.25-.52-.38-1.12-.38-1.8,0-.73.11-1.34.34-1.85.23-.5.53-.89.91-1.15.38-.26.78-.39,1.22-.39.25,0,.48.04.68.13s.39.21.55.37v-2.78h1.02v7.34c0,.44.23.67.68.7v.96c-.55.02-.96-.09-1.24-.31-.2.12-.42.22-.67.3-.24.08-.5.12-.76.12ZM273.6,126.67c.37,0,.69-.06.96-.19v-4.07c-.11-.15-.26-.27-.45-.36-.19-.09-.38-.13-.58-.13-.58,0-1,.21-1.27.62s-.4.99-.4,1.72c0,.48.08.9.23,1.27.15.36.36.65.62.85s.56.3.89.3Z"/>
            <path class="cls-10" d="M279.9,127.7c-.5,0-.95-.14-1.37-.43-.42-.29-.75-.69-1-1.21-.25-.52-.38-1.12-.38-1.8,0-.73.11-1.34.34-1.85s.53-.89.91-1.15c.38-.26.78-.39,1.22-.39.25,0,.48.04.68.13.21.09.39.21.55.37v-2.78h1.02v7.34c0,.44.23.67.68.7v.96c-.55.02-.96-.09-1.24-.31-.2.12-.42.22-.67.3s-.5.12-.76.12ZM279.9,126.67c.37,0,.69-.06.96-.19v-4.07c-.11-.15-.26-.27-.45-.36-.19-.09-.38-.13-.58-.13-.58,0-1,.21-1.27.62-.27.42-.4.99-.4,1.72,0,.48.08.9.23,1.27.15.36.36.65.62.85.26.2.56.3.89.3Z"/>
            <path class="cls-10" d="M283.52,127.5v-.97h1.19v-4.78l-.96-.19v-.68h1.87l.11.86c.26-.26.53-.49.81-.68.28-.19.59-.28.92-.28.3,0,.59.08.85.23.26.14.46.36.6.64l-.74.7c-.11-.15-.25-.27-.43-.35-.17-.08-.35-.12-.53-.12-.24,0-.48.09-.71.27-.23.18-.48.41-.74.7v3.68h2.2v.97h-4.43Z"/>
            <path class="cls-10" d="M296.38,127.5v-1.04h1.97v-5.5c-.47.37-1.01.64-1.61.8l-.43-1.08c.42-.1.85-.3,1.27-.58.42-.28.76-.63,1.01-1.04h.82v7.39h1.8v1.04h-4.82Z"/>
            <path class="cls-10" d="M307.06,120.11h-3.22v2.64c.18-.18.39-.33.64-.44.25-.11.53-.16.82-.16.38,0,.74.11,1.06.34.32.23.58.54.77.95.19.4.29.87.29,1.41,0,.57-.1,1.06-.3,1.49s-.48.76-.85,1c-.36.24-.79.36-1.27.36s-.88-.08-1.25-.25-.76-.43-1.16-.81l.7-.74c.24.26.49.45.74.57s.56.19.9.19c.4,0,.74-.16,1.03-.47.28-.32.43-.76.43-1.33,0-.49-.12-.89-.35-1.19-.23-.31-.54-.46-.94-.46-.22,0-.43.03-.65.1-.22.07-.42.16-.61.28h-.94v-4.51h4.15v1.04Z"/>
            <path class="cls-10" d="M308.91,120.01c.34-.34.72-.61,1.14-.81s.89-.31,1.4-.31c.44,0,.83.11,1.16.33.34.22.6.51.79.88.19.37.28.78.28,1.24,0,.5-.07.93-.21,1.28s-.32.66-.53.92c-.22.27-.44.53-.66.8l-1.8,2.11h3.43v1.04h-4.87v-1.04l1.87-2.11c.26-.3.53-.59.79-.88.26-.29.49-.6.67-.92.18-.33.28-.69.28-1.08,0-.42-.12-.77-.37-1.07-.25-.3-.59-.44-1.02-.44-.3,0-.6.07-.91.22-.31.15-.6.35-.87.61l-.58-.77Z"/>
            <path class="cls-10" d="M317.61,127.73c-.25,0-.46-.1-.63-.29-.17-.2-.26-.43-.26-.69,0-.28.09-.52.26-.71.17-.19.38-.29.63-.29s.46.1.62.29c.17.19.25.43.25.71,0,.26-.08.49-.25.69-.17.2-.38.29-.62.29Z"/>
            <path class="cls-10" d="M321.58,127.5v-1.04h1.97v-5.5c-.47.37-1.01.64-1.61.8l-.43-1.08c.42-.1.85-.3,1.27-.58.42-.28.76-.63,1.01-1.04h.82v7.39h1.8v1.04h-4.82Z"/>
            <path class="cls-10" d="M327.88,127.5v-1.04h1.97v-5.5c-.47.37-1.01.64-1.61.8l-.43-1.08c.42-.1.85-.3,1.27-.58.42-.28.76-.63,1.01-1.04h.82v7.39h1.8v1.04h-4.82Z"/>
            <path class="cls-10" d="M335.83,127.5c.08-.81.22-1.59.43-2.35.2-.76.44-1.54.71-2.36.27-.82.55-1.71.85-2.69h-2.75v1.62h-1.04v-2.66h5.05v.76c-.3,1.02-.6,1.95-.89,2.8s-.54,1.66-.76,2.45c-.22.78-.37,1.6-.46,2.44h-1.14Z"/>
            <path class="cls-10" d="M342.81,127.73c-.25,0-.46-.1-.63-.29-.17-.2-.26-.43-.26-.69,0-.28.09-.52.26-.71.17-.19.38-.29.63-.29s.46.1.62.29c.17.19.25.43.25.71,0,.26-.08.49-.25.69-.17.2-.38.29-.62.29Z"/>
            <path class="cls-10" d="M346.71,120.01c.34-.34.72-.61,1.14-.81s.89-.31,1.4-.31c.44,0,.83.11,1.16.33.34.22.6.51.79.88.19.37.28.78.28,1.24,0,.5-.07.93-.21,1.28s-.32.66-.53.92c-.22.27-.44.53-.66.8l-1.8,2.11h3.43v1.04h-4.87v-1.04l1.87-2.11c.26-.3.53-.59.79-.88.26-.29.49-.6.67-.92.18-.33.28-.69.28-1.08,0-.42-.12-.77-.37-1.07-.25-.3-.59-.44-1.02-.44-.3,0-.6.07-.91.22-.31.15-.6.35-.87.61l-.58-.77Z"/>
            <path class="cls-10" d="M357.46,120.11h-3.22v2.64c.18-.18.39-.33.64-.44.25-.11.53-.16.82-.16.38,0,.74.11,1.06.34.32.23.58.54.77.95.19.4.29.87.29,1.41,0,.57-.1,1.06-.3,1.49s-.48.76-.85,1c-.36.24-.79.36-1.27.36s-.88-.08-1.25-.25-.76-.43-1.16-.81l.7-.74c.24.26.49.45.74.57s.56.19.9.19c.4,0,.74-.16,1.03-.47.28-.32.43-.76.43-1.33,0-.49-.12-.89-.35-1.19-.23-.31-.54-.46-.94-.46-.22,0-.43.03-.65.1-.22.07-.42.16-.61.28h-.94v-4.51h4.15v1.04Z"/>
            <path class="cls-10" d="M363.76,120.11h-3.22v2.64c.18-.18.39-.33.64-.44.25-.11.53-.16.82-.16.38,0,.74.11,1.06.34.32.23.58.54.77.95.19.4.29.87.29,1.41,0,.57-.1,1.06-.3,1.49s-.48.76-.85,1-.79.36-1.27.36-.88-.08-1.25-.25-.76-.43-1.16-.81l.7-.74c.24.26.49.45.74.57s.56.19.9.19c.4,0,.74-.16,1.03-.47.28-.32.43-.76.43-1.33,0-.49-.12-.89-.35-1.19-.23-.31-.54-.46-.94-.46-.22,0-.43.03-.65.1-.22.07-.42.16-.61.28h-.94v-4.51h4.15v1.04Z"/>
            <path class="cls-10" d="M368.01,127.73c-.25,0-.46-.1-.63-.29-.17-.2-.26-.43-.26-.69,0-.28.09-.52.26-.71.17-.19.38-.29.63-.29s.46.1.62.29c.17.19.25.43.25.71,0,.26-.08.49-.25.69-.17.2-.38.29-.62.29Z"/>
            <path class="cls-10" d="M371.98,127.5v-1.04h1.97v-5.5c-.47.37-1.01.64-1.61.8l-.43-1.08c.42-.1.85-.3,1.27-.58.42-.28.76-.63,1.01-1.04h.82v7.39h1.8v1.04h-4.82Z"/>
            <path class="cls-10" d="M382.66,120.11h-3.22v2.64c.18-.18.39-.33.64-.44.25-.11.53-.16.82-.16.38,0,.74.11,1.06.34.32.23.58.54.77.95.19.4.29.87.29,1.41,0,.57-.1,1.06-.3,1.49s-.48.76-.85,1-.79.36-1.27.36-.88-.08-1.25-.25-.76-.43-1.16-.81l.7-.74c.24.26.49.45.74.57s.56.19.9.19c.4,0,.74-.16,1.03-.47.28-.32.43-.76.43-1.33,0-.49-.12-.89-.35-1.19-.23-.31-.54-.46-.94-.46-.22,0-.43.03-.65.1-.22.07-.42.16-.61.28h-.94v-4.51h4.15v1.04Z"/>
            <path class="cls-10" d="M388.96,120.11h-3.22v2.64c.18-.18.39-.33.64-.44.25-.11.53-.16.82-.16.38,0,.74.11,1.06.34.32.23.58.54.77.95.19.4.29.87.29,1.41,0,.57-.1,1.06-.3,1.49s-.48.76-.85,1-.79.36-1.27.36-.88-.08-1.25-.25-.76-.43-1.16-.81l.7-.74c.24.26.49.45.74.57s.56.19.9.19c.4,0,.74-.16,1.03-.47.28-.32.43-.76.43-1.33,0-.49-.12-.89-.35-1.19-.23-.31-.54-.46-.94-.46-.22,0-.43.03-.65.1-.22.07-.42.16-.61.28h-.94v-4.51h4.15v1.04Z"/>
            <path class="cls-10" d="M401.65,127.37h-.11l-4.37-2.92v-1.18l4.37-2.87h.11v1.18l-3.65,2.28,3.65,2.33v1.18Z"/>
          </g>
          <g>
            <path class="cls-7" d="M174.88,141.35v-1.18l3.66-2.33-3.66-2.28v-1.18h.11l4.37,2.87v1.18l-4.37,2.92h-.11Z"/>
            <path class="cls-7" d="M186.99,135.68h1.99v-1.37c0-.46.07-.83.21-1.09.14-.26.31-.45.52-.57s.41-.19.62-.22.39-.04.52-.04c.34,0,.67.05,1.01.16.34.11.65.26.95.46l-.46.88c-.22-.14-.44-.25-.68-.33s-.45-.13-.63-.13c-.3,0-.53.05-.68.16-.15.11-.25.26-.31.47s-.08.46-.08.76v.85h2.05v1.04h-2.05v5.04c0,.35-.03.69-.09,1.01-.06.32-.18.59-.37.79-.19.2-.48.3-.87.3h-1.61v-1.07h1.07c.26,0,.45-.05.57-.16.12-.1.21-.24.25-.4s.06-.32.06-.48v-5.04h-1.99v-1.04Z"/>
            <path class="cls-7" d="M194.42,144.04v-1.04h1.39c.38,0,.69-.04.91-.11.22-.08.37-.21.46-.39.08-.18.13-.43.13-.73v-1.01c-.22.2-.45.37-.71.51-.26.14-.55.21-.86.2-.32,0-.62-.1-.89-.28-.27-.18-.49-.46-.64-.84-.16-.38-.23-.89-.23-1.52l.02-2.86-.89-.14v-.82h1.9v3.22c0,.4.02.76.06,1.07.04.32.12.57.25.75.13.18.33.28.6.28.25,0,.49-.07.72-.2s.46-.3.67-.5v-4.67h1.04v6.82c0,.79-.17,1.37-.51,1.73-.34.36-.84.54-1.49.54h-1.92Z"/>
            <path class="cls-7" d="M199.59,135.68h1.99v-1.37c0-.46.07-.83.21-1.09.14-.26.31-.45.52-.57s.41-.19.62-.22.39-.04.52-.04c.34,0,.67.05,1.01.16.34.11.65.26.95.46l-.46.88c-.22-.14-.44-.25-.68-.33s-.45-.13-.63-.13c-.3,0-.53.05-.68.16-.15.11-.25.26-.31.47s-.08.46-.08.76v.85h2.05v1.04h-2.05v5.04c0,.35-.03.69-.09,1.01-.06.32-.18.59-.37.79-.19.2-.48.3-.87.3h-1.61v-1.07h1.07c.26,0,.45-.05.57-.16.12-.1.21-.24.25-.4s.06-.32.06-.48v-5.04h-1.99v-1.04Z"/>
            <path class="cls-7" d="M210.69,137.33v1.02h-4.37v-1.02h4.37Z"/>
            <path class="cls-7" d="M212.73,141.48v-8.03l-.98-.19v-.68h1.99v3.26c.3-.23.63-.43.98-.59.35-.16.7-.24,1.05-.23.29,0,.55.07.78.2.23.14.42.36.55.67.14.31.2.73.2,1.27v4.33h-1.06v-4.03c0-.46-.07-.78-.2-.98-.14-.2-.35-.3-.64-.3-.23,0-.48.06-.76.18-.27.12-.58.32-.91.6v4.54h-1.01Z"/>
            <path class="cls-7" d="M221.1,141.71c-.25,0-.46-.1-.63-.29-.17-.2-.26-.43-.26-.69,0-.28.09-.52.26-.71.17-.19.38-.29.63-.29s.46.1.62.29c.17.19.25.43.25.71,0,.26-.08.49-.25.69-.17.2-.38.29-.62.29Z"/>
            <path class="cls-7" d="M227.7,141.68c-.9,0-1.61-.29-2.12-.89-.51-.6-.77-1.45-.77-2.54s.25-1.95.74-2.56c.49-.61,1.18-.92,2.06-.92.47,0,.89.13,1.27.4.37.26.65.63.85,1.09l-.8.42c-.13-.28-.31-.49-.53-.64-.23-.15-.49-.22-.77-.22-.56,0-1,.21-1.31.64-.32.43-.47,1.03-.47,1.79s.16,1.34.49,1.76c.33.42.79.64,1.39.64.33,0,.63-.07.9-.2.27-.14.53-.32.77-.54l.53.85c-.28.28-.61.5-.99.67-.38.16-.78.25-1.21.26Z"/>
            <path class="cls-7" d="M233.71,141.68c-.57,0-1.05-.14-1.43-.43-.39-.29-.68-.69-.88-1.21-.2-.52-.3-1.12-.3-1.81s.1-1.3.3-1.82.49-.92.88-1.21c.39-.29.87-.43,1.43-.43s1.04.14,1.43.43.68.69.88,1.21.3,1.12.3,1.82-.1,1.29-.3,1.81c-.2.52-.49.92-.88,1.21s-.86.43-1.43.43ZM233.71,140.64c.38,0,.69-.11.92-.32.23-.21.4-.5.51-.87.11-.37.16-.78.16-1.24s-.05-.89-.16-1.25c-.11-.36-.28-.64-.51-.85-.23-.21-.54-.31-.92-.31s-.69.1-.93.31c-.24.21-.41.49-.52.85-.11.36-.16.78-.16,1.25s.05.87.16,1.24c.11.37.28.66.52.87.24.21.55.32.93.32Z"/>
            <path class="cls-7" d="M237.26,141.48c-.06-.98-.09-2.03-.09-3.16,0-1.13.02-2.27.07-3.42h.86l.08.61c.19-.23.41-.42.64-.55.24-.14.45-.2.65-.2.23,0,.42.07.58.2.15.14.26.32.32.55.18-.22.39-.41.62-.55.23-.14.45-.21.66-.21.33,0,.59.12.79.37.2.25.3.6.32,1.07.07,1.72.06,3.48-.02,5.28h-1.02c.03-.57.05-1.15.07-1.73.01-.59.02-1.15.02-1.7s0-1.04-.02-1.49c0-.26-.04-.46-.1-.62-.06-.16-.19-.23-.39-.23-.14,0-.29.07-.44.22-.15.14-.28.3-.4.48l-.07,4.16h-.8l-.06-4.06c0-.26-.04-.45-.11-.59-.07-.14-.19-.21-.36-.21-.14,0-.29.07-.45.21-.16.14-.29.3-.41.47-.04.8-.05,1.63-.02,2.49.02.86.06,1.73.1,2.6h-1.01Z"/>
            <path class="cls-7" d="M246.31,136.73c-.22,0-.41-.09-.57-.26s-.23-.38-.23-.62.08-.46.23-.63c.16-.17.35-.26.57-.26s.4.09.56.26c.16.17.23.38.23.63s-.08.45-.23.62-.34.26-.56.26ZM246.31,141.48c-.22,0-.41-.09-.57-.26s-.23-.38-.23-.62.08-.46.23-.63.35-.26.57-.26.4.09.56.26.23.38.23.63-.08.45-.23.62-.34.26-.56.26Z"/>
            <path class="cls-7" d="M259.36,141.48c-.38,0-.67-.1-.87-.3-.2-.2-.33-.46-.4-.79s-.1-.66-.1-1.01v-3.38h-1.63v-1.04h1.63v-1.54h1.04v1.54h2.2v1.04h-2.2v3.38c0,.16.02.32.05.48s.12.29.24.4c.12.1.31.16.57.16h1.3v1.07h-1.84Z"/>
            <path class="cls-7" d="M263.72,144.04v-1.04h1.39c.38,0,.69-.04.91-.11.22-.08.37-.21.46-.39.08-.18.13-.43.13-.73v-1.01c-.22.2-.45.37-.71.51-.26.14-.55.21-.86.2-.32,0-.62-.1-.89-.28-.27-.18-.49-.46-.64-.84-.16-.38-.23-.89-.23-1.52l.02-2.86-.89-.14v-.82h1.9v3.22c0,.4.02.76.06,1.07.04.32.12.57.25.75.13.18.33.28.6.28.25,0,.49-.07.72-.2s.46-.3.67-.5v-4.67h1.04v6.82c0,.79-.17,1.37-.51,1.73-.34.36-.84.54-1.49.54h-1.92Z"/>
            <path class="cls-7" d="M269.44,143.82v-8.09l-1-.19v-.68h1.88l.11.66c.18-.21.41-.39.68-.53.27-.15.57-.22.89-.22.46,0,.86.13,1.21.39.35.26.61.63.79,1.12.18.49.25,1.07.21,1.75-.04.66-.18,1.25-.41,1.77-.24.52-.54.94-.92,1.24s-.81.45-1.3.45c-.24,0-.45-.04-.64-.13-.19-.09-.35-.2-.5-.32v2.8h-1ZM271.52,140.45c.31,0,.59-.11.82-.33.24-.22.43-.51.57-.88.14-.37.23-.77.26-1.21.05-.66-.03-1.19-.25-1.61-.21-.42-.56-.62-1.04-.62-.31,0-.6.1-.86.31s-.46.48-.61.8v2.69c.1.24.24.44.43.61.19.16.41.25.66.25Z"/>
            <path class="cls-7" d="M277.99,141.68c-.57,0-1.07-.13-1.5-.4s-.77-.65-1.01-1.16c-.24-.51-.37-1.14-.37-1.87,0-1.12.24-1.98.73-2.58.49-.6,1.15-.9,1.98-.9.52,0,.96.12,1.31.37.36.24.63.57.83.98.2.41.32.86.36,1.34.04.49,0,.97-.11,1.44h-4.06c.05.43.16.78.35,1.03.18.26.42.44.7.56s.58.17.89.17c.17,0,.4-.03.7-.08.3-.06.62-.17.98-.35l.35.9c-.47.25-.88.4-1.21.46-.34.06-.64.09-.91.09ZM276.11,137.88h3.3c.03-.37,0-.71-.13-1.03s-.3-.57-.55-.76c-.25-.19-.56-.29-.93-.29s-.67.1-.92.29c-.25.19-.44.45-.58.76-.13.32-.2.66-.2,1.03Z"/>
            <path class="cls-7" d="M287.45,133.05h1.18c.33.65.64,1.32.94,2.01.3.69.58,1.4.84,2.13.26-.73.53-1.44.83-2.13.3-.69.61-1.36.94-2.01h1.18v8.44h-1.04v-6.53c-.26.55-.51,1.11-.76,1.69s-.48,1.16-.71,1.76h-.88c-.22-.6-.46-1.19-.7-1.76s-.5-1.13-.76-1.69v6.53h-1.04v-8.44Z"/>
            <path class="cls-7" d="M293.95,141.48v-.12l2.11-4.08-2.12-4.12v-.12h1.13l1.63,3.23,1.58-3.23h1.13v.12l-2.08,4.12,2.11,4.08v.12h-1.13l-1.62-3.23-1.62,3.23h-1.13Z"/>
            <path class="cls-7" d="M302.12,143.78h-.65l.86-2.62c-.13-.17-.19-.36-.19-.58,0-.24.08-.45.24-.62.16-.18.35-.26.58-.26s.4.09.55.26c.15.18.23.38.23.62,0,.16-.03.3-.1.43l-1.52,2.76Z"/>
            <path class="cls-7" d="M315.9,141.68c-.9,0-1.61-.29-2.12-.89-.51-.6-.77-1.45-.77-2.54s.25-1.95.74-2.56c.49-.61,1.18-.92,2.06-.92.47,0,.89.13,1.27.4.37.26.65.63.85,1.09l-.8.42c-.13-.28-.31-.49-.53-.64-.23-.15-.49-.22-.77-.22-.56,0-1,.21-1.31.64-.32.43-.47,1.03-.47,1.79s.16,1.34.49,1.76c.33.42.79.64,1.39.64.33,0,.63-.07.9-.2.27-.14.53-.32.77-.54l.53.85c-.28.28-.61.5-.99.67-.38.16-.78.25-1.21.26Z"/>
            <path class="cls-7" d="M319.6,132.58h2.32v6.8c0,.16.02.32.05.48s.11.29.24.4c.13.1.32.16.56.16h1.26v1.07h-1.78c-.39,0-.69-.1-.89-.3-.2-.2-.33-.46-.4-.79-.06-.32-.1-.66-.1-1.01v-5.88l-1.27-.25v-.67Z"/>
            <path class="cls-7" d="M330.3,139.92c0,.22.04.38.13.5.08.12.24.18.46.2v.96c-.41.02-.72-.03-.94-.15-.22-.12-.38-.29-.49-.53-.18.22-.41.4-.7.55-.29.15-.67.23-1.15.23-.3,0-.6-.07-.91-.22-.31-.15-.56-.37-.76-.67s-.3-.68-.3-1.15.08-.8.25-1.09c.16-.28.38-.51.66-.68.28-.17.57-.29.89-.37.32-.08.64-.12.95-.14.32-.02.6-.02.86,0v-.16c0-.3-.03-.56-.08-.76s-.16-.36-.34-.46c-.17-.1-.45-.16-.82-.16-.24,0-.47.03-.7.08-.23.05-.49.15-.79.31l-.5-.89c.38-.2.74-.34,1.1-.43.36-.08.72-.13,1.07-.13.19,0,.41.02.65.05s.47.11.7.22c.22.11.41.29.55.54.14.25.21.58.21,1v3.35ZM326.58,139.58c0,.32.11.57.34.76.23.18.49.28.79.28.44,0,.78-.1,1.01-.31s.41-.43.53-.67v-1.33c-.28-.02-.58-.03-.89-.02-.31.01-.6.06-.88.13-.27.08-.49.21-.66.39-.17.18-.25.44-.25.77Z"/>
            <path class="cls-7" d="M332.09,140.66l.65-.8c.29.22.59.4.92.55s.64.22.95.22c.42,0,.73-.08.94-.23s.32-.35.32-.59c0-.22-.08-.42-.25-.58s-.39-.3-.66-.43c-.27-.12-.56-.24-.86-.36s-.59-.25-.86-.41c-.27-.16-.49-.35-.66-.57-.17-.22-.25-.5-.25-.84,0-.3.07-.57.21-.8.14-.23.32-.42.55-.58.23-.16.48-.28.74-.35.27-.08.53-.11.77-.11.44,0,.83.08,1.16.24s.66.39.98.7l-.64.76c-.24-.21-.48-.37-.71-.48s-.5-.17-.79-.17c-.31,0-.59.07-.85.22-.25.14-.38.33-.39.56,0,.18.07.33.23.46s.38.26.65.38c.27.12.56.25.86.38.3.14.59.29.86.46.27.17.49.38.67.63.17.25.26.54.26.88,0,.57-.2,1.02-.6,1.36-.4.34-.97.51-1.7.51-.48,0-.94-.1-1.39-.29-.45-.2-.82-.43-1.13-.71Z"/>
            <path class="cls-7" d="M338.39,140.66l.65-.8c.29.22.59.4.92.55s.64.22.95.22c.42,0,.73-.08.94-.23s.32-.35.32-.59c0-.22-.08-.42-.25-.58s-.39-.3-.66-.43c-.27-.12-.56-.24-.86-.36s-.59-.25-.86-.41c-.27-.16-.49-.35-.66-.57-.17-.22-.25-.5-.25-.84,0-.3.07-.57.21-.8.14-.23.32-.42.55-.58.23-.16.48-.28.74-.35.27-.08.53-.11.77-.11.44,0,.83.08,1.16.24s.66.39.98.7l-.64.76c-.24-.21-.48-.37-.71-.48s-.5-.17-.79-.17c-.31,0-.59.07-.85.22-.25.14-.38.33-.39.56,0,.18.07.33.23.46s.38.26.65.38c.27.12.56.25.86.38.3.14.59.29.86.46.27.17.49.38.67.63.17.25.26.54.26.88,0,.57-.2,1.02-.6,1.36-.4.34-.97.51-1.7.51-.48,0-.94-.1-1.39-.29-.45-.2-.82-.43-1.13-.71Z"/>
            <path class="cls-7" d="M355.75,141.48h-4.69v-1.04h1.82v-6.35h-1.76v-1.04h4.57v1.04h-1.76v6.35h1.82v1.04Z"/>
            <path class="cls-7" d="M357,133.05h1.3l3.07,6.42v-6.42h1.04v8.44h-1.25l-3.12-6.44v6.44h-1.04v-8.44Z"/>
          </g>
          <g>
            <path class="cls-9" d="M0,149.89h1.99v-1.37c0-.46.07-.83.21-1.09.14-.26.31-.45.52-.57s.41-.19.62-.22c.21-.03.39-.04.52-.04.34,0,.67.05,1.01.16.34.11.65.26.95.46l-.46.88c-.22-.14-.44-.25-.68-.33-.24-.08-.45-.13-.63-.13-.3,0-.53.05-.68.16-.15.11-.25.26-.31.47s-.08.46-.08.76v.85h2.05v1.04h-2.05v5.04c0,.35-.03.69-.09,1.01s-.18.59-.37.79c-.19.2-.48.3-.87.3H.05v-1.07h1.07c.26,0,.45-.05.57-.16.12-.1.21-.24.25-.4s.06-.32.06-.48v-5.04H0v-1.04Z"/>
            <path class="cls-9" d="M7.44,158.26v-1.04h1.39c.38,0,.69-.04.91-.11.22-.08.37-.21.46-.39.08-.18.13-.43.13-.73v-1.01c-.22.2-.45.37-.71.51-.26.14-.55.21-.86.2-.32,0-.62-.1-.89-.28-.27-.18-.49-.46-.64-.84-.16-.38-.23-.89-.23-1.52l.02-2.86-.89-.14v-.82h1.9v3.22c0,.4.02.76.06,1.07.04.32.12.57.25.75.13.18.33.28.6.28.25,0,.49-.07.72-.2.23-.13.46-.3.67-.5v-4.67h1.04v6.82c0,.79-.17,1.37-.51,1.73-.34.36-.84.54-1.49.54h-1.92Z"/>
            <path class="cls-9" d="M12.6,149.89h1.99v-1.37c0-.46.07-.83.21-1.09.14-.26.31-.45.52-.57s.41-.19.62-.22c.21-.03.39-.04.52-.04.34,0,.67.05,1.01.16.34.11.65.26.95.46l-.46.88c-.22-.14-.44-.25-.68-.33-.24-.08-.45-.13-.63-.13-.3,0-.53.05-.68.16-.15.11-.25.26-.31.47s-.08.46-.08.76v.85h2.05v1.04h-2.05v5.04c0,.35-.03.69-.09,1.01s-.18.59-.37.79c-.19.2-.48.3-.87.3h-1.61v-1.07h1.07c.26,0,.45-.05.57-.16.12-.1.21-.24.25-.4s.06-.32.06-.48v-5.04h-1.99v-1.04Z"/>
            <path class="cls-9" d="M23.7,151.55v1.02h-4.37v-1.02h4.37Z"/>
            <path class="cls-9" d="M25.74,155.7v-8.03l-.98-.19v-.68h1.99v3.26c.3-.23.63-.43.98-.59.35-.16.7-.24,1.05-.23.29,0,.55.07.78.2.23.14.42.36.55.67.14.31.2.73.2,1.27v4.33h-1.06v-4.03c0-.46-.07-.78-.2-.98-.14-.2-.35-.3-.64-.3-.23,0-.48.06-.76.18-.27.12-.58.32-.91.6v4.54h-1.01Z"/>
            <path class="cls-9" d="M34.12,155.93c-.25,0-.46-.1-.63-.29-.17-.2-.26-.43-.26-.69,0-.28.09-.52.26-.71.17-.19.38-.29.63-.29s.46.1.62.29c.17.19.25.43.25.71,0,.26-.08.49-.25.69-.17.2-.38.29-.62.29Z"/>
            <path class="cls-9" d="M40.72,155.89c-.9,0-1.61-.29-2.12-.89-.51-.6-.77-1.45-.77-2.54s.25-1.95.74-2.56c.49-.61,1.18-.92,2.06-.92.47,0,.89.13,1.27.4.37.26.65.63.85,1.09l-.8.42c-.13-.28-.31-.49-.53-.64-.23-.15-.49-.22-.77-.22-.56,0-1,.21-1.31.64-.32.43-.47,1.03-.47,1.79s.16,1.34.49,1.76c.33.42.79.64,1.39.64.33,0,.63-.07.9-.2.27-.14.53-.32.77-.54l.53.85c-.28.28-.61.5-.99.67-.38.16-.78.25-1.21.26Z"/>
            <path class="cls-9" d="M46.73,155.89c-.57,0-1.05-.14-1.43-.43s-.68-.69-.88-1.21c-.2-.52-.3-1.12-.3-1.81s.1-1.3.3-1.82.49-.92.88-1.21.87-.43,1.43-.43,1.04.14,1.43.43.68.69.88,1.21c.2.52.3,1.12.3,1.82s-.1,1.29-.3,1.81c-.2.52-.49.92-.88,1.21s-.86.43-1.43.43ZM46.73,154.86c.38,0,.69-.11.92-.32.23-.21.4-.5.51-.87.11-.37.16-.78.16-1.24s-.05-.89-.16-1.25c-.11-.36-.28-.64-.51-.85-.23-.21-.54-.31-.92-.31s-.69.1-.93.31-.41.49-.52.85c-.11.36-.16.78-.16,1.25s.05.87.16,1.24c.11.37.28.66.52.87s.55.32.93.32Z"/>
            <path class="cls-9" d="M50.28,155.7c-.06-.98-.09-2.03-.09-3.16s.02-2.27.07-3.42h.86l.08.61c.19-.23.41-.42.64-.55.24-.14.45-.2.65-.2.23,0,.42.07.58.2.15.14.26.32.32.55.18-.22.39-.41.62-.55.23-.14.45-.21.66-.21.33,0,.59.12.79.37s.3.6.32,1.07c.07,1.72.06,3.48-.02,5.28h-1.02c.03-.57.05-1.15.07-1.73.01-.59.02-1.15.02-1.7s0-1.04-.02-1.49c0-.26-.04-.46-.1-.62s-.19-.23-.39-.23c-.14,0-.29.07-.44.22-.15.14-.28.3-.4.48l-.07,4.16h-.8l-.06-4.06c0-.26-.04-.45-.11-.59-.07-.14-.19-.21-.36-.21-.14,0-.29.07-.45.21-.16.14-.29.3-.41.47-.04.8-.05,1.63-.02,2.49.02.86.06,1.73.1,2.6h-1.01Z"/>
            <path class="cls-9" d="M59.33,150.95c-.22,0-.41-.09-.57-.26s-.23-.38-.23-.62.08-.46.23-.63c.16-.17.35-.26.57-.26s.4.09.56.26c.16.17.23.38.23.63s-.08.45-.23.62-.34.26-.56.26ZM59.33,155.7c-.22,0-.41-.09-.57-.26s-.23-.38-.23-.62.08-.46.23-.63.35-.26.57-.26.4.09.56.26.23.38.23.63-.08.45-.23.62-.34.26-.56.26Z"/>
            <path class="cls-9" d="M72.37,155.7c-.38,0-.67-.1-.87-.3-.2-.2-.33-.46-.4-.79-.07-.32-.1-.66-.1-1.01v-3.38h-1.63v-1.04h1.63v-1.54h1.04v1.54h2.2v1.04h-2.2v3.38c0,.16.02.32.05.48s.12.29.24.4c.12.1.31.16.57.16h1.3v1.07h-1.84Z"/>
            <path class="cls-9" d="M76.74,158.26v-1.04h1.39c.38,0,.69-.04.91-.11.22-.08.37-.21.46-.39.08-.18.13-.43.13-.73v-1.01c-.22.2-.45.37-.71.51-.26.14-.55.21-.86.2-.32,0-.62-.1-.89-.28-.27-.18-.49-.46-.64-.84-.16-.38-.23-.89-.23-1.52l.02-2.86-.89-.14v-.82h1.9v3.22c0,.4.02.76.06,1.07.04.32.12.57.25.75.13.18.33.28.6.28.25,0,.49-.07.72-.2.23-.13.46-.3.67-.5v-4.67h1.04v6.82c0,.79-.17,1.37-.51,1.73-.34.36-.84.54-1.49.54h-1.92Z"/>
            <path class="cls-9" d="M82.45,158.04v-8.09l-1-.19v-.68h1.88l.11.66c.18-.21.41-.39.68-.53.27-.15.57-.22.89-.22.46,0,.86.13,1.21.39.35.26.61.63.79,1.12.18.49.25,1.07.21,1.75-.04.66-.18,1.25-.41,1.77-.24.52-.54.94-.92,1.24-.38.3-.81.45-1.3.45-.24,0-.45-.04-.64-.13-.19-.09-.35-.2-.5-.32v2.8h-1ZM84.54,154.67c.31,0,.59-.11.82-.33.24-.22.43-.51.57-.88.14-.37.23-.77.26-1.21.05-.66-.03-1.19-.25-1.61-.21-.42-.56-.62-1.04-.62-.31,0-.6.1-.86.31-.26.21-.46.48-.61.8v2.69c.1.24.24.44.43.61.19.16.41.25.66.25Z"/>
            <path class="cls-9" d="M91.01,155.89c-.57,0-1.07-.13-1.5-.4-.43-.26-.77-.65-1.01-1.16-.24-.51-.37-1.14-.37-1.87,0-1.12.24-1.98.73-2.58.49-.6,1.15-.9,1.98-.9.52,0,.96.12,1.31.37.36.24.63.57.83.98s.32.86.36,1.34c.04.49,0,.97-.11,1.44h-4.06c.05.43.16.78.35,1.03.18.26.42.44.7.56.28.12.58.17.89.17.17,0,.4-.03.7-.08.3-.06.62-.17.98-.35l.35.9c-.47.25-.88.4-1.21.46-.34.06-.64.09-.91.09ZM89.12,152.1h3.3c.03-.37-.01-.71-.13-1.03-.12-.32-.3-.57-.55-.76-.25-.19-.56-.29-.93-.29s-.67.1-.92.29c-.25.19-.44.45-.58.76-.13.32-.2.66-.2,1.03Z"/>
            <path class="cls-9" d="M100.46,147.27h1.18c.33.65.64,1.32.94,2.01.3.69.58,1.4.84,2.13.26-.73.53-1.44.83-2.13.3-.69.61-1.36.94-2.01h1.18v8.44h-1.04v-6.53c-.26.55-.51,1.11-.76,1.69-.25.57-.48,1.16-.71,1.76h-.88c-.22-.6-.46-1.19-.7-1.76-.24-.57-.5-1.13-.76-1.69v6.53h-1.04v-8.44Z"/>
            <path class="cls-9" d="M106.97,155.7v-.12l2.11-4.08-2.12-4.12v-.12h1.13l1.63,3.23,1.58-3.23h1.13v.12l-2.08,4.12,2.11,4.08v.12h-1.13l-1.62-3.23-1.62,3.23h-1.13Z"/>
            <path class="cls-9" d="M115.14,157.99h-.65l.86-2.62c-.13-.17-.19-.36-.19-.58,0-.24.08-.45.24-.62.16-.18.35-.26.58-.26s.4.09.55.26c.15.18.23.38.23.62,0,.16-.03.3-.1.43l-1.52,2.76Z"/>
            <path class="cls-9" d="M128.92,155.89c-.9,0-1.61-.29-2.12-.89-.51-.6-.77-1.45-.77-2.54s.25-1.95.74-2.56c.49-.61,1.18-.92,2.06-.92.47,0,.89.13,1.27.4.37.26.65.63.85,1.09l-.8.42c-.13-.28-.31-.49-.53-.64-.23-.15-.49-.22-.77-.22-.56,0-1,.21-1.31.64-.32.43-.47,1.03-.47,1.79s.16,1.34.49,1.76c.33.42.79.64,1.39.64.33,0,.63-.07.9-.2.27-.14.53-.32.77-.54l.53.85c-.28.28-.61.5-.99.67-.38.16-.78.25-1.21.26Z"/>
            <path class="cls-9" d="M132.61,146.8h2.32v6.8c0,.16.02.32.05.48s.11.29.24.4c.13.1.32.16.56.16h1.26v1.07h-1.78c-.39,0-.69-.1-.89-.3-.2-.2-.33-.46-.4-.79-.06-.32-.1-.66-.1-1.01v-5.88l-1.27-.25v-.67Z"/>
            <path class="cls-9" d="M143.32,154.14c0,.22.04.38.13.5.08.12.24.18.46.2v.96c-.41.02-.72-.03-.94-.15-.22-.12-.38-.29-.49-.53-.18.22-.41.4-.7.55-.29.15-.67.23-1.15.23-.3,0-.6-.07-.91-.22-.31-.15-.56-.37-.76-.67s-.3-.68-.3-1.15.08-.8.25-1.09c.16-.28.38-.51.66-.68.28-.17.57-.29.89-.37.32-.08.64-.12.95-.14.32-.02.6-.02.86,0v-.16c0-.3-.03-.56-.08-.76-.05-.2-.16-.36-.34-.46-.17-.1-.45-.16-.82-.16-.24,0-.47.03-.7.08-.23.05-.49.15-.79.31l-.5-.89c.38-.2.74-.34,1.1-.43.36-.08.72-.13,1.07-.13.19,0,.41.02.65.05s.47.11.7.22c.22.11.41.29.55.54.14.25.21.58.21,1v3.35ZM139.59,153.79c0,.32.11.57.34.76.23.18.49.28.79.28.44,0,.78-.1,1.01-.31.24-.2.41-.43.53-.67v-1.33c-.28-.02-.58-.03-.89-.02-.31.01-.6.06-.88.13-.27.08-.49.21-.66.39-.17.18-.25.44-.25.77Z"/>
            <path class="cls-9" d="M145.1,154.87l.65-.8c.29.22.59.4.92.55s.64.22.95.22c.42,0,.73-.08.94-.23s.32-.35.32-.59c0-.22-.08-.42-.25-.58s-.39-.3-.66-.43c-.27-.12-.56-.24-.86-.36-.3-.12-.59-.25-.86-.41-.27-.16-.49-.35-.66-.57-.17-.22-.25-.5-.25-.84,0-.3.07-.57.21-.8.14-.23.32-.42.55-.58.23-.16.48-.28.74-.35.27-.08.53-.11.77-.11.44,0,.83.08,1.16.24.33.16.66.39.98.7l-.64.76c-.24-.21-.48-.37-.71-.48-.23-.11-.5-.17-.79-.17-.31,0-.59.07-.85.22-.25.14-.38.33-.39.56,0,.18.07.33.23.46s.38.26.65.38c.27.12.56.25.86.38.3.14.59.29.86.46.27.17.49.38.67.63.17.25.26.54.26.88,0,.57-.2,1.02-.6,1.36-.4.34-.97.51-1.7.51-.48,0-.94-.1-1.39-.29-.45-.2-.82-.43-1.13-.71Z"/>
            <path class="cls-9" d="M151.4,154.87l.65-.8c.29.22.59.4.92.55s.64.22.95.22c.42,0,.73-.08.94-.23s.32-.35.32-.59c0-.22-.08-.42-.25-.58s-.39-.3-.66-.43c-.27-.12-.56-.24-.86-.36-.3-.12-.59-.25-.86-.41-.27-.16-.49-.35-.66-.57-.17-.22-.25-.5-.25-.84,0-.3.07-.57.21-.8.14-.23.32-.42.55-.58.23-.16.48-.28.74-.35.27-.08.53-.11.77-.11.44,0,.83.08,1.16.24.33.16.66.39.98.7l-.64.76c-.24-.21-.48-.37-.71-.48-.23-.11-.5-.17-.79-.17-.31,0-.59.07-.85.22-.25.14-.38.33-.39.56,0,.18.07.33.23.46s.38.26.65.38c.27.12.56.25.86.38.3.14.59.29.86.46.27.17.49.38.67.63.17.25.26.54.26.88,0,.57-.2,1.02-.6,1.36-.4.34-.97.51-1.7.51-.48,0-.94-.1-1.39-.29-.45-.2-.82-.43-1.13-.71Z"/>
            <path class="cls-9" d="M168.77,155.7h-4.69v-1.04h1.82v-6.35h-1.76v-1.04h4.57v1.04h-1.76v6.35h1.82v1.04Z"/>
            <path class="cls-9" d="M170.01,147.27h1.3l3.07,6.42v-6.42h1.04v8.44h-1.25l-3.12-6.44v6.44h-1.04v-8.44Z"/>
            <path class="cls-9" d="M178.14,157.99h-.65l.86-2.62c-.13-.17-.19-.36-.19-.58,0-.24.08-.45.24-.62.16-.18.35-.26.58-.26s.4.09.55.26c.15.18.23.38.23.62,0,.16-.03.3-.1.43l-1.52,2.76Z"/>
            <path class="cls-9" d="M189.55,158.04v-8.09l-1-.19v-.68h1.88l.11.66c.18-.21.41-.39.68-.53.27-.15.57-.22.89-.22.46,0,.86.13,1.21.39.35.26.61.63.79,1.12.18.49.25,1.07.21,1.75-.04.66-.18,1.25-.41,1.77-.24.52-.54.94-.92,1.24s-.81.45-1.3.45c-.24,0-.45-.04-.64-.13-.19-.09-.35-.2-.5-.32v2.8h-1ZM191.64,154.67c.31,0,.59-.11.82-.33.24-.22.43-.51.57-.88.14-.37.23-.77.26-1.21.05-.66-.03-1.19-.25-1.61-.21-.42-.56-.62-1.04-.62-.31,0-.6.1-.86.31s-.46.48-.61.8v2.69c.1.24.24.44.43.61.19.16.41.25.66.25Z"/>
            <path class="cls-9" d="M195.32,155.7v-.97h1.19v-4.78l-.96-.19v-.68h1.87l.11.86c.26-.26.53-.49.81-.68.28-.19.59-.28.92-.28.3,0,.59.08.85.23.26.14.46.36.6.64l-.74.7c-.11-.15-.25-.27-.43-.35s-.35-.12-.53-.12c-.24,0-.48.09-.71.27-.23.18-.48.41-.74.7v3.68h2.2v.97h-4.43Z"/>
            <path class="cls-9" d="M204.41,155.89c-.57,0-1.07-.13-1.5-.4-.43-.26-.77-.65-1.01-1.16-.24-.51-.37-1.14-.37-1.87,0-1.12.24-1.98.73-2.58.49-.6,1.15-.9,1.98-.9.52,0,.96.12,1.31.37.36.24.63.57.83.98s.32.86.36,1.34c.04.49,0,.97-.11,1.44h-4.06c.05.43.16.78.35,1.03.18.26.42.44.7.56.28.12.58.17.89.17.17,0,.4-.03.7-.08.3-.06.62-.17.98-.35l.35.9c-.47.25-.88.4-1.21.46-.34.06-.64.09-.91.09ZM202.52,152.1h3.3c.03-.37-.01-.71-.13-1.03-.12-.32-.3-.57-.55-.76-.25-.19-.56-.29-.93-.29s-.67.1-.92.29c-.25.19-.44.45-.58.76-.13.32-.2.66-.2,1.03Z"/>
            <path class="cls-9" d="M207.9,149.89h1.99v-1.37c0-.46.07-.83.21-1.09.14-.26.31-.45.52-.57s.41-.19.62-.22c.21-.03.39-.04.52-.04.34,0,.67.05,1.01.16.34.11.65.26.95.46l-.46.88c-.22-.14-.44-.25-.68-.33-.24-.08-.45-.13-.63-.13-.3,0-.53.05-.68.16-.15.11-.25.26-.31.47s-.08.46-.08.76v.85h2.05v1.04h-2.05v5.04c0,.35-.03.69-.09,1.01s-.18.59-.37.79c-.19.2-.48.3-.87.3h-1.61v-1.07h1.07c.26,0,.45-.05.57-.16.12-.1.21-.24.25-.4s.06-.32.06-.48v-5.04h-1.99v-1.04Z"/>
            <path class="cls-9" d="M217.01,155.89c-.57,0-1.07-.13-1.5-.4-.43-.26-.77-.65-1.01-1.16-.24-.51-.37-1.14-.37-1.87,0-1.12.24-1.98.73-2.58.49-.6,1.15-.9,1.98-.9.52,0,.96.12,1.31.37.36.24.63.57.83.98s.32.86.36,1.34c.04.49,0,.97-.11,1.44h-4.06c.05.43.16.78.35,1.03.18.26.42.44.7.56.28.12.58.17.89.17.17,0,.4-.03.7-.08.3-.06.62-.17.98-.35l.35.9c-.47.25-.88.4-1.21.46-.34.06-.64.09-.91.09ZM215.12,152.1h3.3c.03-.37-.01-.71-.13-1.03-.12-.32-.3-.57-.55-.76-.25-.19-.56-.29-.93-.29s-.67.1-.92.29c-.25.19-.44.45-.58.76-.13.32-.2.66-.2,1.03Z"/>
            <path class="cls-9" d="M220.52,155.7v-.97h1.19v-4.78l-.96-.19v-.68h1.87l.11.86c.26-.26.53-.49.81-.68.28-.19.59-.28.92-.28.3,0,.59.08.85.23.26.14.46.36.6.64l-.74.7c-.11-.15-.25-.27-.43-.35-.17-.08-.35-.12-.53-.12-.24,0-.48.09-.71.27-.23.18-.48.41-.74.7v3.68h2.2v.97h-4.43Z"/>
            <path class="cls-9" d="M229.61,155.89c-.57,0-1.07-.13-1.5-.4-.43-.26-.77-.65-1.01-1.16-.24-.51-.37-1.14-.37-1.87,0-1.12.24-1.98.73-2.58.49-.6,1.15-.9,1.98-.9.52,0,.96.12,1.31.37.36.24.63.57.83.98.2.41.32.86.36,1.34.04.49,0,.97-.11,1.44h-4.06c.05.43.16.78.35,1.03.18.26.42.44.7.56s.58.17.89.17c.17,0,.4-.03.7-.08.3-.06.62-.17.98-.35l.35.9c-.47.25-.88.4-1.21.46-.34.06-.64.09-.91.09ZM227.72,152.1h3.3c.03-.37,0-.71-.13-1.03s-.3-.57-.55-.76c-.25-.19-.56-.29-.93-.29s-.67.1-.92.29c-.25.19-.44.45-.58.76s-.2.66-.2,1.03Z"/>
            <path class="cls-9" d="M233.34,155.7v-6.58h.91l.1.79c.31-.27.66-.5,1.06-.68s.77-.27,1.13-.26c.27,0,.52.07.76.22.23.14.42.38.56.71s.22.77.22,1.32v4.48h-1.06v-4.28c0-.46-.07-.8-.21-1-.14-.2-.35-.3-.63-.3-.25,0-.52.07-.82.2s-.63.37-1,.7v4.68h-1.02Z"/>
            <path class="cls-9" d="M242.31,155.89c-.9,0-1.61-.29-2.12-.89-.51-.6-.77-1.45-.77-2.54s.25-1.95.74-2.56c.49-.61,1.18-.92,2.06-.92.47,0,.89.13,1.27.4.37.26.65.63.85,1.09l-.8.42c-.13-.28-.31-.49-.53-.64-.23-.15-.49-.22-.77-.22-.56,0-1,.21-1.31.64-.32.43-.47,1.03-.47,1.79s.16,1.34.49,1.76c.33.42.79.64,1.39.64.33,0,.63-.07.9-.2.27-.14.53-.32.77-.54l.53.85c-.28.28-.61.5-.99.67-.38.16-.78.25-1.21.26Z"/>
            <path class="cls-9" d="M248.51,155.89c-.57,0-1.07-.13-1.5-.4-.43-.26-.77-.65-1.01-1.16-.24-.51-.37-1.14-.37-1.87,0-1.12.24-1.98.73-2.58.49-.6,1.15-.9,1.98-.9.52,0,.96.12,1.31.37.36.24.63.57.83.98s.32.86.36,1.34c.04.49,0,.97-.11,1.44h-4.06c.05.43.16.78.35,1.03.18.26.42.44.7.56.28.12.58.17.89.17.17,0,.4-.03.7-.08.3-.06.62-.17.98-.35l.35.9c-.47.25-.88.4-1.21.46-.34.06-.64.09-.91.09ZM246.62,152.1h3.3c.03-.37-.01-.71-.13-1.03-.12-.32-.3-.57-.55-.76-.25-.19-.56-.29-.93-.29s-.67.1-.92.29c-.25.19-.44.45-.58.76-.13.32-.2.66-.2,1.03Z"/>
            <path class="cls-9" d="M258.58,155.7v-1.04h1.97v-5.5c-.47.37-1.01.64-1.61.8l-.43-1.08c.42-.1.85-.3,1.27-.58.42-.28.76-.63,1.01-1.04h.82v7.39h1.8v1.04h-4.82Z"/>
            <path class="cls-9" d="M267.24,155.89c-.52,0-.96-.11-1.31-.34-.35-.22-.63-.53-.85-.93-.21-.4-.36-.86-.45-1.4s-.13-1.12-.13-1.74.04-1.23.13-1.76.24-1,.45-1.39c.21-.4.49-.71.85-.93.35-.22.79-.34,1.31-.34s.97.11,1.31.34c.35.22.62.53.83.93.2.4.35.86.43,1.39s.13,1.12.13,1.76-.04,1.2-.13,1.74-.23,1-.43,1.4c-.2.4-.48.71-.83.93-.35.22-.79.34-1.31.34ZM265.54,151.48c0,.4.01.78.04,1.13.02.35.08.67.16.96l2.59-4.99c-.12-.14-.27-.25-.45-.33-.18-.08-.39-.11-.64-.11-.37,0-.67.08-.89.25-.23.17-.4.4-.51.71-.11.3-.19.66-.23,1.06s-.06.85-.06,1.33ZM267.24,154.84c.38,0,.67-.09.89-.26s.38-.41.49-.71.18-.66.22-1.07c.04-.41.05-.85.05-1.32,0-.39-.01-.76-.03-1.11-.02-.35-.06-.66-.13-.94l-2.58,4.98c.12.14.27.24.45.32.18.08.39.11.63.11Z"/>
            <path class="cls-9" d="M272.64,157.99h-.65l.86-2.62c-.13-.17-.19-.36-.19-.58,0-.24.08-.45.24-.62.16-.18.35-.26.58-.26s.4.09.55.26c.15.18.23.38.23.62,0,.16-.03.3-.1.43l-1.52,2.76Z"/>
            <path class="cls-9" d="M283.38,155.7c-.06-.98-.09-2.03-.09-3.16s.02-2.27.07-3.42h.86l.08.61c.19-.23.41-.42.64-.55.24-.14.45-.2.65-.2.23,0,.42.07.58.2.15.14.26.32.32.55.18-.22.39-.41.62-.55.23-.14.45-.21.66-.21.33,0,.59.12.79.37.2.25.3.6.32,1.07.07,1.72.06,3.48-.02,5.28h-1.02c.03-.57.05-1.15.07-1.73.01-.59.02-1.15.02-1.7s0-1.04-.02-1.49c0-.26-.04-.46-.1-.62-.06-.16-.19-.23-.39-.23-.14,0-.29.07-.44.22-.15.14-.28.3-.4.48l-.07,4.16h-.8l-.06-4.06c0-.26-.04-.45-.11-.59-.07-.14-.19-.21-.36-.21-.14,0-.29.07-.45.21-.16.14-.29.3-.41.47-.04.8-.05,1.63-.02,2.49.02.86.06,1.73.1,2.6h-1.01Z"/>
            <path class="cls-9" d="M289.98,155.7v-.12l1.79-3.19-1.73-3.11v-.11h1.09l1.28,2.35,1.3-2.35h1.09v.11l-1.74,3.11,1.8,3.19v.12h-1.1l-1.34-2.45-1.33,2.45h-1.1Z"/>
            <path class="cls-9" d="M302.28,155.7c-.06-.98-.09-2.03-.09-3.16s.02-2.27.07-3.42h.86l.08.61c.19-.23.41-.42.64-.55.24-.14.45-.2.65-.2.23,0,.42.07.58.2.15.14.26.32.32.55.18-.22.39-.41.62-.55.23-.14.45-.21.66-.21.33,0,.59.12.79.37s.3.6.32,1.07c.07,1.72.06,3.48-.02,5.28h-1.02c.03-.57.05-1.15.07-1.73.01-.59.02-1.15.02-1.7s0-1.04-.02-1.49c0-.26-.04-.46-.1-.62s-.19-.23-.39-.23c-.14,0-.29.07-.44.22-.15.14-.28.3-.4.48l-.07,4.16h-.8l-.06-4.06c0-.26-.04-.45-.11-.59-.07-.14-.19-.21-.36-.21-.14,0-.29.07-.45.21-.16.14-.29.3-.41.47-.04.8-.05,1.63-.02,2.49.02.86.06,1.73.1,2.6h-1.01Z"/>
            <path class="cls-9" d="M313.41,154.14c0,.22.04.38.13.5.08.12.24.18.46.2v.96c-.41.02-.72-.03-.94-.15-.22-.12-.38-.29-.49-.53-.18.22-.41.4-.7.55-.29.15-.67.23-1.15.23-.3,0-.6-.07-.91-.22-.31-.15-.56-.37-.76-.67s-.3-.68-.3-1.15.08-.8.25-1.09c.16-.28.38-.51.66-.68.28-.17.57-.29.89-.37.32-.08.64-.12.95-.14.32-.02.6-.02.86,0v-.16c0-.3-.03-.56-.08-.76-.05-.2-.16-.36-.34-.46-.17-.1-.45-.16-.82-.16-.24,0-.47.03-.7.08-.23.05-.49.15-.79.31l-.5-.89c.38-.2.74-.34,1.1-.43.36-.08.72-.13,1.07-.13.19,0,.41.02.65.05s.47.11.7.22c.22.11.41.29.55.54.14.25.21.58.21,1v3.35ZM309.69,153.79c0,.32.11.57.34.76.23.18.49.28.79.28.44,0,.78-.1,1.01-.31.24-.2.41-.43.53-.67v-1.33c-.28-.02-.58-.03-.89-.02-.31.01-.6.06-.88.13-.27.08-.49.21-.66.39-.17.18-.25.44-.25.77Z"/>
            <path class="cls-9" d="M315.21,155.7v-1.02h2.04v-3.98h-1.46v-1.04h2.44v5.03h1.75v1.02h-4.76ZM317.61,148.5c-.23,0-.43-.09-.6-.27-.17-.18-.25-.41-.25-.68s.08-.49.25-.67c.17-.18.37-.28.6-.28s.44.09.61.28c.16.18.25.41.25.67s-.08.5-.25.68c-.16.18-.37.27-.61.27Z"/>
            <path class="cls-9" d="M321.61,146.8h2.32v6.8c0,.16.02.32.05.48s.11.29.24.4c.13.1.32.16.56.16h1.26v1.07h-1.78c-.39,0-.69-.1-.89-.3-.2-.2-.33-.46-.4-.79-.06-.32-.1-.66-.1-1.01v-5.88l-1.27-.25v-.67Z"/>
            <path class="cls-9" d="M330.21,155.93c-.25,0-.46-.1-.63-.29-.17-.2-.26-.43-.26-.69,0-.28.09-.52.26-.71.17-.19.38-.29.63-.29s.46.1.62.29c.17.19.25.43.25.71,0,.26-.08.49-.25.69-.17.2-.38.29-.62.29Z"/>
            <path class="cls-9" d="M333.9,149.89h1.99v-1.37c0-.46.07-.83.21-1.09.14-.26.31-.45.52-.57s.41-.19.62-.22.39-.04.52-.04c.34,0,.67.05,1.01.16.34.11.65.26.95.46l-.46.88c-.22-.14-.44-.25-.68-.33-.24-.08-.45-.13-.63-.13-.3,0-.53.05-.68.16-.15.11-.25.26-.31.47-.05.2-.08.46-.08.76v.85h2.05v1.04h-2.05v5.04c0,.35-.03.69-.09,1.01-.06.32-.18.59-.37.79-.19.2-.48.3-.87.3h-1.61v-1.07h1.07c.26,0,.45-.05.57-.16.12-.1.21-.24.25-.4s.06-.32.06-.48v-5.04h-1.99v-1.04Z"/>
            <path class="cls-9" d="M341.34,158.26v-1.04h1.39c.38,0,.69-.04.91-.11.22-.08.37-.21.46-.39.08-.18.13-.43.13-.73v-1.01c-.22.2-.45.37-.71.51-.26.14-.55.21-.86.2-.32,0-.62-.1-.89-.28-.27-.18-.49-.46-.64-.84-.16-.38-.23-.89-.23-1.52l.02-2.86-.89-.14v-.82h1.9v3.22c0,.4.02.76.06,1.07.04.32.12.57.25.75.13.18.33.28.6.28.25,0,.49-.07.72-.2.23-.13.46-.3.67-.5v-4.67h1.04v6.82c0,.79-.17,1.37-.51,1.73-.34.36-.84.54-1.49.54h-1.92Z"/>
            <path class="cls-9" d="M346.5,149.89h1.99v-1.37c0-.46.07-.83.21-1.09.14-.26.31-.45.52-.57s.41-.19.62-.22c.21-.03.39-.04.52-.04.34,0,.67.05,1.01.16.34.11.65.26.95.46l-.46.88c-.22-.14-.44-.25-.68-.33s-.45-.13-.63-.13c-.3,0-.53.05-.68.16-.15.11-.25.26-.31.47s-.08.46-.08.76v.85h2.05v1.04h-2.05v5.04c0,.35-.03.69-.09,1.01s-.18.59-.37.79c-.19.2-.48.3-.87.3h-1.61v-1.07h1.07c.26,0,.45-.05.57-.16.12-.1.21-.24.25-.4s.06-.32.06-.48v-5.04h-1.99v-1.04Z"/>
            <path class="cls-9" d="M357.6,151.55v1.02h-4.37v-1.02h4.37Z"/>
            <path class="cls-9" d="M359.64,155.7v-8.03l-.98-.19v-.68h1.99v3.26c.3-.23.63-.43.98-.59.35-.16.7-.24,1.05-.23.29,0,.55.07.78.2.23.14.42.36.55.67.14.31.2.73.2,1.27v4.33h-1.06v-4.03c0-.46-.07-.78-.2-.98-.14-.2-.35-.3-.64-.3-.23,0-.48.06-.76.18-.27.12-.58.32-.91.6v4.54h-1.01Z"/>
            <path class="cls-9" d="M368.01,155.93c-.25,0-.46-.1-.63-.29-.17-.2-.26-.43-.26-.69,0-.28.09-.52.26-.71.17-.19.38-.29.63-.29s.46.1.62.29c.17.19.25.43.25.71,0,.26-.08.49-.25.69-.17.2-.38.29-.62.29Z"/>
            <path class="cls-9" d="M374.61,155.89c-.9,0-1.61-.29-2.12-.89-.51-.6-.77-1.45-.77-2.54s.25-1.95.74-2.56c.49-.61,1.18-.92,2.06-.92.47,0,.89.13,1.27.4.37.26.65.63.85,1.09l-.8.42c-.13-.28-.31-.49-.53-.64-.23-.15-.49-.22-.77-.22-.56,0-1,.21-1.31.64-.32.43-.47,1.03-.47,1.79s.16,1.34.49,1.76c.33.42.79.64,1.39.64.33,0,.63-.07.9-.2.27-.14.53-.32.77-.54l.53.85c-.28.28-.61.5-.99.67-.38.16-.78.25-1.21.26Z"/>
            <path class="cls-9" d="M380.62,155.89c-.57,0-1.05-.14-1.43-.43-.39-.29-.68-.69-.88-1.21-.2-.52-.3-1.12-.3-1.81s.1-1.3.3-1.82.49-.92.88-1.21c.39-.29.87-.43,1.43-.43s1.04.14,1.43.43.68.69.88,1.21.3,1.12.3,1.82-.1,1.29-.3,1.81c-.2.52-.49.92-.88,1.21s-.86.43-1.43.43ZM380.62,154.86c.38,0,.69-.11.92-.32.23-.21.4-.5.51-.87.11-.37.16-.78.16-1.24s-.05-.89-.16-1.25c-.11-.36-.28-.64-.51-.85-.23-.21-.54-.31-.92-.31s-.69.1-.93.31c-.24.21-.41.49-.52.85-.11.36-.16.78-.16,1.25s.05.87.16,1.24c.11.37.28.66.52.87.24.21.55.32.93.32Z"/>
            <path class="cls-9" d="M384.18,155.7c-.06-.98-.09-2.03-.09-3.16,0-1.13.02-2.27.07-3.42h.86l.08.61c.19-.23.41-.42.64-.55.24-.14.45-.2.65-.2.23,0,.42.07.58.2.15.14.26.32.32.55.18-.22.39-.41.62-.55.23-.14.45-.21.66-.21.33,0,.59.12.79.37.2.25.3.6.32,1.07.07,1.72.06,3.48-.02,5.28h-1.02c.03-.57.05-1.15.07-1.73.01-.59.02-1.15.02-1.7s0-1.04-.02-1.49c0-.26-.04-.46-.1-.62-.06-.16-.19-.23-.39-.23-.14,0-.29.07-.44.22-.15.14-.28.3-.4.48l-.07,4.16h-.8l-.06-4.06c0-.26-.04-.45-.11-.59-.07-.14-.19-.21-.36-.21-.14,0-.29.07-.45.21-.16.14-.29.3-.41.47-.04.8-.05,1.63-.02,2.49.02.86.06,1.73.1,2.6h-1.01Z"/>
            <path class="cls-9" d="M401.65,155.57h-.11l-4.37-2.92v-1.18l4.37-2.87h.11v1.18l-3.65,2.28,3.65,2.33v1.18Z"/>
          </g>
        </g>
      </g>
    </g>
  </g>
</svg>