<?xml version="1.0" encoding="UTF-8"?>
<svg id="_レイヤー_2" data-name="レイヤー 2" xmlns="http://www.w3.org/2000/svg" xmlns:xlink="http://www.w3.org/1999/xlink" viewBox="8.5 8.5 249.45 178.58">
  <defs>
    <style>
      .cls-1 {
        fill: #a1a1a1;
      }

      .cls-2 {
        fill: #fff;
      }

      .cls-3 {
        fill: #ccc;
      }

      .cls-4 {
        fill: none;
      }

      .cls-5 {
        clip-path: url(#clippath-1);
      }

      .cls-6 {
        fill: #323333;
      }

      .cls-7 {
        fill: #b8b8b8;
      }

      .cls-8 {
        fill: #a8a8a8;
      }

      .cls-9 {
        fill: #c0bfbf;
      }

      .cls-10 {
        fill: #b0b0b0;
      }

      .cls-11 {
        fill: #999899;
      }

      .cls-12 {
        clip-path: url(#clippath);
      }
    </style>
    <clipPath id="clippath">
      <rect class="cls-4" x="8.5" y="8.5" width="249.45" height="178.58" rx="8.5" ry="8.5"/>
    </clipPath>
    <clipPath id="clippath-1">
      <rect class="cls-4" x="35.43" y="-35.43" width="195.59" height="266.46" transform="translate(231.02 -35.43) rotate(90)"/>
    </clipPath>
  </defs>
  <g id="_印刷" data-name="印刷">
    <g id="_表" data-name="表">
      <g class="cls-12">
        <rect class="cls-3" x="35.43" y="-35.43" width="195.59" height="266.46" transform="translate(231.02 -35.43) rotate(90)"/>
        <circle class="cls-2" cx="238.11" cy="28.35" r="8.5"/>
        <g>
          <path class="cls-6" d="M33.96,165.2h1.3v4.4h3.53v-4.4h1.3v10.54h-1.3v-4.85h-3.53v4.85h-1.3v-10.54Z"/>
          <path class="cls-11" d="M44.91,175.99c-.71,0-1.31-.18-1.79-.54-.48-.36-.85-.87-1.1-1.52s-.38-1.4-.38-2.27.12-1.63.38-2.27.62-1.15,1.1-1.51c.49-.36,1.08-.54,1.79-.54s1.3.18,1.79.54c.48.36.84.86,1.09,1.51s.38,1.4.38,2.27-.12,1.62-.38,2.27-.62,1.15-1.09,1.52c-.48.36-1.08.54-1.79.54ZM44.91,174.7c.48,0,.87-.13,1.16-.4.29-.27.5-.63.64-1.09.14-.46.2-.97.2-1.54s-.07-1.11-.2-1.56c-.13-.45-.35-.8-.64-1.06-.29-.26-.68-.39-1.16-.39s-.87.13-1.16.39c-.3.26-.51.62-.65,1.06-.13.45-.2.97-.2,1.56s.07,1.09.2,1.54c.13.46.35.82.65,1.09.29.26.68.4,1.16.4Z"/>
          <path class="cls-11" d="M53.34,175.75c-.48,0-.84-.12-1.09-.38-.25-.25-.41-.58-.5-.98-.08-.41-.13-.83-.13-1.27v-4.23h-2.04v-1.31h2.04v-1.92h1.31v1.92h2.74v1.31h-2.74v4.23c0,.2.02.4.07.6s.14.37.3.5c.15.13.39.19.71.19h1.62v1.33h-2.29Z"/>
          <path class="cls-6" d="M65.05,174.38l.84-1c.38.39.82.7,1.3.92.49.22.99.34,1.5.34.63,0,1.13-.14,1.51-.43.38-.28.56-.67.56-1.15,0-.31-.1-.57-.29-.79-.2-.21-.45-.41-.77-.58-.31-.17-.67-.34-1.05-.5-.38-.16-.77-.33-1.15-.52-.38-.18-.73-.4-1.04-.65-.31-.25-.57-.54-.76-.89-.2-.34-.29-.75-.29-1.24s.1-.89.3-1.25c.2-.37.46-.67.79-.92.33-.25.68-.44,1.06-.56.38-.12.75-.19,1.09-.19.61,0,1.19.13,1.74.4.55.27,1.02.64,1.41,1.12l-.88.92c-.36-.4-.72-.68-1.07-.84-.35-.16-.75-.24-1.2-.24-.29,0-.58.06-.88.19s-.54.31-.75.54-.31.51-.31.82.1.6.29.83c.2.23.45.43.77.61.32.18.67.35,1.05.52.38.17.76.35,1.13.53.38.19.72.4,1.04.65.32.25.58.54.77.87.2.34.29.74.29,1.21,0,.88-.29,1.59-.87,2.12-.58.54-1.42.8-2.51.8-.71,0-1.38-.16-2.02-.47-.64-.31-1.18-.69-1.62-1.14Z"/>
          <path class="cls-11" d="M76.96,175.75c-.48,0-.84-.12-1.09-.38s-.41-.58-.5-.98c-.08-.41-.13-.83-.13-1.27v-4.23h-2.04v-1.31h2.04v-1.92h1.3v1.92h2.75v1.31h-2.75v4.23c0,.2.02.4.07.6s.14.37.3.5.39.19.71.19h1.62v1.33h-2.29Z"/>
          <path class="cls-11" d="M86.89,173.8c0,.27.05.48.16.62.11.15.3.23.58.25v1.2c-.51.02-.9-.04-1.17-.19-.27-.15-.48-.37-.62-.67-.22.27-.51.5-.88.69s-.84.29-1.43.29c-.37,0-.75-.09-1.13-.28-.39-.19-.7-.46-.95-.84s-.38-.85-.38-1.43c0-.55.1-1,.31-1.36s.48-.64.83-.85.72-.36,1.12-.46c.4-.09.8-.15,1.19-.18.39-.02.75-.03,1.07,0v-.19c0-.38-.03-.7-.1-.95-.07-.25-.21-.45-.42-.58s-.56-.2-1.03-.2c-.3,0-.59.03-.88.1s-.61.19-.98.38l-.63-1.11c.47-.25.93-.43,1.38-.53s.89-.16,1.33-.16c.24,0,.51.02.81.07.3.04.59.14.87.28s.51.37.68.68.26.73.26,1.25v4.18ZM82.24,173.36c0,.4.14.71.43.94s.61.34.98.34c.55,0,.97-.13,1.27-.38s.52-.53.67-.83v-1.67c-.35-.03-.72-.04-1.11-.02s-.75.07-1.09.17c-.34.1-.62.26-.83.49-.21.23-.32.55-.32.96Z"/>
          <path class="cls-11" d="M89.17,175.75v-8.22h1.14l.12.99c.39-.34.83-.62,1.32-.85.49-.23.96-.33,1.41-.32.34,0,.65.09.94.27.29.18.53.48.71.88.18.41.27.96.27,1.65v5.6h-1.32v-5.35c0-.58-.09-1-.26-1.25-.17-.25-.44-.38-.79-.38-.31,0-.65.08-1.02.25-.37.17-.79.46-1.25.87v5.85h-1.27Z"/>
          <path class="cls-11" d="M100.12,176c-.62,0-1.19-.18-1.71-.54-.52-.36-.94-.86-1.25-1.51-.31-.65-.47-1.4-.47-2.25,0-.91.14-1.68.43-2.31.29-.63.66-1.11,1.13-1.43.47-.32.98-.49,1.53-.49.31,0,.59.05.85.16.26.11.49.27.69.47v-3.48h1.27v9.18c0,.55.29.84.86.87v1.2c-.69.02-1.21-.11-1.54-.39-.25.15-.53.27-.83.38-.3.1-.62.15-.95.15ZM100.12,174.71c.46,0,.86-.08,1.2-.24v-5.08c-.14-.19-.33-.34-.56-.45-.24-.11-.48-.17-.73-.17-.72,0-1.25.26-1.58.78s-.5,1.23-.5,2.15c0,.6.09,1.13.29,1.58.19.46.45.81.78,1.06.33.25.7.38,1.11.38Z"/>
          <path class="cls-11" d="M108.39,175.99c-.39,0-.74-.1-1.06-.3-.32-.2-.58-.46-.8-.79v.98h-1.26v-10.16l-1.23-.24v-.85h2.49v3.96c.22-.34.49-.61.8-.81.31-.2.67-.3,1.06-.3.48,0,.9.11,1.25.34.35.23.65.55.89.95.24.4.42.86.54,1.36.12.51.18,1.04.18,1.6,0,.74-.1,1.44-.31,2.08-.21.65-.53,1.18-.96,1.58-.43.4-.96.6-1.59.6ZM108.25,174.7c.33,0,.61-.09.83-.27.22-.18.4-.42.53-.71s.23-.61.29-.97c.07-.35.1-.7.1-1.03s-.03-.68-.1-1.03c-.06-.35-.16-.67-.29-.96s-.31-.53-.53-.71c-.23-.17-.5-.26-.83-.26-.4,0-.75.15-1.04.44s-.52.65-.68,1.06v2.98c.16.4.39.74.68,1.02.29.28.64.42,1.04.42Z"/>
          <path class="cls-11" d="M113.92,178.94v-1.3h1.74c.48,0,.86-.05,1.13-.14.27-.1.46-.26.57-.49.11-.23.16-.53.16-.91v-1.26c-.27.25-.57.46-.89.64-.33.17-.68.26-1.07.25-.4-.01-.77-.12-1.11-.35-.34-.22-.61-.57-.8-1.05s-.29-1.12-.29-1.91l.03-3.57-1.11-.18v-1.02h2.37v4.02c0,.5.02.95.07,1.34s.16.71.32.94.41.34.75.34c.31,0,.61-.08.9-.25.29-.17.57-.37.84-.62v-5.83h1.3v8.52c0,.99-.21,1.71-.64,2.16s-1.05.67-1.87.67h-2.4Z"/>
          <path class="cls-6" d="M128.26,175.75v-10.54h3.38c1.08,0,1.87.28,2.37.83.5.55.75,1.34.75,2.35,0,.81-.18,1.48-.54,2.02-.36.54-.9.89-1.62,1.06l2.52,4.14v.15h-1.42l-2.49-4.19h-1.63v4.19h-1.31ZM129.57,170.26h2.07c.63,0,1.1-.18,1.4-.53s.45-.8.45-1.34c0-1.25-.62-1.88-1.85-1.88h-2.07v3.75Z"/>
          <path class="cls-11" d="M139.41,175.99c-.71,0-1.31-.18-1.79-.54-.48-.36-.85-.87-1.1-1.52s-.38-1.4-.38-2.27.12-1.63.38-2.27.62-1.15,1.1-1.51c.49-.36,1.08-.54,1.79-.54s1.3.18,1.79.54c.48.36.84.86,1.09,1.51s.38,1.4.38,2.27-.12,1.62-.38,2.27-.62,1.15-1.09,1.52c-.48.36-1.08.54-1.79.54ZM139.41,174.7c.48,0,.87-.13,1.16-.4.29-.27.5-.63.64-1.09.14-.46.2-.97.2-1.54s-.07-1.11-.2-1.56c-.13-.45-.35-.8-.64-1.06-.29-.26-.68-.39-1.16-.39s-.87.13-1.16.39c-.3.26-.51.62-.65,1.06-.13.45-.2.97-.2,1.56s.07,1.09.2,1.54c.13.46.35.82.65,1.09.29.26.68.4,1.16.4Z"/>
          <path class="cls-11" d="M146.29,175.99c-.4-.01-.76-.12-1.09-.33s-.58-.56-.76-1.04c-.19-.48-.28-1.12-.28-1.94v-5.1h1.32v4.35c0,.5.03.94.08,1.33.05.39.17.7.34.93s.43.34.78.34c.31,0,.63-.08.96-.23.33-.15.71-.42,1.12-.8v-5.93h1.28v6.21c0,.27.05.48.17.62.11.15.31.23.6.25v1.2c-.59.03-1.02-.05-1.3-.25-.27-.19-.47-.48-.59-.86-.39.33-.81.62-1.25.87-.45.25-.9.37-1.37.36Z"/>
          <path class="cls-11" d="M155.71,175.75c-.48,0-.84-.12-1.09-.38s-.41-.58-.5-.98c-.08-.41-.13-.83-.13-1.27v-4.23h-2.04v-1.31h2.04v-1.92h1.3v1.92h2.75v1.31h-2.75v4.23c0,.2.02.4.07.6s.14.37.3.5.39.19.71.19h1.62v1.33h-2.29Z"/>
          <path class="cls-11" d="M163.26,175.99c-.71,0-1.33-.17-1.88-.5s-.96-.81-1.27-1.46c-.31-.64-.46-1.42-.46-2.34,0-1.4.31-2.48.92-3.23.61-.75,1.44-1.12,2.48-1.12.65,0,1.2.15,1.64.46.44.31.79.71,1.04,1.22.24.51.39,1.07.45,1.68.06.61,0,1.21-.14,1.8h-5.07c.06.54.21.97.43,1.29.23.32.52.55.87.7s.72.22,1.11.22c.21,0,.5-.03.87-.1.37-.07.78-.21,1.23-.44l.44,1.12c-.59.31-1.1.5-1.52.58-.42.08-.8.11-1.14.11ZM160.9,171.25h4.12c.04-.46-.01-.89-.16-1.28-.15-.39-.38-.71-.69-.95-.31-.24-.7-.36-1.16-.36s-.83.12-1.15.36c-.32.24-.55.56-.72.95-.17.4-.25.82-.25,1.28Z"/>
          <path class="cls-11" d="M167.65,175.75v-1.21h1.49v-5.97l-1.2-.24v-.85h2.34l.14,1.08c.32-.33.66-.61,1.01-.85.36-.24.74-.35,1.15-.34.38,0,.74.1,1.07.28.33.18.58.45.75.8l-.93.87c-.14-.19-.32-.33-.53-.43-.21-.1-.44-.15-.67-.15-.3,0-.6.11-.88.34-.29.22-.6.52-.93.88v4.6h2.75v1.21h-5.54Z"/>
          <path class="cls-6" d="M183.34,175.75v-10.54h3.63c1.08,0,1.87.3,2.37.91.5.61.75,1.41.75,2.42s-.26,1.82-.77,2.42c-.51.6-1.3.91-2.35.91h-2.34v3.88h-1.29ZM184.63,170.56h2.34c.63,0,1.1-.19,1.4-.58s.45-.87.45-1.44c0-.62-.15-1.11-.45-1.48s-.76-.55-1.4-.55h-2.34v4.05Z"/>
          <path class="cls-11" d="M191.28,175.75v-1.21h1.48v-5.97l-1.2-.24v-.85h2.34l.13,1.08c.32-.33.66-.61,1.01-.85.35-.24.74-.35,1.15-.34.38,0,.74.1,1.06.28.33.18.58.45.75.8l-.93.87c-.14-.19-.32-.33-.53-.43-.21-.1-.44-.15-.67-.15-.3,0-.59.11-.88.34-.29.22-.6.52-.93.88v4.6h2.75v1.21h-5.54Z"/>
          <path class="cls-11" d="M202.41,175.99c-.71,0-1.31-.18-1.79-.54-.48-.36-.85-.87-1.1-1.52s-.38-1.4-.38-2.27.12-1.63.38-2.27.62-1.15,1.1-1.51c.49-.36,1.08-.54,1.79-.54s1.3.18,1.79.54c.48.36.84.86,1.09,1.51s.38,1.4.38,2.27-.12,1.62-.38,2.27-.62,1.15-1.09,1.52c-.48.36-1.08.54-1.79.54ZM202.41,174.7c.48,0,.86-.13,1.15-.4.29-.27.5-.63.64-1.09.13-.46.2-.97.2-1.54s-.07-1.11-.2-1.56c-.13-.45-.35-.8-.64-1.06-.29-.26-.67-.39-1.15-.39s-.87.13-1.16.39c-.29.26-.51.62-.64,1.06-.13.45-.2.97-.2,1.56s.07,1.09.2,1.54c.13.46.35.82.64,1.09.29.26.68.4,1.16.4Z"/>
          <path class="cls-11" d="M210.84,175.75c-.48,0-.84-.12-1.09-.38s-.41-.58-.49-.98c-.09-.41-.13-.83-.13-1.27v-4.23h-2.04v-1.31h2.04v-1.92h1.3v1.92h2.75v1.31h-2.75v4.23c0,.2.02.4.07.6s.15.37.3.5c.15.13.39.19.71.19h1.62v1.33h-2.29Z"/>
          <path class="cls-11" d="M218.16,175.99c-.71,0-1.31-.18-1.79-.54-.49-.36-.85-.87-1.1-1.52s-.38-1.4-.38-2.27.12-1.63.38-2.27.62-1.15,1.1-1.51c.49-.36,1.08-.54,1.79-.54s1.3.18,1.79.54c.48.36.84.86,1.09,1.51s.38,1.4.38,2.27-.12,1.62-.38,2.27-.62,1.15-1.09,1.52c-.48.36-1.08.54-1.79.54ZM218.16,174.7c.48,0,.86-.13,1.15-.4.29-.27.5-.63.64-1.09.13-.46.2-.97.2-1.54s-.07-1.11-.2-1.56c-.13-.45-.35-.8-.64-1.06-.29-.26-.67-.39-1.15-.39s-.87.13-1.16.39c-.29.26-.51.62-.64,1.06-.13.45-.2.97-.2,1.56s.07,1.09.2,1.54c.13.46.35.82.64,1.09.29.26.68.4,1.16.4Z"/>
          <path class="cls-11" d="M226.39,175.99c-1.13,0-2.01-.36-2.65-1.11-.64-.75-.96-1.81-.96-3.18s.31-2.44.92-3.2,1.47-1.15,2.57-1.15c.59,0,1.12.17,1.58.5.46.33.82.79,1.06,1.36l-1,.52c-.16-.35-.38-.62-.67-.8s-.61-.28-.97-.28c-.7,0-1.25.27-1.64.8-.4.54-.59,1.28-.59,2.24s.21,1.67.62,2.2c.41.53.99.8,1.74.8.41,0,.79-.08,1.12-.26.34-.17.66-.39.96-.67l.66,1.06c-.35.35-.76.63-1.24.83-.47.21-.98.31-1.51.32Z"/>
          <path class="cls-11" d="M233.91,175.99c-.71,0-1.31-.18-1.79-.54-.49-.36-.85-.87-1.1-1.52s-.38-1.4-.38-2.27.12-1.63.38-2.27.62-1.15,1.1-1.51c.49-.36,1.08-.54,1.79-.54s1.3.18,1.79.54c.48.36.84.86,1.09,1.51s.38,1.4.38,2.27-.12,1.62-.38,2.27-.62,1.15-1.09,1.52c-.48.36-1.08.54-1.79.54ZM233.91,174.7c.48,0,.86-.13,1.15-.4.29-.27.5-.63.64-1.09.13-.46.2-.97.2-1.54s-.07-1.11-.2-1.56c-.13-.45-.35-.8-.64-1.06-.29-.26-.67-.39-1.15-.39s-.87.13-1.16.39c-.29.26-.51.62-.64,1.06-.13.45-.2.97-.2,1.56s.07,1.09.2,1.54c.13.46.35.82.64,1.09.29.26.68.4,1.16.4Z"/>
          <path class="cls-11" d="M238.89,164.62h2.9v8.5c0,.2.02.4.06.6s.14.37.3.5.4.19.71.19h1.58v1.33h-2.22c-.49,0-.86-.12-1.11-.38s-.42-.58-.5-.98c-.08-.41-.12-.83-.12-1.27v-7.35l-1.59-.31v-.84Z"/>
        </g>
        <g>
          <path class="cls-6" d="M24.15,22.08h5.32v16.58h14.34v-16.58h5.32v39.76h-5.32v-18.26h-14.34v18.26h-5.32V22.08Z"/>
          <path class="cls-6" d="M56.13,56.69l3.42-3.81c1.57,1.49,3.35,2.66,5.35,3.5,2,.84,4.04,1.26,6.13,1.26,2.54,0,4.57-.53,6.1-1.6,1.53-1.06,2.3-2.51,2.3-4.34,0-1.16-.4-2.15-1.2-2.97-.8-.82-1.85-1.56-3.14-2.21-1.29-.65-2.71-1.28-4.26-1.88-1.55-.6-3.1-1.25-4.65-1.96-1.55-.71-2.97-1.53-4.26-2.46-1.29-.93-2.32-2.04-3.11-3.33s-1.18-2.85-1.18-4.68.4-3.38,1.2-4.76c.8-1.38,1.87-2.54,3.19-3.47,1.33-.93,2.76-1.63,4.31-2.1,1.55-.47,3.05-.7,4.51-.7,2.43,0,4.76.5,7,1.48s4.16,2.4,5.77,4.23l-3.58,3.42c-1.49-1.49-2.95-2.54-4.37-3.14-1.42-.6-3.02-.9-4.82-.9-1.2,0-2.4.23-3.61.7-1.21.47-2.24,1.14-3.08,2.02s-1.26,1.91-1.26,3.11.4,2.22,1.2,3.08c.8.86,1.86,1.62,3.16,2.3,1.31.67,2.73,1.33,4.28,1.96,1.55.64,3.09,1.31,4.62,2.02s2.95,1.52,4.26,2.44c1.31.92,2.35,2.01,3.14,3.28.78,1.27,1.18,2.78,1.18,4.54,0,3.32-1.18,5.99-3.53,8.01-2.35,2.02-5.75,3.02-10.19,3.02-2.91,0-5.67-.58-8.26-1.74-2.6-1.16-4.81-2.59-6.64-4.31Z"/>
          <path class="cls-6" d="M90.51,61.84V22.08h13.72c4.4,0,7.62,1.04,9.66,3.14s3.05,5.04,3.05,8.85c0,3.06-.73,5.6-2.18,7.62-1.46,2.02-3.68,3.34-6.66,3.98l10.3,15.62v.56h-5.77l-10.14-15.79h-6.66v15.79h-5.32ZM95.83,41.12h8.4c2.54,0,4.42-.66,5.66-1.99,1.23-1.33,1.85-3.01,1.85-5.07,0-4.7-2.5-7.06-7.5-7.06h-8.4v14.11Z"/>
          <path class="cls-6" d="M124,61.84V22.08h14.78c4.41,0,7.63,1.14,9.69,3.42,2.05,2.28,3.08,5.32,3.08,9.13s-1.06,6.85-3.16,9.13c-2.11,2.28-5.31,3.42-9.6,3.42h-9.46v14.67h-5.32ZM129.32,42.24h9.46c2.58,0,4.48-.73,5.71-2.18,1.23-1.46,1.85-3.27,1.85-5.43,0-2.31-.62-4.16-1.85-5.54-1.23-1.38-3.14-2.07-5.71-2.07h-9.46v15.23Z"/>
        </g>
        <g class="cls-5">
          <g>
            <path class="cls-11" d="M19.84,84.74v-1.18l3.66-2.33-3.66-2.28v-1.18h.11l4.37,2.87v1.18l-4.37,2.92h-.11Z"/>
            <path class="cls-11" d="M31.67,76.44h1.08c.3,1.49.59,2.84.88,4.05s.61,2.29.94,3.23c.33-.94.64-2.02.93-3.23s.59-2.56.88-4.05h1.08c-.36,1.81-.73,3.41-1.11,4.81-.38,1.4-.79,2.61-1.23,3.62h-1.12c-.43-1.02-.84-2.22-1.22-3.62-.38-1.4-.76-3-1.12-4.81Z"/>
            <path class="cls-11" d="M41.06,85.07c-.57,0-1.07-.13-1.5-.4s-.77-.65-1.01-1.16c-.24-.51-.37-1.14-.37-1.87,0-1.12.24-1.98.73-2.58.49-.6,1.15-.9,1.98-.9.52,0,.96.12,1.31.37.36.24.63.57.83.98.2.41.32.86.36,1.34.04.49,0,.97-.11,1.44h-4.06c.05.43.16.78.35,1.03.18.26.42.44.7.56s.58.17.89.17c.17,0,.4-.03.7-.08.3-.06.62-.17.98-.35l.35.9c-.47.25-.88.4-1.21.46-.34.06-.64.09-.91.09ZM39.17,81.27h3.3c.03-.37,0-.71-.13-1.03s-.3-.57-.55-.76c-.25-.19-.56-.29-.93-.29s-.67.1-.92.29c-.25.19-.44.45-.58.76-.13.32-.2.66-.2,1.03Z"/>
            <path class="cls-11" d="M44.57,84.87v-.97h1.19v-4.78l-.96-.19v-.68h1.87l.11.86c.26-.26.53-.49.81-.68.28-.19.59-.28.92-.28.3,0,.59.08.85.23.26.14.46.36.6.64l-.74.7c-.11-.15-.25-.27-.43-.35-.17-.08-.35-.12-.53-.12-.24,0-.48.09-.71.27-.23.18-.48.41-.74.7v3.68h2.2v.97h-4.43Z"/>
            <path class="cls-11" d="M51.05,84.04l.65-.8c.29.22.59.4.92.55s.64.22.95.22c.42,0,.73-.08.94-.23s.32-.35.32-.59c0-.22-.08-.42-.25-.58s-.39-.3-.66-.43c-.27-.12-.56-.24-.86-.36s-.59-.25-.86-.41c-.27-.16-.49-.35-.66-.57-.17-.22-.25-.5-.25-.84,0-.3.07-.57.21-.8.14-.23.32-.42.55-.58.23-.16.48-.28.74-.35.27-.08.53-.11.77-.11.44,0,.83.08,1.16.24s.66.39.98.7l-.64.76c-.24-.21-.48-.37-.71-.48s-.5-.17-.79-.17c-.31,0-.59.07-.85.22-.25.14-.38.33-.39.56,0,.18.07.33.23.46s.38.26.65.38c.27.12.56.25.86.38.3.14.59.29.86.46.27.17.49.38.67.63.17.25.26.54.26.88,0,.57-.2,1.02-.6,1.36-.4.34-.97.51-1.7.51-.48,0-.94-.1-1.39-.29-.45-.2-.82-.43-1.13-.71Z"/>
            <path class="cls-11" d="M57.36,84.87v-1.02h2.04v-3.98h-1.46v-1.04h2.44v5.03h1.75v1.02h-4.76ZM59.76,77.67c-.23,0-.43-.09-.6-.27-.17-.18-.25-.41-.25-.68s.08-.49.25-.67c.17-.18.37-.28.6-.28s.44.09.61.28c.16.18.25.41.25.67s-.08.5-.25.68c-.16.18-.37.27-.61.27Z"/>
            <path class="cls-11" d="M66.08,85.07c-.57,0-1.05-.14-1.43-.43-.39-.29-.68-.69-.88-1.21-.2-.52-.3-1.12-.3-1.81s.1-1.3.3-1.82.49-.92.88-1.21c.39-.29.87-.43,1.43-.43s1.04.14,1.43.43.68.69.88,1.21.3,1.12.3,1.82-.1,1.29-.3,1.81c-.2.52-.49.92-.88,1.21s-.86.43-1.43.43ZM66.08,84.03c.38,0,.69-.11.92-.32.23-.21.4-.5.51-.87.11-.37.16-.78.16-1.24s-.05-.89-.16-1.25c-.11-.36-.28-.64-.51-.85-.23-.21-.54-.31-.92-.31s-.69.1-.93.31c-.24.21-.41.49-.52.85-.11.36-.16.78-.16,1.25s.05.87.16,1.24c.11.37.28.66.52.87.24.21.55.32.93.32Z"/>
            <path class="cls-11" d="M69.99,84.87v-6.58h.91l.1.79c.31-.27.66-.5,1.06-.68.39-.18.77-.27,1.13-.26.27,0,.52.07.76.22.23.14.42.38.56.71.14.33.22.77.22,1.32v4.48h-1.06v-4.28c0-.46-.07-.8-.21-1-.14-.2-.35-.3-.63-.3-.25,0-.52.07-.82.2s-.63.37-1,.7v4.68h-1.02Z"/>
            <path class="cls-11" d="M78.68,80.12c-.22,0-.41-.09-.57-.26s-.23-.38-.23-.62.08-.46.23-.63c.16-.17.35-.26.57-.26s.4.09.56.26c.16.17.23.38.23.63s-.08.45-.23.62-.34.26-.56.26ZM78.68,84.87c-.22,0-.41-.09-.57-.26s-.23-.38-.23-.62.08-.46.23-.63.35-.26.57-.26.4.09.56.26.23.38.23.63-.08.45-.23.62-.34.26-.56.26Z"/>
            <path class="cls-11" d="M91.29,85.07c-.52,0-.96-.11-1.31-.34-.35-.22-.63-.53-.85-.93-.21-.4-.36-.86-.45-1.4-.09-.54-.13-1.12-.13-1.74s.04-1.23.13-1.76c.09-.53.24-1,.45-1.39.21-.4.49-.71.85-.93.35-.22.79-.34,1.31-.34s.97.11,1.31.34c.35.22.62.53.83.93.2.4.35.86.43,1.39s.13,1.12.13,1.76-.04,1.2-.13,1.74-.23,1-.43,1.4c-.2.4-.48.71-.83.93-.35.22-.79.34-1.31.34ZM89.59,80.65c0,.4.01.78.04,1.13.02.35.08.67.16.96l2.59-4.99c-.12-.14-.27-.25-.45-.33-.18-.08-.39-.11-.64-.11-.37,0-.67.08-.89.25-.23.17-.4.4-.51.71-.11.3-.19.66-.23,1.06s-.06.85-.06,1.33ZM91.29,84.01c.38,0,.67-.09.89-.26.22-.17.38-.41.49-.71.11-.3.18-.66.22-1.07.04-.41.05-.85.05-1.32,0-.39-.01-.76-.03-1.11s-.06-.66-.13-.94l-2.58,4.98c.12.14.27.24.45.32.18.08.39.11.63.11Z"/>
          </g>
          <g>
            <path class="cls-1" d="M34.56,99.27c-.53,0-.97-.11-1.34-.34-.36-.23-.66-.54-.89-.95-.23-.4-.39-.87-.5-1.4s-.16-1.1-.16-1.72.05-1.2.16-1.73c.1-.53.27-.99.5-1.4.23-.4.52-.72.89-.95.36-.23.81-.34,1.34-.34s.96.11,1.33.34c.37.23.66.54.89.95.22.4.39.87.49,1.4.1.53.16,1.1.16,1.73s-.05,1.19-.16,1.72c-.1.53-.27.99-.49,1.4-.22.4-.52.72-.89.95-.37.23-.81.34-1.33.34ZM34.56,98.21c.37,0,.67-.09.91-.27.24-.18.42-.43.55-.74.13-.31.22-.67.28-1.07.05-.4.08-.83.08-1.27s-.03-.87-.08-1.28c-.05-.4-.14-.76-.28-1.07-.13-.31-.32-.56-.55-.74-.24-.18-.54-.27-.91-.27s-.68.09-.91.27c-.23.18-.42.43-.55.74-.14.31-.23.67-.28,1.07-.05.4-.08.83-.08,1.28s.03.86.08,1.27c.05.4.15.76.28,1.07.14.31.32.56.55.74.23.18.54.27.91.27Z"/>
            <path class="cls-1" d="M38.8,101.42v-8.09l-1-.19v-.68h1.88l.11.66c.18-.21.41-.39.68-.53.27-.15.57-.22.89-.22.46,0,.86.13,1.21.39.35.26.61.63.79,1.12.18.49.25,1.07.21,1.75-.04.66-.18,1.25-.41,1.77-.24.52-.54.94-.92,1.24s-.81.45-1.3.45c-.24,0-.45-.04-.64-.13-.19-.09-.35-.2-.5-.32v2.8h-1ZM40.89,98.05c.31,0,.59-.11.82-.33.24-.22.43-.51.57-.88.14-.37.23-.77.26-1.21.05-.66-.03-1.19-.25-1.61-.21-.42-.56-.62-1.04-.62-.31,0-.6.1-.86.31s-.46.48-.61.8v2.69c.1.24.24.44.43.61.19.16.41.25.66.25Z"/>
            <path class="cls-1" d="M53.79,99.27c-1.02,0-1.82-.38-2.38-1.15-.56-.76-.85-1.84-.85-3.22s.27-2.49.8-3.28,1.28-1.18,2.25-1.18c.63,0,1.16.16,1.6.48.43.32.78.8,1.04,1.44l-.85.47c-.19-.42-.43-.74-.72-.97-.29-.23-.64-.35-1.06-.35-.62,0-1.11.3-1.47.89-.36.6-.53,1.43-.53,2.49s.19,1.85.57,2.43.91.87,1.6.87c.38,0,.72-.06,1.03-.19.31-.13.62-.34.94-.64l.59.85c-.38.35-.77.61-1.18.79s-.87.26-1.37.26Z"/>
            <path class="cls-1" d="M59.78,99.27c-.57,0-1.05-.14-1.43-.43-.39-.29-.68-.69-.88-1.21-.2-.52-.3-1.12-.3-1.81s.1-1.3.3-1.82.49-.92.88-1.21c.39-.29.87-.43,1.43-.43s1.04.14,1.43.43.68.69.88,1.21.3,1.12.3,1.82-.1,1.29-.3,1.81c-.2.52-.49.92-.88,1.21s-.86.43-1.43.43ZM59.78,98.24c.38,0,.69-.11.92-.32.23-.21.4-.5.51-.87.11-.37.16-.78.16-1.24s-.05-.89-.16-1.25c-.11-.36-.28-.64-.51-.85-.23-.21-.54-.31-.92-.31s-.69.1-.93.31c-.24.21-.41.49-.52.85-.11.36-.16.78-.16,1.25s.05.87.16,1.24c.11.37.28.66.52.87.24.21.55.32.93.32Z"/>
            <path class="cls-1" d="M66.15,99.28c-.5,0-.95-.14-1.37-.43-.42-.29-.75-.69-1-1.21-.25-.52-.38-1.12-.38-1.8,0-.73.11-1.34.34-1.85.23-.5.53-.89.91-1.15.38-.26.78-.39,1.22-.39.25,0,.48.04.68.13s.39.21.55.37v-2.78h1.02v7.34c0,.44.23.67.68.7v.96c-.55.02-.96-.09-1.24-.31-.2.12-.42.22-.67.3s-.5.12-.76.12ZM66.15,98.25c.37,0,.69-.06.96-.19v-4.07c-.11-.15-.26-.27-.45-.36-.19-.09-.38-.13-.58-.13-.58,0-1,.21-1.27.62-.27.42-.4.99-.4,1.72,0,.48.08.9.23,1.27.15.36.36.65.62.85s.56.3.89.3Z"/>
            <path class="cls-1" d="M72.56,99.27c-.57,0-1.07-.13-1.5-.4s-.77-.65-1.01-1.16c-.24-.51-.37-1.14-.37-1.87,0-1.12.24-1.98.73-2.58.49-.6,1.15-.9,1.98-.9.52,0,.96.12,1.31.37.36.24.63.57.83.98.2.41.32.86.36,1.34.04.49,0,.97-.11,1.44h-4.06c.05.43.16.78.35,1.03.18.26.42.44.7.56s.58.17.89.17c.17,0,.4-.03.7-.08.3-.06.62-.17.98-.35l.35.9c-.47.25-.88.4-1.21.46-.34.06-.64.09-.91.09ZM70.67,95.48h3.3c.03-.37,0-.71-.13-1.03s-.3-.57-.55-.76c-.25-.19-.56-.29-.93-.29s-.67.1-.92.29c-.25.19-.44.45-.58.76-.13.32-.2.66-.2,1.03Z"/>
            <path class="cls-1" d="M78.68,94.33c-.22,0-.41-.09-.57-.26s-.23-.38-.23-.62.08-.46.23-.63c.16-.17.35-.26.57-.26s.4.09.56.26c.16.17.23.38.23.63s-.08.45-.23.62-.34.26-.56.26ZM78.68,99.08c-.22,0-.41-.09-.57-.26s-.23-.38-.23-.62.08-.46.23-.63.35-.26.57-.26.4.09.56.26.23.38.23.63-.08.45-.23.62-.34.26-.56.26Z"/>
            <path class="cls-1" d="M88.81,90.64h1.04v3.52h2.82v-3.52h1.04v8.44h-1.04v-3.88h-2.82v3.88h-1.04v-8.44Z"/>
            <path class="cls-1" d="M97.76,99.27c-.57,0-1.07-.13-1.5-.4s-.77-.65-1.01-1.16c-.24-.51-.37-1.14-.37-1.87,0-1.12.24-1.98.73-2.58.49-.6,1.15-.9,1.98-.9.52,0,.96.12,1.31.37.36.24.63.57.83.98.2.41.32.86.36,1.34.04.49,0,.97-.11,1.44h-4.06c.05.43.16.78.35,1.03.18.26.42.44.7.56s.58.17.89.17c.17,0,.4-.03.7-.08.3-.06.62-.17.98-.35l.35.9c-.47.25-.88.4-1.21.46-.34.06-.64.09-.91.09ZM95.87,95.48h3.3c.03-.37,0-.71-.13-1.03s-.3-.57-.55-.76c-.25-.19-.56-.29-.93-.29s-.67.1-.92.29c-.25.19-.44.45-.58.76-.13.32-.2.66-.2,1.03Z"/>
            <path class="cls-1" d="M101.56,90.17h2.32v6.8c0,.16.02.32.05.48s.11.29.24.4c.13.1.32.16.56.16h1.26v1.07h-1.78c-.39,0-.69-.1-.89-.3-.2-.2-.33-.46-.4-.79-.06-.32-.1-.66-.1-1.01v-5.88l-1.27-.25v-.67Z"/>
            <path class="cls-1" d="M107.86,90.17h2.32v6.8c0,.16.02.32.05.48s.11.29.24.4c.13.1.32.16.56.16h1.26v1.07h-1.78c-.39,0-.69-.1-.89-.3-.2-.2-.33-.46-.4-.79-.06-.32-.1-.66-.1-1.01v-5.88l-1.27-.25v-.67Z"/>
            <path class="cls-1" d="M116.48,99.27c-.57,0-1.05-.14-1.43-.43-.39-.29-.68-.69-.88-1.21-.2-.52-.3-1.12-.3-1.81s.1-1.3.3-1.82.49-.92.88-1.21c.39-.29.87-.43,1.43-.43s1.04.14,1.43.43.68.69.88,1.21.3,1.12.3,1.82-.1,1.29-.3,1.81c-.2.52-.49.92-.88,1.21s-.86.43-1.43.43ZM116.48,98.24c.38,0,.69-.11.92-.32.23-.21.4-.5.51-.87.11-.37.16-.78.16-1.24s-.05-.89-.16-1.25c-.11-.36-.28-.64-.51-.85-.23-.21-.54-.31-.92-.31s-.69.1-.93.31c-.24.21-.41.49-.52.85-.11.36-.16.78-.16,1.25s.05.87.16,1.24c.11.37.28.66.52.87.24.21.55.32.93.32Z"/>
            <path class="cls-1" d="M130.21,100.72c-.63-.37-1.18-.82-1.65-1.36-.47-.54-.83-1.14-1.09-1.81-.26-.67-.38-1.4-.38-2.17s.13-1.5.38-2.17c.26-.67.62-1.28,1.09-1.81.47-.54,1.02-.98,1.65-1.34l.46,1.03c-.78.44-1.38,1.04-1.81,1.8-.43.76-.65,1.59-.65,2.5s.22,1.74.65,2.5c.43.76,1.04,1.36,1.81,1.8l-.46,1.04Z"/>
            <path class="cls-1" d="M135.39,99.27c-.52,0-.96-.11-1.31-.34-.35-.22-.63-.53-.85-.93-.21-.4-.36-.86-.45-1.4-.09-.54-.13-1.12-.13-1.74s.04-1.23.13-1.76c.09-.53.24-1,.45-1.39.21-.4.49-.71.85-.93.35-.22.79-.34,1.31-.34s.97.11,1.31.34c.35.22.62.53.83.93.2.4.35.86.43,1.39s.13,1.12.13,1.76-.04,1.2-.13,1.74-.23,1-.43,1.4c-.2.4-.48.71-.83.93-.35.22-.79.34-1.31.34ZM133.69,94.85c0,.4.01.78.04,1.13.02.35.08.67.16.96l2.59-4.99c-.12-.14-.27-.25-.45-.33-.18-.08-.39-.11-.64-.11-.37,0-.67.08-.89.25-.23.17-.4.4-.51.71-.11.3-.19.66-.23,1.06s-.06.85-.06,1.33ZM135.39,98.21c.38,0,.67-.09.89-.26.22-.17.38-.41.49-.71.11-.3.18-.66.22-1.07.04-.41.05-.85.05-1.32,0-.39-.01-.76-.03-1.11s-.06-.66-.13-.94l-2.58,4.98c.12.14.27.24.45.32.18.08.39.11.63.11Z"/>
            <path class="cls-1" d="M140.53,100.72l-.47-1.04c.78-.44,1.38-1.04,1.81-1.8.43-.76.65-1.59.65-2.5s-.21-1.74-.64-2.5c-.43-.76-1.03-1.36-1.82-1.8l.47-1.03c.63.36,1.18.81,1.64,1.34s.82,1.14,1.08,1.81c.26.67.38,1.4.38,2.17s-.13,1.5-.38,2.17c-.26.67-.62,1.28-1.08,1.81s-1.01.99-1.64,1.36Z"/>
          </g>
          <g>
            <path class="cls-8" d="M31.79,112.2l.67-.8c.3.31.65.56,1.04.74.39.18.79.27,1.2.27.5,0,.91-.11,1.21-.34.3-.23.45-.53.45-.92,0-.25-.08-.46-.23-.63-.16-.17-.36-.33-.61-.47-.25-.14-.53-.27-.84-.4-.31-.13-.61-.27-.92-.41-.3-.15-.58-.32-.83-.52s-.46-.44-.61-.71c-.16-.27-.23-.6-.23-1s.08-.71.24-1c.16-.29.37-.54.63-.74.26-.2.54-.35.85-.45.3-.1.6-.15.88-.15.49,0,.95.11,1.39.32.44.21.82.51,1.13.89l-.71.73c-.29-.32-.57-.54-.85-.67-.28-.13-.6-.19-.96-.19-.23,0-.47.05-.7.15-.24.1-.44.24-.6.43-.16.19-.25.41-.25.65s.08.48.23.66c.16.18.36.35.62.49s.54.28.84.41c.3.14.61.28.91.43.3.15.58.32.83.52.26.2.46.43.62.7.16.27.23.59.23.97,0,.7-.23,1.27-.7,1.7-.46.43-1.13.64-2,.64-.57,0-1.11-.12-1.62-.37s-.94-.55-1.3-.91Z"/>
            <path class="cls-8" d="M41.32,113.29c-.38,0-.67-.1-.87-.3-.2-.2-.33-.46-.4-.79s-.1-.66-.1-1.01v-3.38h-1.63v-1.04h1.63v-1.54h1.04v1.54h2.2v1.04h-2.2v3.38c0,.16.02.32.05.48s.12.29.24.4c.12.1.31.16.57.16h1.3v1.07h-1.84Z"/>
            <path class="cls-8" d="M49.26,111.73c0,.22.04.38.13.5.08.12.24.18.46.2v.96c-.41.02-.72-.03-.94-.15-.22-.12-.38-.29-.49-.53-.18.22-.41.4-.7.55-.29.15-.67.23-1.15.23-.3,0-.6-.07-.91-.22-.31-.15-.56-.37-.76-.67s-.3-.68-.3-1.15.08-.8.25-1.09c.16-.28.38-.51.66-.68.28-.17.57-.29.89-.37.32-.08.64-.12.95-.14.32-.02.6-.02.86,0v-.16c0-.3-.03-.56-.08-.76s-.16-.36-.34-.46c-.17-.1-.45-.16-.82-.16-.24,0-.47.03-.7.08-.23.05-.49.15-.79.31l-.5-.89c.38-.2.74-.34,1.1-.43.36-.08.72-.13,1.07-.13.19,0,.41.02.65.05s.47.11.7.22c.22.11.41.29.55.54.14.25.21.58.21,1v3.35ZM45.54,111.39c0,.32.11.57.34.76.23.18.49.28.79.28.44,0,.78-.1,1.01-.31s.41-.43.53-.67v-1.33c-.28-.02-.58-.03-.89-.02-.31.01-.6.06-.88.13-.27.08-.49.21-.66.39-.17.18-.25.44-.25.77Z"/>
            <path class="cls-8" d="M53.92,113.29c-.38,0-.67-.1-.87-.3-.2-.2-.33-.46-.4-.79s-.1-.66-.1-1.01v-3.38h-1.63v-1.04h1.63v-1.54h1.04v1.54h2.2v1.04h-2.2v3.38c0,.16.02.32.05.48s.12.29.24.4c.12.1.31.16.57.16h1.3v1.07h-1.84Z"/>
            <path class="cls-8" d="M59.96,113.49c-.57,0-1.07-.13-1.5-.4s-.77-.65-1.01-1.16c-.24-.51-.37-1.14-.37-1.87,0-1.12.24-1.98.73-2.58.49-.6,1.15-.9,1.98-.9.52,0,.96.12,1.31.37.36.24.63.57.83.98.2.41.32.86.36,1.34.04.49,0,.97-.11,1.44h-4.06c.05.43.16.78.35,1.03.18.26.42.44.7.56s.58.17.89.17c.17,0,.4-.03.7-.08.3-.06.62-.17.98-.35l.35.9c-.47.25-.88.4-1.21.46-.34.06-.64.09-.91.09ZM58.07,109.69h3.3c.03-.37,0-.71-.13-1.03s-.3-.57-.55-.76c-.25-.19-.56-.29-.93-.29s-.67.1-.92.29c-.25.19-.44.45-.58.76-.13.32-.2.66-.2,1.03Z"/>
            <path class="cls-8" d="M66.08,108.54c-.22,0-.41-.09-.57-.26s-.23-.38-.23-.62.08-.46.23-.63c.16-.17.35-.26.57-.26s.4.09.56.26c.16.17.23.38.23.63s-.08.45-.23.62-.34.26-.56.26ZM66.08,113.29c-.22,0-.41-.09-.57-.26s-.23-.38-.23-.62.08-.46.23-.63.35-.26.57-.26.4.09.56.26.23.38.23.63-.08.45-.23.62-.34.26-.56.26Z"/>
            <path class="cls-8" d="M75.77,113.29c.36-1.81.73-3.41,1.12-4.82.38-1.4.79-2.61,1.22-3.62h1.12c.44,1.01.85,2.21,1.23,3.62.38,1.4.75,3.01,1.11,4.82h-1.08c-.07-.35-.14-.7-.21-1.03s-.13-.66-.2-.98h-2.82c-.06.32-.13.65-.2.98s-.14.68-.21,1.03h-1.08ZM77.5,110.23h2.34c-.18-.81-.37-1.57-.56-2.27-.19-.71-.39-1.36-.6-1.95-.22.59-.42,1.24-.61,1.95s-.38,1.47-.56,2.27Z"/>
            <path class="cls-8" d="M85.26,113.49c-.9,0-1.61-.29-2.12-.89-.51-.6-.77-1.45-.77-2.54s.25-1.95.74-2.56c.49-.61,1.18-.92,2.06-.92.47,0,.89.13,1.27.4.37.26.65.63.85,1.09l-.8.42c-.13-.28-.31-.49-.53-.64-.23-.15-.49-.22-.77-.22-.56,0-1,.21-1.31.64-.32.43-.47,1.03-.47,1.79s.16,1.34.49,1.76c.33.42.79.64,1.39.64.33,0,.63-.07.9-.2.27-.14.53-.32.77-.54l.53.85c-.28.28-.61.5-.99.67-.38.16-.78.25-1.21.26Z"/>
            <path class="cls-8" d="M91.72,113.29c-.38,0-.67-.1-.87-.3-.2-.2-.33-.46-.4-.79s-.1-.66-.1-1.01v-3.38h-1.63v-1.04h1.63v-1.54h1.04v1.54h2.2v1.04h-2.2v3.38c0,.16.02.32.05.48s.12.29.24.4c.12.1.31.16.57.16h1.3v1.07h-1.84Z"/>
            <path class="cls-8" d="M95.16,113.29v-1.02h2.04v-3.98h-1.46v-1.04h2.44v5.03h1.75v1.02h-4.76ZM97.56,106.09c-.23,0-.43-.09-.6-.27-.17-.18-.25-.41-.25-.68s.08-.49.25-.67c.17-.18.37-.28.6-.28s.44.09.61.28c.16.18.25.41.25.67s-.08.5-.25.68c-.16.18-.37.27-.61.27Z"/>
            <path class="cls-8" d="M101.18,106.77h1.09c.19.87.37,1.64.55,2.3s.34,1.25.52,1.76c.17.51.35.99.55,1.43.19-.44.37-.92.54-1.43s.34-1.1.51-1.76.35-1.43.55-2.3h1.09c-.18.83-.36,1.57-.53,2.21-.17.64-.33,1.22-.5,1.72-.16.5-.33.96-.51,1.37s-.37.82-.58,1.22h-1.16c-.2-.4-.39-.81-.56-1.22s-.35-.87-.52-1.37-.34-1.08-.5-1.72c-.17-.64-.34-1.38-.53-2.21Z"/>
            <path class="cls-8" d="M110.36,113.49c-.57,0-1.07-.13-1.5-.4s-.77-.65-1.01-1.16c-.24-.51-.37-1.14-.37-1.87,0-1.12.24-1.98.73-2.58.49-.6,1.15-.9,1.98-.9.52,0,.96.12,1.31.37.36.24.63.57.83.98.2.41.32.86.36,1.34.04.49,0,.97-.11,1.44h-4.06c.05.43.16.78.35,1.03.18.26.42.44.7.56s.58.17.89.17c.17,0,.4-.03.7-.08.3-.06.62-.17.98-.35l.35.9c-.47.25-.88.4-1.21.46-.34.06-.64.09-.91.09ZM108.47,109.69h3.3c.03-.37,0-.71-.13-1.03s-.3-.57-.55-.76c-.25-.19-.56-.29-.93-.29s-.67.1-.92.29c-.25.19-.44.45-.58.76-.13.32-.2.66-.2,1.03Z"/>
            <path class="cls-8" d="M123.91,114.94c-.63-.37-1.18-.82-1.65-1.36-.47-.54-.83-1.14-1.09-1.81-.26-.67-.38-1.4-.38-2.17s.13-1.5.38-2.17c.26-.67.62-1.28,1.09-1.81.47-.54,1.02-.98,1.65-1.34l.46,1.03c-.78.44-1.38,1.04-1.81,1.8-.43.76-.65,1.59-.65,2.5s.22,1.74.65,2.5c.43.76,1.04,1.36,1.81,1.8l-.46,1.04Z"/>
            <path class="cls-8" d="M126.73,113.29v-1.04h1.97v-5.5c-.47.37-1.01.64-1.61.8l-.43-1.08c.42-.1.85-.3,1.27-.58.42-.28.76-.63,1.01-1.04h.82v7.39h1.8v1.04h-4.82Z"/>
            <path class="cls-8" d="M132.95,110.45c0-.92.22-1.89.66-2.9.44-1.02,1.09-1.98,1.96-2.88l.73.83c-.52.53-.95,1.07-1.28,1.62-.33.55-.58,1.12-.75,1.7.41-.41.9-.61,1.48-.61.39,0,.75.12,1.09.35.33.23.6.55.8.94.2.4.3.85.3,1.36s-.1.93-.31,1.33c-.2.4-.49.71-.86.94-.37.23-.8.35-1.31.35s-.96-.13-1.33-.39-.67-.62-.87-1.07c-.2-.45-.31-.97-.31-1.57ZM135.46,109.25c-.42,0-.76.15-1.02.44-.26.3-.4.68-.4,1.15s.13.84.4,1.14c.26.3.6.44,1.02.44s.76-.15,1.03-.46c.27-.3.4-.68.4-1.13s-.13-.85-.4-1.15c-.27-.3-.61-.45-1.03-.45Z"/>
            <path class="cls-8" d="M140.53,114.94l-.47-1.04c.78-.44,1.38-1.04,1.81-1.8.43-.76.65-1.59.65-2.5s-.21-1.74-.64-2.5c-.43-.76-1.03-1.36-1.82-1.8l.47-1.03c.63.36,1.18.81,1.64,1.34s.82,1.14,1.08,1.81c.26.67.38,1.4.38,2.17s-.13,1.5-.38,2.17c-.26.67-.62,1.28-1.08,1.81s-1.01.99-1.64,1.36Z"/>
          </g>
          <g>
            <path class="cls-10" d="M32.12,119.06h1.04v3.52h2.82v-3.52h1.04v8.44h-1.04v-3.88h-2.82v3.88h-1.04v-8.44Z"/>
            <path class="cls-10" d="M41.06,127.69c-.57,0-1.07-.13-1.5-.4s-.77-.65-1.01-1.16c-.24-.51-.37-1.14-.37-1.87,0-1.12.24-1.98.73-2.58.49-.6,1.15-.9,1.98-.9.52,0,.96.12,1.31.37.36.24.63.57.83.98.2.41.32.86.36,1.34.04.49,0,.97-.11,1.44h-4.06c.05.43.16.78.35,1.03.18.26.42.44.7.56s.58.17.89.17c.17,0,.4-.03.7-.08.3-.06.62-.17.98-.35l.35.9c-.47.25-.88.4-1.21.46-.34.06-.64.09-.91.09ZM39.17,123.9h3.3c.03-.37,0-.71-.13-1.03s-.3-.57-.55-.76c-.25-.19-.56-.29-.93-.29s-.67.1-.92.29c-.25.19-.44.45-.58.76-.13.32-.2.66-.2,1.03Z"/>
            <path class="cls-10" d="M44.86,118.59h2.32v6.8c0,.16.02.32.05.48s.11.29.24.4c.13.1.32.16.56.16h1.26v1.07h-1.78c-.39,0-.69-.1-.89-.3-.2-.2-.33-.46-.4-.79-.06-.32-.1-.66-.1-1.01v-5.88l-1.27-.25v-.67Z"/>
            <path class="cls-10" d="M51.16,118.59h2.32v6.8c0,.16.02.32.05.48s.11.29.24.4c.13.1.32.16.56.16h1.26v1.07h-1.78c-.39,0-.69-.1-.89-.3-.2-.2-.33-.46-.4-.79-.06-.32-.1-.66-.1-1.01v-5.88l-1.27-.25v-.67Z"/>
            <path class="cls-10" d="M59.78,127.69c-.57,0-1.05-.14-1.43-.43-.39-.29-.68-.69-.88-1.21-.2-.52-.3-1.12-.3-1.81s.1-1.3.3-1.82.49-.92.88-1.21c.39-.29.87-.43,1.43-.43s1.04.14,1.43.43.68.69.88,1.21.3,1.12.3,1.82-.1,1.29-.3,1.81c-.2.52-.49.92-.88,1.21s-.86.43-1.43.43ZM59.78,126.66c.38,0,.69-.11.92-.32.23-.21.4-.5.51-.87.11-.37.16-.78.16-1.24s-.05-.89-.16-1.25c-.11-.36-.28-.64-.51-.85-.23-.21-.54-.31-.92-.31s-.69.1-.93.31c-.24.21-.41.49-.52.85-.11.36-.16.78-.16,1.25s.05.87.16,1.24c.11.37.28.66.52.87.24.21.55.32.93.32Z"/>
            <path class="cls-10" d="M66.52,127.5c-.38,0-.67-.1-.87-.3-.2-.2-.33-.46-.4-.79s-.1-.66-.1-1.01v-3.38h-1.63v-1.04h1.63v-1.54h1.04v1.54h2.2v1.04h-2.2v3.38c0,.16.02.32.05.48s.12.29.24.4c.12.1.31.16.57.16h1.3v1.07h-1.84Z"/>
            <path class="cls-10" d="M69.96,127.5v-1.02h2.04v-3.98h-1.46v-1.04h2.44v5.03h1.75v1.02h-4.76ZM72.36,120.3c-.23,0-.43-.09-.6-.27-.17-.18-.25-.41-.25-.68s.08-.49.25-.67c.17-.18.37-.28.6-.28s.44.09.61.28c.16.18.25.41.25.67s-.08.5-.25.68c-.16.18-.37.27-.61.27Z"/>
            <path class="cls-10" d="M75.93,127.5c-.06-.98-.09-2.03-.09-3.16,0-1.13.02-2.27.07-3.42h.86l.08.61c.19-.23.41-.42.64-.55.24-.14.45-.2.65-.2.23,0,.42.07.58.2.15.14.26.32.32.55.18-.22.39-.41.62-.55.23-.14.45-.21.66-.21.33,0,.59.12.79.37.2.25.3.6.32,1.07.07,1.72.06,3.48-.02,5.28h-1.02c.03-.57.05-1.15.07-1.73.01-.59.02-1.15.02-1.7s0-1.04-.02-1.49c0-.26-.04-.46-.1-.62-.06-.16-.19-.23-.39-.23-.14,0-.29.07-.44.22-.15.14-.28.3-.4.48l-.07,4.16h-.8l-.06-4.06c0-.26-.04-.45-.11-.59-.07-.14-.19-.21-.36-.21-.14,0-.29.07-.45.21-.16.14-.29.3-.41.47-.04.8-.05,1.63-.02,2.49.02.86.06,1.73.1,2.6h-1.01Z"/>
            <path class="cls-10" d="M85.15,127.69c-.57,0-1.07-.13-1.5-.4s-.77-.65-1.01-1.16c-.24-.51-.37-1.14-.37-1.87,0-1.12.24-1.98.73-2.58.49-.6,1.15-.9,1.98-.9.52,0,.96.12,1.31.37.36.24.63.57.83.98.2.41.32.86.36,1.34.04.49,0,.97-.11,1.44h-4.06c.05.43.16.78.35,1.03.18.26.42.44.7.56s.58.17.89.17c.17,0,.4-.03.7-.08.3-.06.62-.17.98-.35l.35.9c-.47.25-.88.4-1.21.46-.34.06-.64.09-.91.09ZM83.27,123.9h3.3c.03-.37,0-.71-.13-1.03s-.3-.57-.55-.76c-.25-.19-.56-.29-.93-.29s-.67.1-.92.29c-.25.19-.44.45-.58.76-.13.32-.2.66-.2,1.03Z"/>
            <path class="cls-10" d="M91.27,122.75c-.22,0-.41-.09-.57-.26s-.23-.38-.23-.62.08-.46.23-.63c.16-.17.35-.26.57-.26s.4.09.56.26c.16.17.23.38.23.63s-.08.45-.23.62-.34.26-.56.26ZM91.27,127.5c-.22,0-.41-.09-.57-.26s-.23-.38-.23-.62.08-.46.23-.63.35-.26.57-.26.4.09.56.26.23.38.23.63-.08.45-.23.62-.34.26-.56.26Z"/>
            <path class="cls-10" d="M101.23,127.5v-8.44h2.17c.43,0,.84.07,1.24.21.39.14.74.36,1.06.67.31.31.56.71.74,1.22.18.5.28,1.12.28,1.86,0,.94-.13,1.74-.4,2.41-.27.67-.65,1.18-1.16,1.54-.5.36-1.11.53-1.82.53h-2.1ZM102.28,126.45h1.06c.46,0,.85-.1,1.15-.31.3-.2.54-.47.71-.81.18-.34.3-.71.37-1.11.07-.4.11-.81.11-1.21,0-.94-.21-1.67-.62-2.17s-.96-.75-1.65-.75h-1.13v6.35Z"/>
            <path class="cls-10" d="M110.36,127.69c-.57,0-1.07-.13-1.5-.4s-.77-.65-1.01-1.16c-.24-.51-.37-1.14-.37-1.87,0-1.12.24-1.98.73-2.58.49-.6,1.15-.9,1.98-.9.52,0,.96.12,1.31.37.36.24.63.57.83.98.2.41.32.86.36,1.34.04.49,0,.97-.11,1.44h-4.06c.05.43.16.78.35,1.03.18.26.42.44.7.56s.58.17.89.17c.17,0,.4-.03.7-.08.3-.06.62-.17.98-.35l.35.9c-.47.25-.88.4-1.21.46-.34.06-.64.09-.91.09ZM108.47,123.9h3.3c.03-.37,0-.71-.13-1.03s-.3-.57-.55-.76c-.25-.19-.56-.29-.93-.29s-.67.1-.92.29c-.25.19-.44.45-.58.76-.13.32-.2.66-.2,1.03Z"/>
            <path class="cls-10" d="M113.85,121.69h1.99v-1.37c0-.46.07-.83.21-1.09.14-.26.31-.45.52-.57s.41-.19.62-.22.39-.04.52-.04c.34,0,.67.05,1.01.16.34.11.65.26.95.46l-.46.88c-.22-.14-.44-.25-.68-.33s-.45-.13-.63-.13c-.3,0-.53.05-.68.16-.15.11-.25.26-.31.47s-.08.46-.08.76v.85h2.05v1.04h-2.05v5.04c0,.35-.03.69-.09,1.01-.06.32-.18.59-.37.79-.19.2-.48.3-.87.3h-1.61v-1.07h1.07c.26,0,.45-.05.57-.16.12-.1.21-.24.25-.4s.06-.32.06-.48v-5.04h-1.99v-1.04Z"/>
            <path class="cls-10" d="M124.86,125.94c0,.22.04.38.13.5.08.12.24.18.46.2v.96c-.41.02-.72-.03-.94-.15-.22-.12-.38-.29-.49-.53-.18.22-.41.4-.7.55-.29.15-.67.23-1.15.23-.3,0-.6-.07-.91-.22-.31-.15-.56-.37-.76-.67s-.3-.68-.3-1.15.08-.8.25-1.09c.16-.28.38-.51.66-.68.28-.17.57-.29.89-.37.32-.08.64-.12.95-.14.32-.02.6-.02.86,0v-.16c0-.3-.03-.56-.08-.76s-.16-.36-.34-.46c-.17-.1-.45-.16-.82-.16-.24,0-.47.03-.7.08-.23.05-.49.15-.79.31l-.5-.89c.38-.2.74-.34,1.1-.43.36-.08.72-.13,1.07-.13.19,0,.41.02.65.05s.47.11.7.22c.22.11.41.29.55.54.14.25.21.58.21,1v3.35ZM121.14,125.59c0,.32.11.57.34.76.23.18.49.28.79.28.44,0,.78-.1,1.01-.31s.41-.43.53-.67v-1.33c-.28-.02-.58-.03-.89-.02-.31.01-.6.06-.88.13-.27.08-.49.21-.66.39-.17.18-.25.44-.25.77Z"/>
            <path class="cls-10" d="M128.28,127.69c-.32,0-.61-.1-.87-.26s-.46-.44-.61-.83c-.15-.38-.22-.9-.22-1.55v-4.08h1.06v3.48c0,.4.02.76.07,1.07.04.31.13.56.27.74.14.18.34.28.62.28.25,0,.5-.06.77-.19.26-.12.56-.34.9-.64v-4.74h1.02v4.97c0,.22.04.38.13.5.09.12.25.18.48.2v.96c-.47.02-.82-.04-1.04-.2-.22-.16-.38-.39-.47-.69-.31.26-.65.5-1,.7-.36.2-.72.3-1.1.29Z"/>
            <path class="cls-10" d="M133.06,118.59h2.32v6.8c0,.16.02.32.05.48s.11.29.24.4c.13.1.32.16.56.16h1.26v1.07h-1.78c-.39,0-.69-.1-.89-.3-.2-.2-.33-.46-.4-.79-.06-.32-.1-.66-.1-1.01v-5.88l-1.27-.25v-.67Z"/>
            <path class="cls-10" d="M142.12,127.5c-.38,0-.67-.1-.87-.3-.2-.2-.33-.46-.4-.79s-.1-.66-.1-1.01v-3.38h-1.63v-1.04h1.63v-1.54h1.04v1.54h2.2v1.04h-2.2v3.38c0,.16.02.32.05.48s.12.29.24.4c.12.1.31.16.57.16h1.3v1.07h-1.84Z"/>
            <path class="cls-10" d="M155.41,129.14c-.63-.37-1.18-.82-1.65-1.36-.47-.54-.83-1.14-1.09-1.81-.26-.67-.38-1.4-.38-2.17s.13-1.5.38-2.17c.26-.67.62-1.28,1.09-1.81.47-.54,1.02-.98,1.65-1.34l.46,1.03c-.78.44-1.38,1.04-1.81,1.8-.43.76-.65,1.59-.65,2.5s.22,1.74.65,2.5c.43.76,1.04,1.36,1.81,1.8l-.46,1.04Z"/>
            <path class="cls-10" d="M162.94,125.18c0,.49-.1.92-.29,1.3-.19.38-.46.67-.81.89s-.77.32-1.25.32c-.55,0-1.02-.08-1.39-.23-.38-.15-.75-.37-1.13-.66l.53-.89c.24.2.51.37.8.52.29.14.62.22.99.22.5,0,.88-.15,1.13-.44s.38-.64.38-1.02c0-.42-.15-.78-.44-1.06s-.71-.42-1.24-.42h-.58v-1.02h.6c.51,0,.89-.14,1.13-.41.24-.28.37-.63.37-1.07,0-.42-.13-.73-.38-.94-.26-.21-.56-.32-.91-.32-.26,0-.54.07-.82.22-.28.14-.53.34-.76.6l-.7-.74c.65-.74,1.44-1.12,2.39-1.12.43,0,.81.09,1.15.28.33.18.59.44.79.77.19.33.29.72.29,1.17,0,.42-.09.82-.26,1.18-.17.36-.43.65-.76.88.34.16.62.42.84.79.22.36.34.77.34,1.23Z"/>
            <path class="cls-10" d="M165.73,129.14l-.47-1.04c.78-.44,1.38-1.04,1.81-1.8.43-.76.65-1.59.65-2.5s-.21-1.74-.64-2.5c-.43-.76-1.03-1.36-1.82-1.8l.47-1.03c.63.36,1.18.81,1.64,1.34s.82,1.14,1.08,1.81c.26.67.38,1.4.38,2.17s-.13,1.5-.38,2.17c-.26.67-.62,1.28-1.08,1.81s-1.01.99-1.64,1.36Z"/>
          </g>
          <g>
            <path class="cls-7" d="M32.12,133.05h1.04v3.52h2.82v-3.52h1.04v8.44h-1.04v-3.88h-2.82v3.88h-1.04v-8.44Z"/>
            <path class="cls-7" d="M40.88,141.68c-.57,0-1.05-.14-1.43-.43-.39-.29-.68-.69-.88-1.21-.2-.52-.3-1.12-.3-1.81s.1-1.3.3-1.82.49-.92.88-1.21c.39-.29.87-.43,1.43-.43s1.04.14,1.43.43.68.69.88,1.21.3,1.12.3,1.82-.1,1.29-.3,1.81c-.2.52-.49.92-.88,1.21s-.86.43-1.43.43ZM40.88,140.64c.38,0,.69-.11.92-.32.23-.21.4-.5.51-.87.11-.37.16-.78.16-1.24s-.05-.89-.16-1.25c-.11-.36-.28-.64-.51-.85-.23-.21-.54-.31-.92-.31s-.69.1-.93.31c-.24.21-.41.49-.52.85-.11.36-.16.78-.16,1.25s.05.87.16,1.24c.11.37.28.66.52.87.24.21.55.32.93.32Z"/>
            <path class="cls-7" d="M44.86,132.58h2.32v6.8c0,.16.02.32.05.48s.11.29.24.4c.13.1.32.16.56.16h1.26v1.07h-1.78c-.39,0-.69-.1-.89-.3-.2-.2-.33-.46-.4-.79-.06-.32-.1-.66-.1-1.01v-5.88l-1.27-.25v-.67Z"/>
            <path class="cls-7" d="M53.55,141.69c-.5,0-.95-.14-1.37-.43-.42-.29-.75-.69-1-1.21-.25-.52-.38-1.12-.38-1.8,0-.73.11-1.34.34-1.85.23-.5.53-.89.91-1.15.38-.26.78-.39,1.22-.39.25,0,.48.04.68.13s.39.21.55.37v-2.78h1.02v7.34c0,.44.23.67.68.7v.96c-.55.02-.96-.09-1.24-.31-.2.12-.42.22-.67.3s-.5.12-.76.12ZM53.55,140.66c.37,0,.69-.06.96-.19v-4.07c-.11-.15-.26-.27-.45-.36-.19-.09-.38-.13-.58-.13-.58,0-1,.21-1.27.62-.27.42-.4.99-.4,1.72,0,.48.08.9.23,1.27.15.36.36.65.62.85s.56.3.89.3Z"/>
            <path class="cls-7" d="M60.22,141.48c-.38,0-.67-.1-.87-.3-.2-.2-.33-.46-.4-.79s-.1-.66-.1-1.01v-3.38h-1.63v-1.04h1.63v-1.54h1.04v1.54h2.2v1.04h-2.2v3.38c0,.16.02.32.05.48s.12.29.24.4c.12.1.31.16.57.16h1.3v1.07h-1.84Z"/>
            <path class="cls-7" d="M63.66,141.48v-1.02h2.04v-3.98h-1.46v-1.04h2.44v5.03h1.75v1.02h-4.76ZM66.06,134.28c-.23,0-.43-.09-.6-.27-.17-.18-.25-.41-.25-.68s.08-.49.25-.67c.17-.18.37-.28.6-.28s.44.09.61.28c.16.18.25.41.25.67s-.08.5-.25.68c-.16.18-.37.27-.61.27Z"/>
            <path class="cls-7" d="M69.63,141.48c-.06-.98-.09-2.03-.09-3.16,0-1.13.02-2.27.07-3.42h.86l.08.61c.19-.23.41-.42.64-.55.24-.14.45-.2.65-.2.23,0,.42.07.58.2.15.14.26.32.32.55.18-.22.39-.41.62-.55.23-.14.45-.21.66-.21.33,0,.59.12.79.37.2.25.3.6.32,1.07.07,1.72.06,3.48-.02,5.28h-1.02c.03-.57.05-1.15.07-1.73.01-.59.02-1.15.02-1.7s0-1.04-.02-1.49c0-.26-.04-.46-.1-.62-.06-.16-.19-.23-.39-.23-.14,0-.29.07-.44.22-.15.14-.28.3-.4.48l-.07,4.16h-.8l-.06-4.06c0-.26-.04-.45-.11-.59-.07-.14-.19-.21-.36-.21-.14,0-.29.07-.45.21-.16.14-.29.3-.41.47-.04.8-.05,1.63-.02,2.49.02.86.06,1.73.1,2.6h-1.01Z"/>
            <path class="cls-7" d="M78.86,141.68c-.57,0-1.07-.13-1.5-.4s-.77-.65-1.01-1.16c-.24-.51-.37-1.14-.37-1.87,0-1.12.24-1.98.73-2.58.49-.6,1.15-.9,1.98-.9.52,0,.96.12,1.31.37.36.24.63.57.83.98.2.41.32.86.36,1.34.04.49,0,.97-.11,1.44h-4.06c.05.43.16.78.35,1.03.18.26.42.44.7.56s.58.17.89.17c.17,0,.4-.03.7-.08.3-.06.62-.17.98-.35l.35.9c-.47.25-.88.4-1.21.46-.34.06-.64.09-.91.09ZM76.97,137.89h3.3c.03-.37,0-.71-.13-1.03s-.3-.57-.55-.76c-.25-.19-.56-.29-.93-.29s-.67.1-.92.29c-.25.19-.44.45-.58.76-.13.32-.2.66-.2,1.03Z"/>
            <path class="cls-7" d="M84.98,136.73c-.22,0-.41-.09-.57-.26s-.23-.38-.23-.62.08-.46.23-.63c.16-.17.35-.26.57-.26s.4.09.56.26c.16.17.23.38.23.63s-.08.45-.23.62-.34.26-.56.26ZM84.98,141.48c-.22,0-.41-.09-.57-.26s-.23-.38-.23-.62.08-.46.23-.63.35-.26.57-.26.4.09.56.26.23.38.23.63-.08.45-.23.62-.34.26-.56.26Z"/>
            <path class="cls-7" d="M94.94,141.48v-8.44h2.17c.43,0,.84.07,1.24.21.39.14.74.36,1.06.67.31.31.56.71.74,1.22.18.5.28,1.12.28,1.86,0,.94-.13,1.74-.4,2.41-.27.67-.65,1.18-1.16,1.54-.5.36-1.11.53-1.82.53h-2.1ZM95.98,140.44h1.06c.46,0,.85-.1,1.15-.31.3-.2.54-.47.71-.81.18-.34.3-.71.37-1.11.07-.4.11-.81.11-1.21,0-.94-.21-1.67-.62-2.17s-.96-.75-1.65-.75h-1.13v6.35Z"/>
            <path class="cls-7" d="M104.06,141.68c-.57,0-1.07-.13-1.5-.4s-.77-.65-1.01-1.16c-.24-.51-.37-1.14-.37-1.87,0-1.12.24-1.98.73-2.58.49-.6,1.15-.9,1.98-.9.52,0,.96.12,1.31.37.36.24.63.57.83.98.2.41.32.86.36,1.34.04.49,0,.97-.11,1.44h-4.06c.05.43.16.78.35,1.03.18.26.42.44.7.56s.58.17.89.17c.17,0,.4-.03.7-.08.3-.06.62-.17.98-.35l.35.9c-.47.25-.88.4-1.21.46-.34.06-.64.09-.91.09ZM102.17,137.89h3.3c.03-.37,0-.71-.13-1.03s-.3-.57-.55-.76c-.25-.19-.56-.29-.93-.29s-.67.1-.92.29c-.25.19-.44.45-.58.76-.13.32-.2.66-.2,1.03Z"/>
            <path class="cls-7" d="M107.55,135.68h1.99v-1.37c0-.46.07-.83.21-1.09.14-.26.31-.45.52-.57s.41-.19.62-.22.39-.04.52-.04c.34,0,.67.05,1.01.16.34.11.65.26.95.46l-.46.88c-.22-.14-.44-.25-.68-.33s-.45-.13-.63-.13c-.3,0-.53.05-.68.16-.15.11-.25.26-.31.47s-.08.46-.08.76v.85h2.05v1.04h-2.05v5.04c0,.35-.03.69-.09,1.01-.06.32-.18.59-.37.79-.19.2-.48.3-.87.3h-1.61v-1.07h1.07c.26,0,.45-.05.57-.16.12-.1.21-.24.25-.4s.06-.32.06-.48v-5.04h-1.99v-1.04Z"/>
            <path class="cls-7" d="M118.56,139.93c0,.22.04.38.13.5.08.12.24.18.46.2v.96c-.41.02-.72-.03-.94-.15-.22-.12-.38-.29-.49-.53-.18.22-.41.4-.7.55-.29.15-.67.23-1.15.23-.3,0-.6-.07-.91-.22-.31-.15-.56-.37-.76-.67s-.3-.68-.3-1.15.08-.8.25-1.09c.16-.28.38-.51.66-.68.28-.17.57-.29.89-.37.32-.08.64-.12.95-.14.32-.02.6-.02.86,0v-.16c0-.3-.03-.56-.08-.76s-.16-.36-.34-.46c-.17-.1-.45-.16-.82-.16-.24,0-.47.03-.7.08-.23.05-.49.15-.79.31l-.5-.89c.38-.2.74-.34,1.1-.43.36-.08.72-.13,1.07-.13.19,0,.41.02.65.05s.47.11.7.22c.22.11.41.29.55.54.14.25.21.58.21,1v3.35ZM114.84,139.58c0,.32.11.57.34.76.23.18.49.28.79.28.44,0,.78-.1,1.01-.31s.41-.43.53-.67v-1.33c-.28-.02-.58-.03-.89-.02-.31.01-.6.06-.88.13-.27.08-.49.21-.66.39-.17.18-.25.44-.25.77Z"/>
            <path class="cls-7" d="M121.98,141.68c-.32,0-.61-.1-.87-.26s-.46-.44-.61-.83c-.15-.38-.22-.9-.22-1.55v-4.08h1.06v3.48c0,.4.02.76.07,1.07.04.31.13.56.27.74.14.18.34.28.62.28.25,0,.5-.06.77-.19.26-.12.56-.34.9-.64v-4.74h1.02v4.97c0,.22.04.38.13.5.09.12.25.18.48.2v.96c-.47.02-.82-.04-1.04-.2-.22-.16-.38-.39-.47-.69-.31.26-.65.5-1,.7-.36.2-.72.3-1.1.29Z"/>
            <path class="cls-7" d="M126.76,132.58h2.32v6.8c0,.16.02.32.05.48s.11.29.24.4c.13.1.32.16.56.16h1.26v1.07h-1.78c-.39,0-.69-.1-.89-.3-.2-.2-.33-.46-.4-.79-.06-.32-.1-.66-.1-1.01v-5.88l-1.27-.25v-.67Z"/>
            <path class="cls-7" d="M135.82,141.48c-.38,0-.67-.1-.87-.3-.2-.2-.33-.46-.4-.79s-.1-.66-.1-1.01v-3.38h-1.63v-1.04h1.63v-1.54h1.04v1.54h2.2v1.04h-2.2v3.38c0,.16.02.32.05.48s.12.29.24.4c.12.1.31.16.57.16h1.3v1.07h-1.84Z"/>
            <path class="cls-7" d="M149.12,143.13c-.63-.37-1.18-.82-1.65-1.36-.47-.54-.83-1.14-1.09-1.81-.26-.67-.38-1.4-.38-2.17s.13-1.5.38-2.17c.26-.67.62-1.28,1.09-1.81.47-.54,1.02-.98,1.65-1.34l.46,1.03c-.78.44-1.38,1.04-1.81,1.8-.43.76-.65,1.59-.65,2.5s.22,1.74.65,2.5c.43.76,1.04,1.36,1.81,1.8l-.46,1.04Z"/>
            <path class="cls-7" d="M151.94,141.48v-1.04h1.97v-5.5c-.47.37-1.01.64-1.61.8l-.43-1.08c.42-.1.85-.3,1.27-.58.42-.28.76-.63,1.01-1.04h.82v7.39h1.8v1.04h-4.82Z"/>
            <path class="cls-7" d="M160.59,141.68c-.52,0-.96-.11-1.31-.34-.35-.22-.63-.53-.85-.93-.21-.4-.36-.86-.45-1.4-.09-.54-.13-1.12-.13-1.74s.04-1.23.13-1.76c.09-.53.24-1,.45-1.39.21-.4.49-.71.85-.93.35-.22.79-.34,1.31-.34s.97.11,1.31.34c.35.22.62.53.83.93.2.4.35.86.43,1.39s.13,1.12.13,1.76-.04,1.2-.13,1.74-.23,1-.43,1.4c-.2.4-.48.71-.83.93-.35.22-.79.34-1.31.34ZM158.9,137.26c0,.4.01.78.04,1.13.02.35.08.67.16.96l2.59-4.99c-.12-.14-.27-.25-.45-.33-.18-.08-.39-.11-.64-.11-.37,0-.67.08-.89.25-.23.17-.4.4-.51.71-.11.3-.19.66-.23,1.06s-.06.85-.06,1.33ZM160.59,140.62c.38,0,.67-.09.89-.26.22-.17.38-.41.49-.71.11-.3.18-.66.22-1.07.04-.41.05-.85.05-1.32,0-.39-.01-.76-.03-1.11s-.06-.66-.13-.94l-2.58,4.98c.12.14.27.24.45.32.18.08.39.11.63.11Z"/>
            <path class="cls-7" d="M165.73,143.13l-.47-1.04c.78-.44,1.38-1.04,1.81-1.8.43-.76.65-1.59.65-2.5s-.21-1.74-.64-2.5c-.43-.76-1.03-1.36-1.82-1.8l.47-1.03c.63.36,1.18.81,1.64,1.34s.82,1.14,1.08,1.81c.26.67.38,1.4.38,2.17s-.13,1.5-.38,2.17c-.26.67-.62,1.28-1.08,1.81s-1.01.99-1.64,1.36Z"/>
          </g>
          <g>
            <path class="cls-9" d="M31.92,155.7v-8.44h2.9c.86,0,1.5.24,1.9.73.4.48.6,1.13.6,1.94s-.21,1.45-.62,1.94-1.04.73-1.88.73h-1.87v3.11h-1.03ZM32.96,151.55h1.87c.5,0,.88-.16,1.12-.47.24-.31.36-.7.36-1.15,0-.5-.12-.89-.36-1.18-.24-.29-.61-.44-1.12-.44h-1.87v3.24Z"/>
            <path class="cls-9" d="M38.27,155.7v-.97h1.19v-4.78l-.96-.19v-.68h1.87l.11.86c.26-.26.53-.49.81-.68.28-.19.59-.28.92-.28.3,0,.59.08.85.23.26.14.46.36.6.64l-.74.7c-.11-.15-.25-.27-.43-.35-.17-.08-.35-.12-.53-.12-.24,0-.48.09-.71.27-.23.18-.48.41-.74.7v3.68h2.2v.97h-4.43Z"/>
            <path class="cls-9" d="M44.77,155.7v-1.02h2.04v-3.98h-1.46v-1.04h2.44v5.03h1.75v1.02h-4.76ZM47.16,148.5c-.23,0-.43-.09-.6-.27-.17-.18-.25-.41-.25-.68s.08-.49.25-.67c.17-.18.37-.28.6-.28s.44.09.61.28c.16.18.25.41.25.67s-.08.5-.25.68c-.16.18-.37.27-.61.27Z"/>
            <path class="cls-9" d="M53.48,155.89c-.57,0-1.05-.14-1.43-.43-.39-.29-.68-.69-.88-1.21-.2-.52-.3-1.12-.3-1.81s.1-1.3.3-1.82.49-.92.88-1.21c.39-.29.87-.43,1.43-.43s1.04.14,1.43.43.68.69.88,1.21.3,1.12.3,1.82-.1,1.29-.3,1.81c-.2.52-.49.92-.88,1.21s-.86.43-1.43.43ZM53.48,154.86c.38,0,.69-.11.92-.32.23-.21.4-.5.51-.87.11-.37.16-.78.16-1.24s-.05-.89-.16-1.25c-.11-.36-.28-.64-.51-.85-.23-.21-.54-.31-.92-.31s-.69.1-.93.31c-.24.21-.41.49-.52.85-.11.36-.16.78-.16,1.25s.05.87.16,1.24c.11.37.28.66.52.87.24.21.55.32.93.32Z"/>
            <path class="cls-9" d="M57.17,155.7v-.97h1.19v-4.78l-.96-.19v-.68h1.87l.11.86c.26-.26.53-.49.81-.68.28-.19.59-.28.92-.28.3,0,.59.08.85.23.26.14.46.36.6.64l-.74.7c-.11-.15-.25-.27-.43-.35-.17-.08-.35-.12-.53-.12-.24,0-.48.09-.71.27-.23.18-.48.41-.74.7v3.68h2.2v.97h-4.43Z"/>
            <path class="cls-9" d="M63.66,155.7v-1.02h2.04v-3.98h-1.46v-1.04h2.44v5.03h1.75v1.02h-4.76ZM66.06,148.5c-.23,0-.43-.09-.6-.27-.17-.18-.25-.41-.25-.68s.08-.49.25-.67c.17-.18.37-.28.6-.28s.44.09.61.28c.16.18.25.41.25.67s-.08.5-.25.68c-.16.18-.37.27-.61.27Z"/>
            <path class="cls-9" d="M72.82,155.7c-.38,0-.67-.1-.87-.3-.2-.2-.33-.46-.4-.79s-.1-.66-.1-1.01v-3.38h-1.63v-1.04h1.63v-1.54h1.04v1.54h2.2v1.04h-2.2v3.38c0,.16.02.32.05.48s.12.29.24.4c.12.1.31.16.57.16h1.3v1.07h-1.84Z"/>
            <path class="cls-9" d="M77.19,158.26v-1.04h1.39c.38,0,.69-.04.91-.11.22-.08.37-.21.46-.39.08-.18.13-.43.13-.73v-1.01c-.22.2-.45.37-.71.51-.26.14-.55.21-.86.2-.32,0-.62-.1-.89-.28-.27-.18-.49-.46-.64-.84-.16-.38-.23-.89-.23-1.52l.02-2.86-.89-.14v-.82h1.9v3.22c0,.4.02.76.06,1.07.04.32.12.57.25.75.13.18.33.28.6.28.25,0,.49-.07.72-.2s.46-.3.67-.5v-4.67h1.04v6.82c0,.79-.17,1.37-.51,1.73-.34.36-.84.54-1.49.54h-1.92Z"/>
            <path class="cls-9" d="M84.98,150.95c-.22,0-.41-.09-.57-.26s-.23-.38-.23-.62.08-.46.23-.63c.16-.17.35-.26.57-.26s.4.09.56.26c.16.17.23.38.23.63s-.08.45-.23.62-.34.26-.56.26ZM84.98,155.7c-.22,0-.41-.09-.57-.26s-.23-.38-.23-.62.08-.46.23-.63.35-.26.57-.26.4.09.56.26.23.38.23.63-.08.45-.23.62-.34.26-.56.26Z"/>
            <path class="cls-9" d="M95.01,149.69c0-.5.1-.94.29-1.33.19-.39.47-.7.84-.94.37-.23.82-.35,1.34-.35.5,0,.93.13,1.3.38s.66.61.88,1.07.32,1.02.32,1.69c0,1.12-.25,2.14-.74,3.07s-1.2,1.79-2.11,2.61l-.68-.82c.38-.32.76-.69,1.12-1.12s.67-.86.92-1.31c.25-.45.41-.86.47-1.24-.35.62-.92.94-1.69.94-.42,0-.81-.12-1.15-.36-.34-.24-.61-.56-.81-.96-.2-.4-.29-.84-.29-1.33ZM97.44,151.3c.42,0,.76-.15,1.03-.46.27-.3.4-.68.4-1.14s-.13-.82-.4-1.13c-.27-.3-.61-.46-1.03-.46s-.76.15-1.02.44-.4.68-.4,1.14.13.86.4,1.15.6.44,1.02.44Z"/>
            <path class="cls-9" d="M103.89,155.89c-.52,0-.96-.11-1.31-.34-.35-.22-.63-.53-.85-.93-.21-.4-.36-.86-.45-1.4-.09-.54-.13-1.12-.13-1.74s.04-1.23.13-1.76c.09-.53.24-1,.45-1.39.21-.4.49-.71.85-.93.35-.22.79-.34,1.31-.34s.97.11,1.31.34c.35.22.62.53.83.93.2.4.35.86.43,1.39s.13,1.12.13,1.76-.04,1.2-.13,1.74-.23,1-.43,1.4c-.2.4-.48.71-.83.93-.35.22-.79.34-1.31.34ZM102.2,151.48c0,.4.01.78.04,1.13.02.35.08.67.16.96l2.59-4.99c-.12-.14-.27-.25-.45-.33-.18-.08-.39-.11-.64-.11-.37,0-.67.08-.89.25-.23.17-.4.4-.51.71-.11.3-.19.66-.23,1.06s-.06.85-.06,1.33ZM103.89,154.84c.38,0,.67-.09.89-.26.22-.17.38-.41.49-.71.11-.3.18-.66.22-1.07.04-.41.05-.85.05-1.32,0-.39-.01-.76-.03-1.11s-.06-.66-.13-.94l-2.58,4.98c.12.14.27.24.45.32.18.08.39.11.63.11Z"/>
          </g>
        </g>
      </g>
    </g>
  </g>
</svg>