<?xml version="1.0" encoding="UTF-8"?>
<svg id="_レイヤー_2" data-name="レイヤー 2" xmlns="http://www.w3.org/2000/svg" xmlns:xlink="http://www.w3.org/1999/xlink" viewBox="8.5 8.5 249.45 178.58">
  <defs>
    <style>
      .cls-1 {
        fill: #fff;
      }

      .cls-2 {
        fill: #ccc;
      }

      .cls-3 {
        fill: none;
      }

      .cls-4 {
        fill: #323333;
      }

      .cls-5 {
        fill: #b2b2b2;
      }

      .cls-6 {
        clip-path: url(#clippath);
      }
    </style>
    <clipPath id="clippath">
      <rect class="cls-3" x="8.5" y="8.5" width="249.45" height="178.58" rx="8.5" ry="8.5"/>
    </clipPath>
  </defs>
  <g id="_印刷" data-name="印刷">
    <g id="_裏" data-name="裏">
      <g class="cls-6">
        <rect class="cls-2" x="35.43" y="-35.43" width="195.59" height="266.46" transform="translate(231.02 -35.43) rotate(90)"/>
        <g>
          <path class="cls-5" d="M25.76,45.51h-1.06v-2.5h-2.2v-1.03h2.2v-2.5h1.06v2.5h2.2v1.03h-2.2v2.5Z"/>
          <path class="cls-5" d="M34.8,41.98v1.03h-4.75v-1.03h4.75Z"/>
          <path class="cls-5" d="M42,41.98v1.03h-4.75v-1.03h4.75Z"/>
          <path class="cls-5" d="M49.2,41.98v1.03h-4.75v-1.03h4.75Z"/>
          <path class="cls-5" d="M56.4,41.98v1.03h-4.75v-1.03h4.75Z"/>
          <path class="cls-5" d="M63.6,41.98v1.03h-4.75v-1.03h4.75Z"/>
          <path class="cls-5" d="M70.8,41.98v1.03h-4.75v-1.03h4.75Z"/>
          <path class="cls-5" d="M78,41.98v1.03h-4.75v-1.03h4.75Z"/>
          <path class="cls-5" d="M85.2,41.98v1.03h-4.75v-1.03h4.75Z"/>
          <path class="cls-5" d="M92.4,41.98v1.03h-4.75v-1.03h4.75Z"/>
          <path class="cls-5" d="M99.6,41.98v1.03h-4.75v-1.03h4.75Z"/>
          <path class="cls-5" d="M106.8,41.98v1.03h-4.75v-1.03h4.75Z"/>
          <path class="cls-5" d="M114,41.98v1.03h-4.75v-1.03h4.75Z"/>
          <path class="cls-5" d="M121.2,41.98v1.03h-4.75v-1.03h4.75Z"/>
          <path class="cls-5" d="M128.4,41.98v1.03h-4.75v-1.03h4.75Z"/>
          <path class="cls-5" d="M133.75,45.51h-1.06v-2.5h-2.2v-1.03h2.2v-2.5h1.06v2.5h2.2v1.03h-2.2v2.5Z"/>
          <path class="cls-5" d="M142.8,41.98v1.03h-4.75v-1.03h4.75Z"/>
          <path class="cls-5" d="M150,41.98v1.03h-4.75v-1.03h4.75Z"/>
          <path class="cls-5" d="M157.2,41.98v1.03h-4.75v-1.03h4.75Z"/>
          <path class="cls-5" d="M164.4,41.98v1.03h-4.75v-1.03h4.75Z"/>
          <path class="cls-5" d="M171.6,41.98v1.03h-4.75v-1.03h4.75Z"/>
          <path class="cls-5" d="M178.8,41.98v1.03h-4.75v-1.03h4.75Z"/>
          <path class="cls-5" d="M186,41.98v1.03h-4.75v-1.03h4.75Z"/>
          <path class="cls-5" d="M193.2,41.98v1.03h-4.75v-1.03h4.75Z"/>
          <path class="cls-5" d="M200.4,41.98v1.03h-4.75v-1.03h4.75Z"/>
          <path class="cls-5" d="M207.6,41.98v1.03h-4.75v-1.03h4.75Z"/>
          <path class="cls-5" d="M214.8,41.98v1.03h-4.75v-1.03h4.75Z"/>
          <path class="cls-5" d="M222,41.98v1.03h-4.75v-1.03h4.75Z"/>
          <path class="cls-5" d="M229.2,41.98v1.03h-4.75v-1.03h4.75Z"/>
          <path class="cls-5" d="M236.4,41.98v1.03h-4.75v-1.03h4.75Z"/>
          <path class="cls-5" d="M241.75,45.51h-1.06v-2.5h-2.2v-1.03h2.2v-2.5h1.06v2.5h2.2v1.03h-2.2v2.5Z"/>
          <path class="cls-5" d="M25.79,48.99v11.11h-1.13v-11.11h1.13Z"/>
          <path class="cls-5" d="M65.8,57.34l.71-.8c.31.22.64.4,1,.55.35.15.7.22,1.04.22.46,0,.8-.08,1.03-.23.23-.15.35-.35.35-.59s-.09-.43-.28-.59c-.19-.16-.43-.3-.72-.43s-.6-.25-.93-.37c-.33-.12-.64-.26-.94-.41-.3-.16-.54-.35-.72-.58-.18-.23-.28-.51-.28-.85,0-.3.08-.57.23-.8.15-.23.35-.43.6-.59s.52-.28.81-.36c.29-.08.58-.12.86-.12.48,0,.9.08,1.26.25.36.16.71.4,1.06.7l-.7.77c-.26-.21-.52-.37-.77-.49-.25-.12-.53-.17-.85-.17-.34,0-.65.07-.93.22s-.42.34-.44.57c0,.18.08.33.26.46.18.13.42.26.72.38s.61.25.94.39c.33.14.64.29.94.47.29.18.53.39.73.64.19.25.29.54.29.89,0,.57-.22,1.02-.66,1.37-.44.34-1.06.52-1.86.52-.52,0-1.02-.1-1.51-.29-.49-.2-.9-.44-1.24-.73Z"/>
          <path class="cls-5" d="M72.81,58.18v-.98h1.3v-4.82l-1.06-.19v-.7h2.04l.12.88c.28-.26.58-.49.89-.69.31-.2.65-.29,1.01-.28.34,0,.65.09.93.23.28.15.5.36.65.64l-.82.71c-.13-.16-.28-.28-.47-.36-.18-.08-.38-.12-.58-.12-.26,0-.52.09-.77.28-.25.18-.52.42-.81.71v3.72h2.39v.98h-4.82Z"/>
          <path class="cls-5" d="M83.14,58.37c-.98,0-1.75-.29-2.31-.89-.56-.6-.83-1.46-.83-2.57s.27-1.97.8-2.59c.54-.62,1.28-.93,2.24-.93.51,0,.97.13,1.38.4.41.27.72.64.92,1.11l-.89.42c-.14-.28-.33-.5-.58-.65s-.53-.23-.84-.23c-.61,0-1.08.22-1.43.65s-.52,1.04-.52,1.81.18,1.35.53,1.78c.36.43.86.64,1.51.64.37,0,.7-.07.99-.2.29-.14.57-.32.83-.54l.58.85c-.3.29-.66.51-1.08.68-.42.16-.86.25-1.32.26Z"/>
          <path class="cls-5" d="M133.79,48.99v11.11h-1.13v-11.11h1.13Z"/>
          <path class="cls-5" d="M173.89,58.18v-1.06h2.14v-5.56c-.51.38-1.09.65-1.74.82l-.48-1.09c.46-.1.93-.3,1.39-.59s.83-.64,1.09-1.04h.9v7.46h1.96v1.06h-5.26Z"/>
          <path class="cls-5" d="M180.84,52.11c0-.5.1-.95.31-1.35s.51-.71.92-.94c.4-.23.89-.35,1.46-.35s1.02.13,1.43.38.73.61.96,1.08c.23.47.35,1.03.35,1.7,0,1.14-.27,2.17-.82,3.1-.54.93-1.31,1.81-2.3,2.63l-.76-.83c.43-.32.84-.69,1.24-1.12.39-.43.73-.87,1-1.32.28-.45.45-.87.52-1.25-.38.63-1,.95-1.85.95-.46,0-.88-.12-1.25-.36-.37-.24-.67-.56-.88-.97-.22-.4-.32-.85-.32-1.35ZM183.49,53.73c.46,0,.83-.15,1.12-.46.29-.3.44-.69.44-1.15s-.15-.84-.44-1.14c-.29-.3-.67-.46-1.12-.46s-.82.15-1.1.44c-.29.3-.43.68-.43,1.15s.14.87.43,1.16c.29.3.66.44,1.1.44Z"/>
          <path class="cls-5" d="M190.79,58.37c-.34,0-.67-.04-1-.13s-.63-.23-.91-.42c-.27-.19-.49-.45-.66-.77s-.25-.71-.25-1.18c0-.35.07-.67.22-.95.14-.28.33-.53.56-.73.23-.2.47-.34.73-.42-.36-.19-.65-.44-.88-.75-.23-.31-.34-.74-.34-1.3,0-.35.09-.7.26-1.04.18-.34.45-.63.82-.86s.86-.34,1.46-.34,1.1.11,1.47.34c.37.23.64.51.82.86.17.34.26.69.26,1.04,0,.56-.11.99-.34,1.3s-.52.56-.89.75c.26.08.51.22.73.42.22.2.41.44.55.73.14.28.22.6.22.95,0,.46-.08.86-.25,1.18s-.38.58-.66.77c-.28.19-.58.33-.91.42s-.67.13-1,.13ZM189.11,55.83c0,.46.14.83.43,1.09.28.26.7.4,1.25.4s.97-.13,1.25-.4c.28-.26.43-.63.43-1.09,0-.42-.15-.77-.46-1.05-.31-.28-.71-.41-1.22-.41s-.9.14-1.21.41c-.31.28-.47.63-.47,1.05ZM189.37,51.86c0,.42.13.75.39,1,.26.25.61.37,1.04.37s.78-.12,1.04-.37c.26-.25.39-.58.39-1,0-.19-.04-.39-.13-.59-.09-.2-.24-.38-.44-.52-.21-.14-.5-.21-.86-.21s-.64.07-.85.21c-.21.14-.35.31-.44.52s-.13.4-.13.59Z"/>
          <path class="cls-5" d="M200.27,50.72h-3.5v2.66c.19-.18.42-.33.7-.44.27-.11.57-.16.9-.16.42,0,.8.11,1.15.34.35.23.63.55.84.95s.32.88.32,1.43-.11,1.07-.33,1.5c-.22.43-.53.77-.92,1.01-.4.24-.86.36-1.39.36s-.96-.08-1.36-.25c-.4-.16-.83-.44-1.27-.82l.76-.74c.26.26.54.45.82.57.28.12.61.19.98.19.43,0,.8-.16,1.12-.48.31-.32.47-.76.47-1.33,0-.5-.13-.9-.38-1.21s-.6-.47-1.02-.47c-.23,0-.47.04-.7.11-.24.07-.46.17-.67.29h-1.03v-4.56h4.54v1.06Z"/>
          <path class="cls-5" d="M241.79,48.99v11.11h-1.13v-11.11h1.13Z"/>
          <path class="cls-5" d="M25.76,69.51h-1.06v-2.5h-2.2v-1.03h2.2v-2.5h1.06v2.5h2.2v1.03h-2.2v2.5Z"/>
          <path class="cls-5" d="M34.8,65.98v1.03h-4.75v-1.03h4.75Z"/>
          <path class="cls-5" d="M42,65.98v1.03h-4.75v-1.03h4.75Z"/>
          <path class="cls-5" d="M49.2,65.98v1.03h-4.75v-1.03h4.75Z"/>
          <path class="cls-5" d="M56.4,65.98v1.03h-4.75v-1.03h4.75Z"/>
          <path class="cls-5" d="M63.6,65.98v1.03h-4.75v-1.03h4.75Z"/>
          <path class="cls-5" d="M70.8,65.98v1.03h-4.75v-1.03h4.75Z"/>
          <path class="cls-5" d="M78,65.98v1.03h-4.75v-1.03h4.75Z"/>
          <path class="cls-5" d="M85.2,65.98v1.03h-4.75v-1.03h4.75Z"/>
          <path class="cls-5" d="M92.4,65.98v1.03h-4.75v-1.03h4.75Z"/>
          <path class="cls-5" d="M99.6,65.98v1.03h-4.75v-1.03h4.75Z"/>
          <path class="cls-5" d="M106.8,65.98v1.03h-4.75v-1.03h4.75Z"/>
          <path class="cls-5" d="M114,65.98v1.03h-4.75v-1.03h4.75Z"/>
          <path class="cls-5" d="M121.2,65.98v1.03h-4.75v-1.03h4.75Z"/>
          <path class="cls-5" d="M128.4,65.98v1.03h-4.75v-1.03h4.75Z"/>
          <path class="cls-5" d="M133.75,69.51h-1.06v-2.5h-2.2v-1.03h2.2v-2.5h1.06v2.5h2.2v1.03h-2.2v2.5Z"/>
          <path class="cls-5" d="M142.8,65.98v1.03h-4.75v-1.03h4.75Z"/>
          <path class="cls-5" d="M150,65.98v1.03h-4.75v-1.03h4.75Z"/>
          <path class="cls-5" d="M157.2,65.98v1.03h-4.75v-1.03h4.75Z"/>
          <path class="cls-5" d="M164.4,65.98v1.03h-4.75v-1.03h4.75Z"/>
          <path class="cls-5" d="M171.6,65.98v1.03h-4.75v-1.03h4.75Z"/>
          <path class="cls-5" d="M178.8,65.98v1.03h-4.75v-1.03h4.75Z"/>
          <path class="cls-5" d="M186,65.98v1.03h-4.75v-1.03h4.75Z"/>
          <path class="cls-5" d="M193.2,65.98v1.03h-4.75v-1.03h4.75Z"/>
          <path class="cls-5" d="M200.4,65.98v1.03h-4.75v-1.03h4.75Z"/>
          <path class="cls-5" d="M207.6,65.98v1.03h-4.75v-1.03h4.75Z"/>
          <path class="cls-5" d="M214.8,65.98v1.03h-4.75v-1.03h4.75Z"/>
          <path class="cls-5" d="M222,65.98v1.03h-4.75v-1.03h4.75Z"/>
          <path class="cls-5" d="M229.2,65.98v1.03h-4.75v-1.03h4.75Z"/>
          <path class="cls-5" d="M236.4,65.98v1.03h-4.75v-1.03h4.75Z"/>
          <path class="cls-5" d="M241.75,69.51h-1.06v-2.5h-2.2v-1.03h2.2v-2.5h1.06v2.5h2.2v1.03h-2.2v2.5Z"/>
          <path class="cls-5" d="M25.79,72.99v11.11h-1.13v-11.11h1.13Z"/>
          <path class="cls-5" d="M58.72,73.18h2.52v6.88c0,.16.02.32.06.49s.13.3.26.4c.14.1.34.16.61.16h1.38v1.08h-1.94c-.42,0-.74-.1-.96-.31s-.36-.47-.44-.79c-.08-.32-.11-.67-.11-1.03v-5.94l-1.38-.25v-.68Z"/>
          <path class="cls-5" d="M68.64,82.38c-.61,0-1.15-.13-1.62-.4-.47-.27-.84-.66-1.11-1.18-.27-.52-.4-1.15-.4-1.89,0-1.13.27-2,.8-2.6s1.26-.91,2.16-.91c.57,0,1.04.12,1.43.37.38.25.69.58.91.99s.35.86.4,1.36,0,.98-.13,1.46h-4.43c.06.43.18.78.38,1.04.2.26.45.45.76.56.3.12.63.17.97.17.18,0,.43-.03.76-.08s.68-.17,1.07-.35l.38.91c-.52.25-.96.4-1.33.46-.36.06-.7.09-1,.09ZM66.6,78.55h3.6c.03-.38-.02-.72-.14-1.04s-.33-.57-.61-.77c-.28-.2-.61-.29-1.01-.29s-.71.1-.99.29c-.28.2-.49.45-.63.77-.14.32-.22.66-.22,1.04Z"/>
          <path class="cls-5" d="M73.05,82.18v-6.65h1l.11.8c.34-.27.73-.5,1.15-.68.42-.18.84-.27,1.24-.26.29,0,.56.07.82.22.26.15.46.39.62.72.16.33.23.77.23,1.33v4.52h-1.15v-4.33c0-.46-.08-.8-.23-1-.15-.2-.38-.31-.68-.31-.27,0-.57.07-.89.21-.32.14-.69.37-1.09.7v4.73h-1.12Z"/>
          <path class="cls-5" d="M80.73,82.72c.23.42.53.7.91.84.37.14.77.22,1.18.22.69,0,1.17-.11,1.46-.34s.43-.5.43-.82c0-.23-.1-.42-.31-.57-.21-.15-.61-.22-1.21-.22h-.64c-.8,0-1.39-.12-1.76-.37s-.56-.52-.56-.83c0-.2.06-.37.17-.5.12-.14.26-.25.42-.34s.31-.15.45-.18c-.32-.18-.58-.42-.79-.74-.21-.32-.31-.69-.31-1.11,0-.46.11-.86.34-1.22.23-.36.53-.64.92-.85.38-.2.82-.31,1.32-.31s.96.11,1.36.34c.2-.06.33-.2.38-.43.06-.23.08-.5.08-.8h1.22c0,.49-.07.88-.22,1.18-.14.3-.4.5-.78.61.16.2.28.43.37.68s.13.52.13.81c0,.53-.12.95-.37,1.27-.25.32-.58.55-.98.7-.41.15-.86.23-1.34.26-.35.02-.65.06-.88.13-.24.07-.35.18-.35.32,0,.11.07.19.21.25.14.05.31.08.52.1.2.01.41.02.62.02h.35c.97,0,1.67.16,2.09.49s.64.75.64,1.28c0,.64-.24,1.17-.73,1.58-.49.41-1.23.62-2.22.62-.67,0-1.26-.12-1.77-.37s-.91-.65-1.21-1.21l.86-.48ZM82.74,79c.47,0,.83-.11,1.08-.32s.37-.52.36-.91c0-.22-.06-.44-.17-.64-.11-.2-.27-.37-.49-.5s-.47-.2-.79-.2-.57.07-.79.2-.39.3-.5.5-.17.41-.18.64c0,.39.12.7.4.91.27.22.63.32,1.07.32Z"/>
          <path class="cls-5" d="M90.53,82.18c-.42,0-.74-.1-.95-.31s-.35-.47-.43-.79c-.07-.32-.11-.67-.11-1.03v-3.42h-1.79v-1.06h1.79v-1.55h1.14v1.55h2.39v1.06h-2.39v3.42c0,.16.02.32.05.49s.12.3.26.4c.14.1.34.16.62.16h1.42v1.08h-2Z"/>
          <path class="cls-5" d="M94.96,82.18v-8.11l-1.07-.19v-.7h2.17v3.3c.34-.23.69-.43,1.07-.59s.76-.24,1.13-.23c.32,0,.61.07.86.2.25.14.45.36.6.67.15.31.22.74.22,1.27v4.38h-1.14v-4.07c0-.46-.08-.8-.23-1-.15-.2-.38-.3-.7-.3-.26,0-.53.06-.83.18-.3.12-.63.32-1,.6v4.58h-1.1Z"/>
          <path class="cls-5" d="M133.79,72.99v11.11h-1.13v-11.11h1.13Z"/>
          <path class="cls-5" d="M162.34,82.38c-.98,0-1.75-.29-2.31-.89-.56-.6-.83-1.46-.83-2.57s.27-1.97.8-2.59c.54-.62,1.28-.93,2.24-.93.51,0,.97.13,1.38.4.41.27.72.64.92,1.11l-.89.42c-.14-.28-.33-.5-.58-.65s-.53-.23-.84-.23c-.61,0-1.08.22-1.43.65s-.52,1.04-.52,1.81.18,1.35.53,1.78c.36.43.86.64,1.51.64.37,0,.7-.07.99-.2.29-.14.57-.32.83-.54l.58.85c-.3.29-.66.51-1.08.68-.42.16-.86.25-1.32.26Z"/>
          <path class="cls-5" d="M166.96,82.18v-8.11l-1.07-.19v-.7h2.17v3.3c.34-.23.69-.43,1.07-.59s.76-.24,1.13-.23c.32,0,.61.07.86.2.25.14.45.36.6.67.15.31.22.74.22,1.27v4.38h-1.14v-4.07c0-.46-.08-.8-.23-1-.15-.2-.38-.3-.7-.3-.26,0-.53.06-.83.18-.3.12-.63.32-1,.6v4.58h-1.1Z"/>
          <path class="cls-5" d="M176.64,82.38c-.61,0-1.15-.13-1.62-.4-.47-.27-.84-.66-1.11-1.18-.27-.52-.4-1.15-.4-1.89,0-1.13.27-2,.8-2.6s1.26-.91,2.16-.91c.57,0,1.04.12,1.43.37.38.25.69.58.91.99s.35.86.4,1.36,0,.98-.13,1.46h-4.43c.06.43.18.78.38,1.04.2.26.45.45.76.56.3.12.63.17.97.17.18,0,.43-.03.76-.08s.68-.17,1.07-.35l.38.91c-.52.25-.96.4-1.33.46-.36.06-.7.09-1,.09ZM174.6,78.55h3.6c.03-.38-.02-.72-.14-1.04s-.33-.57-.61-.77c-.28-.2-.61-.29-1.01-.29s-.71.1-.99.29c-.28.2-.49.45-.63.77-.14.32-.22.66-.22,1.04Z"/>
          <path class="cls-5" d="M183.94,82.38c-.98,0-1.75-.29-2.31-.89-.56-.6-.83-1.46-.83-2.57s.27-1.97.8-2.59c.54-.62,1.28-.93,2.24-.93.51,0,.97.13,1.38.4.41.27.72.64.92,1.11l-.89.42c-.14-.28-.33-.5-.58-.65s-.53-.23-.84-.23c-.61,0-1.08.22-1.43.65s-.52,1.04-.52,1.81.18,1.35.53,1.78c.36.43.86.64,1.51.64.37,0,.7-.07.99-.2.29-.14.57-.32.83-.54l.58.85c-.3.29-.66.51-1.08.68-.42.16-.86.25-1.32.26Z"/>
          <path class="cls-5" d="M192.61,82.18l-2.4-2.99-.74.82v2.17h-1.14v-9h1.14v5.26l2.62-2.86h1.32v.12l-2.48,2.71,2.98,3.65v.12h-1.28Z"/>
          <path class="cls-5" d="M195.4,81.34l.71-.8c.31.22.64.4,1,.55.35.15.7.22,1.04.22.46,0,.8-.08,1.03-.23.23-.15.35-.35.35-.59s-.09-.43-.28-.59c-.19-.16-.43-.3-.72-.43s-.6-.25-.93-.37-.64-.26-.94-.41c-.3-.16-.54-.35-.72-.58-.18-.23-.28-.51-.28-.85,0-.3.08-.57.23-.8.15-.23.35-.43.6-.59s.52-.28.81-.36.58-.12.86-.12c.48,0,.9.08,1.26.25.36.16.71.4,1.06.7l-.7.77c-.26-.21-.52-.37-.77-.49s-.53-.17-.85-.17c-.34,0-.65.07-.93.22s-.42.34-.44.57c0,.18.08.33.26.46.18.13.42.26.72.38s.61.25.94.39c.33.14.64.29.94.47.29.18.53.39.73.64.19.25.29.54.29.89,0,.57-.22,1.02-.66,1.37-.44.34-1.06.52-1.86.52-.52,0-1.02-.1-1.51-.29-.49-.2-.9-.44-1.24-.73Z"/>
          <path class="cls-5" d="M204.37,82.38c-.34,0-.66-.1-.94-.26s-.51-.45-.67-.83c-.16-.39-.24-.91-.24-1.57v-4.13h1.14v3.52c0,.41.03.77.08,1.09.05.32.15.57.3.75.15.18.37.28.67.28.27,0,.55-.06.85-.19s.62-.34.98-.65v-4.79h1.12v5.03c0,.22.05.38.14.5.1.12.27.18.52.2v.97c-.5.02-.88-.04-1.12-.2-.24-.16-.42-.39-.53-.7-.34.27-.7.51-1.09.71-.39.2-.79.3-1.21.29Z"/>
          <path class="cls-5" d="M209.44,82.18c-.05-.98-.08-2.05-.08-3.19,0-1.14.01-2.29.06-3.46h.95l.08.62c.22-.23.45-.42.71-.56.26-.14.5-.21.72-.21.25,0,.45.07.62.21s.28.33.35.56c.2-.22.43-.41.68-.55.26-.14.5-.22.72-.22.35,0,.64.13.85.38.22.25.34.61.36,1.09.07,1.74.06,3.51-.04,5.33h-1.1c.03-.58.05-1.16.07-1.75s.02-1.16.02-1.72,0-1.05-.02-1.5c0-.26-.04-.46-.11-.62-.06-.16-.21-.24-.43-.24-.15,0-.31.07-.48.22-.17.15-.31.31-.43.49l-.07,4.2h-.89l-.06-4.09c0-.26-.05-.46-.13-.6-.08-.14-.21-.22-.39-.22-.16,0-.32.07-.49.21s-.32.3-.46.49c-.03.81-.04,1.65-.01,2.51.02.87.06,1.74.1,2.62h-1.1Z"/>
          <path class="cls-5" d="M241.79,72.99v11.11h-1.13v-11.11h1.13Z"/>
          <path class="cls-5" d="M25.76,93.51h-1.06v-2.5h-2.2v-1.03h2.2v-2.5h1.06v2.5h2.2v1.03h-2.2v2.5Z"/>
          <path class="cls-5" d="M34.8,89.98v1.03h-4.75v-1.03h4.75Z"/>
          <path class="cls-5" d="M42,89.98v1.03h-4.75v-1.03h4.75Z"/>
          <path class="cls-5" d="M49.2,89.98v1.03h-4.75v-1.03h4.75Z"/>
          <path class="cls-5" d="M56.4,89.98v1.03h-4.75v-1.03h4.75Z"/>
          <path class="cls-5" d="M63.6,89.98v1.03h-4.75v-1.03h4.75Z"/>
          <path class="cls-5" d="M70.8,89.98v1.03h-4.75v-1.03h4.75Z"/>
          <path class="cls-5" d="M78,89.98v1.03h-4.75v-1.03h4.75Z"/>
          <path class="cls-5" d="M85.2,89.98v1.03h-4.75v-1.03h4.75Z"/>
          <path class="cls-5" d="M92.4,89.98v1.03h-4.75v-1.03h4.75Z"/>
          <path class="cls-5" d="M99.6,89.98v1.03h-4.75v-1.03h4.75Z"/>
          <path class="cls-5" d="M106.8,89.98v1.03h-4.75v-1.03h4.75Z"/>
          <path class="cls-5" d="M114,89.98v1.03h-4.75v-1.03h4.75Z"/>
          <path class="cls-5" d="M121.2,89.98v1.03h-4.75v-1.03h4.75Z"/>
          <path class="cls-5" d="M128.4,89.98v1.03h-4.75v-1.03h4.75Z"/>
          <path class="cls-5" d="M135.6,89.98v1.03h-4.75v-1.03h4.75Z"/>
          <path class="cls-5" d="M142.8,89.98v1.03h-4.75v-1.03h4.75Z"/>
          <path class="cls-5" d="M150,89.98v1.03h-4.75v-1.03h4.75Z"/>
          <path class="cls-5" d="M157.2,89.98v1.03h-4.75v-1.03h4.75Z"/>
          <path class="cls-5" d="M164.4,89.98v1.03h-4.75v-1.03h4.75Z"/>
          <path class="cls-5" d="M171.6,89.98v1.03h-4.75v-1.03h4.75Z"/>
          <path class="cls-5" d="M178.8,89.98v1.03h-4.75v-1.03h4.75Z"/>
          <path class="cls-5" d="M186,89.98v1.03h-4.75v-1.03h4.75Z"/>
          <path class="cls-5" d="M193.2,89.98v1.03h-4.75v-1.03h4.75Z"/>
          <path class="cls-5" d="M200.4,89.98v1.03h-4.75v-1.03h4.75Z"/>
          <path class="cls-5" d="M207.6,89.98v1.03h-4.75v-1.03h4.75Z"/>
          <path class="cls-5" d="M214.8,89.98v1.03h-4.75v-1.03h4.75Z"/>
          <path class="cls-5" d="M222,89.98v1.03h-4.75v-1.03h4.75Z"/>
          <path class="cls-5" d="M229.2,89.98v1.03h-4.75v-1.03h4.75Z"/>
          <path class="cls-5" d="M236.4,89.98v1.03h-4.75v-1.03h4.75Z"/>
          <path class="cls-5" d="M241.75,93.51h-1.06v-2.5h-2.2v-1.03h2.2v-2.5h1.06v2.5h2.2v1.03h-2.2v2.5Z"/>
          <path class="cls-5" d="M25.79,96.99v11.11h-1.13v-11.11h1.13Z"/>
          <path class="cls-5" d="M241.79,96.99v11.11h-1.13v-11.11h1.13Z"/>
          <path class="cls-5" d="M25.79,108.99v11.11h-1.13v-11.11h1.13Z"/>
          <path class="cls-5" d="M241.79,108.99v11.11h-1.13v-11.11h1.13Z"/>
          <path class="cls-5" d="M25.79,120.99v11.11h-1.13v-11.11h1.13Z"/>
          <path class="cls-5" d="M118.93,130.39c-.54,0-1.03-.15-1.49-.44s-.82-.7-1.1-1.22c-.28-.52-.41-1.13-.41-1.82,0-.74.12-1.36.37-1.87.25-.51.58-.89.99-1.16.41-.26.86-.4,1.34-.4.26,0,.51.05.74.14.23.09.44.22.61.38v-2.82h1.1v7.43c0,.44.25.67.74.7v.97c-.6.02-1.05-.09-1.36-.31-.22.12-.45.22-.71.3-.26.08-.54.12-.83.12ZM118.93,129.34c.4,0,.75-.06,1.06-.19v-4.1c-.13-.15-.29-.27-.5-.37s-.41-.14-.63-.14c-.62,0-1.08.21-1.38.63s-.44,1-.44,1.73c0,.49.08.92.25,1.28s.39.65.68.85c.28.2.61.3.97.3Z"/>
          <path class="cls-5" d="M128.33,128.61c0,.22.04.38.13.5.09.12.26.18.5.2v.97c-.45.02-.79-.03-1.03-.15-.24-.12-.41-.29-.53-.53-.19.22-.45.4-.76.55-.32.15-.73.23-1.25.23-.33,0-.66-.07-.99-.22-.33-.15-.61-.37-.83-.68s-.33-.69-.33-1.16c0-.44.09-.8.27-1.09.18-.29.42-.52.72-.68s.63-.29.98-.37c.35-.08.7-.12,1.04-.14.34-.02.66-.02.94,0v-.17c0-.3-.03-.56-.09-.77-.06-.21-.18-.36-.37-.47-.19-.1-.49-.16-.89-.16-.26,0-.51.03-.76.08-.25.05-.54.16-.86.32l-.54-.9c.4-.2.8-.34,1.19-.43.4-.09.78-.13,1.16-.13.21,0,.44.02.71.05s.52.11.76.23.44.3.6.55.23.58.23,1.01v3.38ZM124.26,128.25c0,.33.13.58.38.77.25.18.53.28.85.28.48,0,.85-.1,1.11-.31.26-.2.46-.43.59-.68v-1.34c-.31-.02-.64-.03-.98-.02-.34.01-.66.06-.95.14s-.54.21-.72.4c-.18.18-.28.44-.28.77Z"/>
          <path class="cls-5" d="M133.73,130.18c-.42,0-.74-.1-.95-.31s-.35-.47-.43-.79c-.07-.32-.11-.67-.11-1.03v-3.42h-1.79v-1.06h1.79v-1.55h1.14v1.55h2.39v1.06h-2.39v3.42c0,.16.02.32.05.49s.12.3.26.4c.14.1.34.16.62.16h1.42v1.08h-2Z"/>
          <path class="cls-5" d="M142.73,128.61c0,.22.04.38.13.5.09.12.26.18.5.2v.97c-.45.02-.79-.03-1.03-.15-.24-.12-.41-.29-.53-.53-.19.22-.45.4-.76.55-.32.15-.73.23-1.25.23-.33,0-.66-.07-.99-.22-.33-.15-.61-.37-.83-.68s-.33-.69-.33-1.16c0-.44.09-.8.27-1.09.18-.29.42-.52.72-.68s.63-.29.98-.37c.35-.08.7-.12,1.04-.14.34-.02.66-.02.94,0v-.17c0-.3-.03-.56-.09-.77-.06-.21-.18-.36-.37-.47-.19-.1-.49-.16-.89-.16-.26,0-.51.03-.76.08-.25.05-.54.16-.86.32l-.54-.9c.4-.2.8-.34,1.19-.43.4-.09.78-.13,1.16-.13.21,0,.44.02.71.05s.52.11.76.23.44.3.6.55.23.58.23,1.01v3.38ZM138.66,128.25c0,.33.13.58.38.77.25.18.53.28.85.28.48,0,.85-.1,1.11-.31.26-.2.46-.43.59-.68v-1.34c-.31-.02-.64-.03-.98-.02-.34.01-.66.06-.95.14s-.54.21-.72.4c-.18.18-.28.44-.28.77Z"/>
          <path class="cls-5" d="M241.79,120.99v11.11h-1.13v-11.11h1.13Z"/>
          <path class="cls-5" d="M25.79,132.99v11.11h-1.13v-11.11h1.13Z"/>
          <path class="cls-5" d="M241.79,132.99v11.11h-1.13v-11.11h1.13Z"/>
          <path class="cls-5" d="M25.79,144.99v11.11h-1.13v-11.11h1.13Z"/>
          <path class="cls-5" d="M241.79,144.99v11.11h-1.13v-11.11h1.13Z"/>
        </g>
        <g>
          <path class="cls-4" d="M40.3,78.83h4.66v20.78c0,2.66-.36,4.89-1.08,6.7-.72,1.81-1.66,3.25-2.81,4.32-1.15,1.07-2.42,1.84-3.82,2.3-1.39.46-2.78.7-4.15.7s-2.76-.23-4.15-.7c-1.39-.46-2.66-1.23-3.82-2.3-1.15-1.07-2.09-2.51-2.81-4.32s-1.08-4.04-1.08-6.7v-20.78h4.66v20.78c0,2.21.34,3.99,1.01,5.35.67,1.36,1.55,2.36,2.64,3,1.09.64,2.27.96,3.55.96s2.46-.32,3.55-.96c1.09-.64,1.97-1.64,2.64-3,.67-1.36,1.01-3.14,1.01-5.35v-20.78Z"/>
          <path class="cls-4" d="M50.38,112.91v-34.08h9.41c1.89,0,3.7.28,5.42.84,1.73.56,3.27,1.46,4.63,2.71s2.43,2.89,3.22,4.92c.78,2.03,1.18,4.54,1.18,7.51,0,3.78-.58,7.02-1.73,9.72-1.15,2.7-2.83,4.78-5.04,6.22-2.21,1.44-4.85,2.16-7.92,2.16h-9.17ZM54.94,108.69h4.61c2.02,0,3.68-.41,4.99-1.22,1.31-.82,2.34-1.9,3.1-3.26.75-1.36,1.29-2.86,1.61-4.49.32-1.63.48-3.26.48-4.9,0-3.81-.9-6.72-2.71-8.74s-4.22-3.02-7.22-3.02h-4.85v25.63Z"/>
          <path class="cls-4" d="M79.18,112.91v-34.08h12.67c3.78,0,6.54.98,8.3,2.93,1.76,1.95,2.64,4.56,2.64,7.82s-.9,5.87-2.71,7.82c-1.81,1.95-4.55,2.93-8.23,2.93h-8.11v12.58h-4.56ZM83.74,96.12h8.11c2.21,0,3.84-.62,4.9-1.87,1.06-1.25,1.58-2.8,1.58-4.66,0-1.98-.53-3.57-1.58-4.75-1.06-1.18-2.69-1.78-4.9-1.78h-8.11v13.06Z"/>
          <path class="cls-4" d="M122.33,76.91h4.7v.48l-12.34,41.28h-4.66v-.48l12.29-41.28Z"/>
          <path class="cls-4" d="M138.12,112.91v-4.22h8.54v-22.22c-2.05,1.5-4.37,2.59-6.96,3.26l-1.92-4.37c1.86-.42,3.71-1.2,5.57-2.35,1.86-1.15,3.31-2.54,4.37-4.18h3.6v29.86h7.82v4.22h-21.02Z"/>
          <path class="cls-4" d="M165.91,88.63c0-2.02.42-3.82,1.25-5.4s2.06-2.84,3.67-3.77c1.62-.93,3.56-1.39,5.83-1.39s4.08.5,5.71,1.51c1.63,1.01,2.91,2.45,3.84,4.32s1.39,4.14,1.39,6.79c0,4.54-1.09,8.68-3.26,12.41-2.18,3.73-5.25,7.24-9.22,10.54l-3.02-3.31c1.73-1.28,3.38-2.78,4.94-4.49,1.57-1.71,2.9-3.47,4.01-5.28,1.1-1.81,1.8-3.48,2.09-5.02-1.54,2.53-4,3.79-7.39,3.79-1.86,0-3.53-.48-5.02-1.44s-2.66-2.25-3.53-3.86c-.86-1.62-1.3-3.42-1.3-5.4ZM176.52,95.11c1.82,0,3.32-.61,4.49-1.82,1.17-1.22,1.75-2.75,1.75-4.61s-.58-3.34-1.75-4.56c-1.17-1.22-2.66-1.82-4.49-1.82s-3.26.59-4.42,1.78c-1.15,1.18-1.73,2.72-1.73,4.61s.58,3.47,1.73,4.66c1.15,1.18,2.62,1.78,4.42,1.78Z"/>
          <path class="cls-4" d="M205.7,113.68c-1.34,0-2.68-.18-4.01-.53-1.33-.35-2.54-.91-3.62-1.68-1.09-.77-1.97-1.79-2.64-3.07-.67-1.28-1.01-2.85-1.01-4.7,0-1.41.29-2.68.86-3.82.58-1.14,1.32-2.1,2.23-2.9.91-.8,1.88-1.36,2.9-1.68-1.44-.77-2.62-1.77-3.53-3-.91-1.23-1.37-2.97-1.37-5.21,0-1.41.35-2.8,1.06-4.18.7-1.38,1.8-2.52,3.29-3.43s3.43-1.37,5.83-1.37,4.39.46,5.88,1.37,2.58,2.06,3.26,3.43c.69,1.38,1.03,2.77,1.03,4.18,0,2.24-.45,3.98-1.34,5.21-.9,1.23-2.08,2.23-3.55,3,1.06.32,2.03.88,2.93,1.68.9.8,1.63,1.77,2.21,2.9.58,1.14.86,2.41.86,3.82,0,1.86-.33,3.42-.98,4.7-.66,1.28-1.54,2.3-2.64,3.07-1.1.77-2.32,1.33-3.65,1.68s-2.66.53-4.01.53ZM198.98,103.51c0,1.86.57,3.31,1.7,4.37,1.13,1.06,2.81,1.58,5.02,1.58s3.88-.53,5.02-1.58,1.7-2.51,1.7-4.37c0-1.7-.62-3.1-1.85-4.2-1.23-1.1-2.86-1.66-4.87-1.66s-3.6.55-4.85,1.66-1.87,2.5-1.87,4.2ZM200.04,87.62c0,1.66.52,2.99,1.56,3.98,1.04.99,2.42,1.49,4.15,1.49s3.11-.5,4.15-1.49c1.04-.99,1.56-2.32,1.56-3.98,0-.77-.18-1.56-.53-2.38-.35-.82-.94-1.5-1.78-2.06-.83-.56-1.98-.84-3.46-.84s-2.58.28-3.41.84c-.83.56-1.42,1.25-1.75,2.06s-.5,1.61-.5,2.38Z"/>
          <path class="cls-4" d="M243.62,83.06h-14.02v10.66c.77-.74,1.7-1.32,2.78-1.75,1.09-.43,2.29-.65,3.6-.65,1.66,0,3.19.46,4.58,1.37,1.39.91,2.51,2.18,3.36,3.82s1.27,3.54,1.27,5.71-.44,4.27-1.32,6c-.88,1.73-2.11,3.07-3.7,4.03-1.58.96-3.43,1.44-5.54,1.44s-3.83-.33-5.45-.98c-1.62-.66-3.3-1.75-5.06-3.29l3.02-2.98c1.06,1.03,2.14,1.79,3.26,2.28,1.12.5,2.43.74,3.94.74,1.73,0,3.22-.64,4.46-1.92,1.25-1.28,1.87-3.06,1.87-5.33,0-1.98-.51-3.6-1.54-4.85-1.02-1.25-2.38-1.87-4.08-1.87-.93,0-1.86.14-2.81.43-.94.29-1.83.67-2.66,1.15h-4.13v-18.24h18.14v4.22Z"/>
        </g>
        <circle class="cls-1" cx="238.11" cy="28.35" r="8.5"/>
      </g>
    </g>
  </g>
</svg>