<?xml version="1.0" encoding="UTF-8"?>
<svg id="_レイヤー_2" data-name="レイヤー 2" xmlns="http://www.w3.org/2000/svg" xmlns:xlink="http://www.w3.org/1999/xlink" viewBox="0 0 249.45 178.58">
  <defs>
    <style>
      .cls-1 {
        fill: #ccc;
      }

      .cls-2 {
        fill: none;
      }

      .cls-3 {
        fill: #c13d47;
      }

      .cls-4 {
        fill: #323333;
      }

      .cls-5 {
        fill: #b2b2b2;
      }

      .cls-6 {
        clip-path: url(#clippath);
      }
    </style>
    <clipPath id="clippath">
      <rect class="cls-2" width="249.45" height="178.58" rx="8.5" ry="8.5"/>
    </clipPath>
  </defs>
  <g id="_印刷" data-name="印刷">
    <g id="_裏" data-name="裏">
      <g class="cls-6">
        <rect class="cls-1" x="26.93" y="-43.94" width="195.59" height="266.46" transform="translate(214.02 -35.43) rotate(90)"/>
        <g>
          <path class="cls-5" d="M17.26,19.01h-1.06v-2.5h-2.2v-1.03h2.2v-2.5h1.06v2.5h2.2v1.03h-2.2v2.5Z"/>
          <path class="cls-5" d="M26.3,15.48v1.03h-4.75v-1.03h4.75Z"/>
          <path class="cls-5" d="M33.5,15.48v1.03h-4.75v-1.03h4.75Z"/>
          <path class="cls-5" d="M40.7,15.48v1.03h-4.75v-1.03h4.75Z"/>
          <path class="cls-5" d="M47.9,15.48v1.03h-4.75v-1.03h4.75Z"/>
          <path class="cls-5" d="M55.1,15.48v1.03h-4.75v-1.03h4.75Z"/>
          <path class="cls-5" d="M62.3,15.48v1.03h-4.75v-1.03h4.75Z"/>
          <path class="cls-5" d="M69.5,15.48v1.03h-4.75v-1.03h4.75Z"/>
          <path class="cls-5" d="M76.7,15.48v1.03h-4.75v-1.03h4.75Z"/>
          <path class="cls-5" d="M83.9,15.48v1.03h-4.75v-1.03h4.75Z"/>
          <path class="cls-5" d="M91.1,15.48v1.03h-4.75v-1.03h4.75Z"/>
          <path class="cls-5" d="M98.3,15.48v1.03h-4.75v-1.03h4.75Z"/>
          <path class="cls-5" d="M105.5,15.48v1.03h-4.75v-1.03h4.75Z"/>
          <path class="cls-5" d="M112.7,15.48v1.03h-4.75v-1.03h4.75Z"/>
          <path class="cls-5" d="M119.9,15.48v1.03h-4.75v-1.03h4.75Z"/>
          <path class="cls-5" d="M125.25,19.01h-1.06v-2.5h-2.2v-1.03h2.2v-2.5h1.06v2.5h2.2v1.03h-2.2v2.5Z"/>
          <path class="cls-5" d="M134.3,15.48v1.03h-4.75v-1.03h4.75Z"/>
          <path class="cls-5" d="M141.5,15.48v1.03h-4.75v-1.03h4.75Z"/>
          <path class="cls-5" d="M148.7,15.48v1.03h-4.75v-1.03h4.75Z"/>
          <path class="cls-5" d="M155.9,15.48v1.03h-4.75v-1.03h4.75Z"/>
          <path class="cls-5" d="M163.1,15.48v1.03h-4.75v-1.03h4.75Z"/>
          <path class="cls-5" d="M170.3,15.48v1.03h-4.75v-1.03h4.75Z"/>
          <path class="cls-5" d="M177.5,15.48v1.03h-4.75v-1.03h4.75Z"/>
          <path class="cls-5" d="M184.7,15.48v1.03h-4.75v-1.03h4.75Z"/>
          <path class="cls-5" d="M191.9,15.48v1.03h-4.75v-1.03h4.75Z"/>
          <path class="cls-5" d="M199.1,15.48v1.03h-4.75v-1.03h4.75Z"/>
          <path class="cls-5" d="M206.3,15.48v1.03h-4.75v-1.03h4.75Z"/>
          <path class="cls-5" d="M213.5,15.48v1.03h-4.75v-1.03h4.75Z"/>
          <path class="cls-5" d="M220.7,15.48v1.03h-4.75v-1.03h4.75Z"/>
          <path class="cls-5" d="M227.9,15.48v1.03h-4.75v-1.03h4.75Z"/>
          <path class="cls-5" d="M233.25,19.01h-1.06v-2.5h-2.2v-1.03h2.2v-2.5h1.06v2.5h2.2v1.03h-2.2v2.5Z"/>
          <path class="cls-5" d="M17.29,22.49v11.11h-1.13v-11.11h1.13Z"/>
          <path class="cls-5" d="M57.3,30.84l.71-.8c.31.22.64.4,1,.55.35.15.7.22,1.04.22.46,0,.8-.08,1.03-.23.23-.15.35-.35.35-.59s-.09-.43-.28-.59c-.19-.16-.43-.3-.72-.43s-.6-.25-.93-.37-.64-.26-.94-.41-.54-.35-.72-.58c-.18-.23-.28-.51-.28-.85,0-.3.08-.57.23-.8.15-.23.35-.43.6-.59s.52-.28.81-.36.58-.12.86-.12c.48,0,.9.08,1.26.25.36.16.71.4,1.06.7l-.7.77c-.26-.21-.52-.37-.77-.49-.25-.12-.53-.17-.85-.17-.34,0-.65.07-.93.22-.28.15-.42.34-.44.57,0,.18.08.33.26.46.18.13.42.26.72.38s.61.25.94.39.64.29.94.47c.29.18.53.39.73.64.19.25.29.54.29.89,0,.57-.22,1.02-.66,1.37-.44.34-1.06.52-1.86.52-.52,0-1.02-.1-1.51-.29-.49-.2-.9-.44-1.24-.73Z"/>
          <path class="cls-5" d="M64.31,31.68v-.98h1.3v-4.82l-1.06-.19v-.7h2.04l.12.88c.28-.26.58-.49.89-.69.31-.2.65-.29,1.01-.28.34,0,.65.09.93.23.28.15.5.36.65.64l-.82.71c-.13-.16-.28-.28-.47-.36-.18-.08-.38-.12-.58-.12-.26,0-.52.09-.77.28s-.52.42-.81.71v3.72h2.39v.98h-4.82Z"/>
          <path class="cls-5" d="M74.64,31.87c-.98,0-1.75-.29-2.31-.89s-.83-1.46-.83-2.57.27-1.97.8-2.59c.54-.62,1.28-.93,2.24-.93.51,0,.97.13,1.38.4.41.27.72.64.92,1.11l-.89.42c-.14-.28-.33-.5-.58-.65-.25-.15-.53-.23-.84-.23-.61,0-1.08.22-1.43.65-.34.43-.52,1.04-.52,1.81s.18,1.35.53,1.78c.36.43.86.64,1.51.64.37,0,.7-.07.99-.2.29-.14.57-.32.83-.54l.58.85c-.3.29-.66.51-1.08.68s-.86.25-1.32.26Z"/>
          <path class="cls-5" d="M125.29,22.49v11.11h-1.13v-11.11h1.13Z"/>
          <path class="cls-5" d="M172.51,24.12c.37-.34.78-.62,1.25-.82.46-.2.98-.31,1.54-.31.48,0,.9.11,1.27.33.37.22.65.52.86.89.2.37.31.79.31,1.25,0,.5-.08.93-.23,1.28-.16.35-.35.66-.59.94-.24.27-.47.54-.71.8l-1.96,2.14h3.73v1.06h-5.32v-1.06l2.04-2.14c.29-.3.58-.59.87-.88.29-.29.54-.6.73-.94s.29-.69.29-1.09c0-.42-.13-.78-.4-1.08-.27-.3-.64-.44-1.11-.44-.32,0-.65.07-.99.22-.34.15-.65.35-.94.61l-.64-.77Z"/>
          <path class="cls-5" d="M184.93,29.34c0,.5-.1.93-.31,1.31s-.5.68-.89.89c-.38.22-.84.32-1.37.32-.61,0-1.12-.08-1.52-.23-.41-.15-.82-.38-1.22-.67l.58-.89c.26.2.55.37.87.52.32.14.68.22,1.09.22.54,0,.95-.15,1.23-.44.28-.3.41-.64.41-1.03,0-.42-.16-.78-.49-1.06-.32-.28-.77-.43-1.35-.43h-.62v-1.03h.65c.56,0,.97-.14,1.24-.42.26-.28.4-.64.4-1.08s-.14-.74-.41-.95-.61-.32-1-.32c-.28,0-.57.07-.88.22-.31.14-.59.34-.83.6l-.76-.74c.71-.75,1.58-1.13,2.62-1.13.46,0,.88.09,1.24.28s.65.44.86.78.31.73.31,1.19c0,.42-.09.82-.28,1.18-.19.36-.47.66-.83.88.37.17.68.43.92.8s.37.78.37,1.24Z"/>
          <path class="cls-5" d="M233.29,22.49v11.11h-1.13v-11.11h1.13Z"/>
          <path class="cls-5" d="M17.26,43.01h-1.06v-2.5h-2.2v-1.03h2.2v-2.5h1.06v2.5h2.2v1.03h-2.2v2.5Z"/>
          <path class="cls-5" d="M26.3,39.48v1.03h-4.75v-1.03h4.75Z"/>
          <path class="cls-5" d="M33.5,39.48v1.03h-4.75v-1.03h4.75Z"/>
          <path class="cls-5" d="M40.7,39.48v1.03h-4.75v-1.03h4.75Z"/>
          <path class="cls-5" d="M47.9,39.48v1.03h-4.75v-1.03h4.75Z"/>
          <path class="cls-5" d="M55.1,39.48v1.03h-4.75v-1.03h4.75Z"/>
          <path class="cls-5" d="M62.3,39.48v1.03h-4.75v-1.03h4.75Z"/>
          <path class="cls-5" d="M69.5,39.48v1.03h-4.75v-1.03h4.75Z"/>
          <path class="cls-5" d="M76.7,39.48v1.03h-4.75v-1.03h4.75Z"/>
          <path class="cls-5" d="M83.9,39.48v1.03h-4.75v-1.03h4.75Z"/>
          <path class="cls-5" d="M91.1,39.48v1.03h-4.75v-1.03h4.75Z"/>
          <path class="cls-5" d="M98.3,39.48v1.03h-4.75v-1.03h4.75Z"/>
          <path class="cls-5" d="M105.5,39.48v1.03h-4.75v-1.03h4.75Z"/>
          <path class="cls-5" d="M112.7,39.48v1.03h-4.75v-1.03h4.75Z"/>
          <path class="cls-5" d="M119.9,39.48v1.03h-4.75v-1.03h4.75Z"/>
          <path class="cls-5" d="M125.25,43.01h-1.06v-2.5h-2.2v-1.03h2.2v-2.5h1.06v2.5h2.2v1.03h-2.2v2.5Z"/>
          <path class="cls-5" d="M134.3,39.48v1.03h-4.75v-1.03h4.75Z"/>
          <path class="cls-5" d="M141.5,39.48v1.03h-4.75v-1.03h4.75Z"/>
          <path class="cls-5" d="M148.7,39.48v1.03h-4.75v-1.03h4.75Z"/>
          <path class="cls-5" d="M155.9,39.48v1.03h-4.75v-1.03h4.75Z"/>
          <path class="cls-5" d="M163.1,39.48v1.03h-4.75v-1.03h4.75Z"/>
          <path class="cls-5" d="M170.3,39.48v1.03h-4.75v-1.03h4.75Z"/>
          <path class="cls-5" d="M177.5,39.48v1.03h-4.75v-1.03h4.75Z"/>
          <path class="cls-5" d="M184.7,39.48v1.03h-4.75v-1.03h4.75Z"/>
          <path class="cls-5" d="M191.9,39.48v1.03h-4.75v-1.03h4.75Z"/>
          <path class="cls-5" d="M199.1,39.48v1.03h-4.75v-1.03h4.75Z"/>
          <path class="cls-5" d="M206.3,39.48v1.03h-4.75v-1.03h4.75Z"/>
          <path class="cls-5" d="M213.5,39.48v1.03h-4.75v-1.03h4.75Z"/>
          <path class="cls-5" d="M220.7,39.48v1.03h-4.75v-1.03h4.75Z"/>
          <path class="cls-5" d="M227.9,39.48v1.03h-4.75v-1.03h4.75Z"/>
          <path class="cls-5" d="M233.25,43.01h-1.06v-2.5h-2.2v-1.03h2.2v-2.5h1.06v2.5h2.2v1.03h-2.2v2.5Z"/>
          <path class="cls-5" d="M17.29,46.49v11.11h-1.13v-11.11h1.13Z"/>
          <path class="cls-5" d="M93.3,54.84l.71-.8c.31.22.64.4,1,.55.35.15.7.22,1.04.22.46,0,.8-.08,1.03-.23.23-.15.35-.35.35-.59s-.09-.43-.28-.59c-.19-.16-.43-.3-.72-.43s-.6-.25-.93-.37-.64-.26-.94-.41c-.3-.16-.54-.35-.72-.58-.18-.23-.28-.51-.28-.85,0-.3.08-.57.23-.8.15-.23.35-.43.6-.59s.52-.28.81-.36.58-.12.86-.12c.48,0,.9.08,1.26.25.36.16.71.4,1.06.7l-.7.77c-.26-.21-.52-.37-.77-.49s-.53-.17-.85-.17c-.34,0-.65.07-.93.22s-.42.34-.44.57c0,.18.08.33.26.46.18.13.42.26.72.38s.61.25.94.39c.33.14.64.29.94.47.29.18.53.39.73.64.19.25.29.54.29.89,0,.57-.22,1.02-.66,1.37-.44.34-1.06.52-1.86.52-.52,0-1.02-.1-1.51-.29-.49-.2-.9-.44-1.24-.73Z"/>
          <path class="cls-5" d="M103.34,55.87c-.61,0-1.15-.13-1.62-.4-.47-.27-.84-.66-1.11-1.18-.27-.52-.4-1.15-.4-1.89,0-1.13.27-2,.8-2.6s1.26-.91,2.16-.91c.57,0,1.04.12,1.43.37.38.25.69.58.91.99s.35.86.4,1.36,0,.98-.13,1.46h-4.43c.06.43.18.78.38,1.04.2.26.45.45.76.56.3.12.63.17.97.17.18,0,.43-.03.76-.08s.68-.17,1.07-.35l.38.91c-.52.25-.96.4-1.33.46-.36.06-.7.09-1,.09ZM101.3,52.04h3.6c.03-.38-.02-.72-.14-1.04s-.33-.57-.61-.77c-.28-.2-.61-.29-1.01-.29s-.71.1-.99.29c-.28.2-.49.45-.63.77-.14.32-.22.66-.22,1.04Z"/>
          <path class="cls-5" d="M113.03,58.08c-.41,0-.72-.08-.92-.23s-.35-.39-.42-.7c-.07-.31-.11-.68-.11-1.12v-1.27c-.15.22-.37.43-.65.63s-.61.29-.99.29c-.42,0-.78-.1-1.1-.29-.32-.2-.58-.46-.79-.79s-.36-.69-.47-1.09c-.1-.4-.16-.81-.16-1.22,0-.6.1-1.16.29-1.67.19-.52.47-.93.84-1.25.37-.32.83-.47,1.38-.47.37,0,.68.08.95.23.26.16.5.35.71.59l.1-.73h1v7.02c0,.4.04.67.13.8s.29.21.61.22v1.06h-.38ZM110.06,54.62c.34,0,.64-.12.9-.37.26-.25.47-.54.61-.89v-2.23c-.13-.34-.32-.63-.59-.86-.26-.23-.57-.34-.92-.34-.38,0-.69.12-.91.36-.22.24-.38.54-.48.9-.1.36-.14.72-.14,1.09,0,.24.03.5.08.77.06.27.14.53.26.76.12.24.27.43.47.58.2.15.44.23.73.23Z"/>
          <path class="cls-5" d="M116.67,55.87c-.34,0-.66-.1-.94-.26s-.51-.45-.67-.83c-.16-.39-.24-.91-.24-1.57v-4.13h1.14v3.52c0,.41.03.77.08,1.09.05.32.15.57.3.75.15.18.37.28.67.28.27,0,.55-.06.85-.19s.62-.34.98-.65v-4.79h1.12v5.03c0,.22.05.38.14.5.1.12.27.18.52.2v.97c-.5.02-.88-.04-1.12-.2-.24-.16-.42-.39-.53-.7-.34.27-.7.51-1.09.71-.39.2-.79.3-1.21.29Z"/>
          <path class="cls-5" d="M124.94,55.87c-.61,0-1.15-.13-1.62-.4-.47-.27-.84-.66-1.11-1.18-.27-.52-.4-1.15-.4-1.89,0-1.13.27-2,.8-2.6s1.26-.91,2.16-.91c.57,0,1.04.12,1.43.37.38.25.69.58.91.99s.35.86.4,1.36,0,.98-.13,1.46h-4.43c.06.43.18.78.38,1.04.2.26.45.45.76.56.3.12.63.17.97.17.18,0,.43-.03.76-.08s.68-.17,1.07-.35l.38.91c-.52.25-.96.4-1.33.46-.36.06-.7.09-1,.09ZM122.9,52.04h3.6c.03-.38-.02-.72-.14-1.04s-.33-.57-.61-.77c-.28-.2-.61-.29-1.01-.29s-.71.1-.99.29c-.28.2-.49.45-.63.77-.14.32-.22.66-.22,1.04Z"/>
          <path class="cls-5" d="M129.35,55.68v-6.65h1l.11.8c.34-.27.73-.5,1.15-.68.42-.18.84-.27,1.24-.26.29,0,.56.07.82.22.26.15.46.39.62.72.16.33.23.77.23,1.33v4.52h-1.15v-4.33c0-.46-.08-.8-.23-1-.15-.2-.38-.31-.68-.31-.27,0-.57.07-.89.21-.32.14-.69.37-1.09.7v4.73h-1.12Z"/>
          <path class="cls-5" d="M139.44,55.87c-.98,0-1.75-.29-2.31-.89-.56-.6-.83-1.46-.83-2.57s.27-1.97.8-2.59c.54-.62,1.28-.93,2.24-.93.51,0,.97.13,1.38.4.41.27.72.64.92,1.11l-.89.42c-.14-.28-.33-.5-.58-.65s-.53-.23-.84-.23c-.61,0-1.08.22-1.43.65s-.52,1.04-.52,1.81.18,1.35.53,1.78c.36.43.86.64,1.51.64.37,0,.7-.07.99-.2.29-.14.57-.32.83-.54l.58.85c-.3.29-.66.51-1.08.68-.42.16-.86.25-1.32.26Z"/>
          <path class="cls-5" d="M146.54,55.87c-.61,0-1.15-.13-1.62-.4-.47-.27-.84-.66-1.11-1.18-.27-.52-.4-1.15-.4-1.89,0-1.13.27-2,.8-2.6s1.26-.91,2.16-.91c.57,0,1.04.12,1.43.37.38.25.69.58.91.99s.35.86.4,1.36,0,.98-.13,1.46h-4.43c.06.43.18.78.38,1.04.2.26.45.45.76.56.3.12.63.17.97.17.18,0,.43-.03.76-.08s.68-.17,1.07-.35l.38.91c-.52.25-.96.4-1.33.46-.36.06-.7.09-1,.09ZM144.5,52.04h3.6c.03-.38-.02-.72-.14-1.04s-.33-.57-.61-.77c-.28-.2-.61-.29-1.01-.29s-.71.1-.99.29c-.28.2-.49.45-.63.77-.14.32-.22.66-.22,1.04Z"/>
          <path class="cls-5" d="M233.29,46.49v11.11h-1.13v-11.11h1.13Z"/>
          <path class="cls-5" d="M17.26,67.01h-1.06v-2.5h-2.2v-1.03h2.2v-2.5h1.06v2.5h2.2v1.03h-2.2v2.5Z"/>
          <path class="cls-5" d="M26.3,63.48v1.03h-4.75v-1.03h4.75Z"/>
          <path class="cls-5" d="M33.5,63.48v1.03h-4.75v-1.03h4.75Z"/>
          <path class="cls-5" d="M40.7,63.48v1.03h-4.75v-1.03h4.75Z"/>
          <path class="cls-5" d="M47.9,63.48v1.03h-4.75v-1.03h4.75Z"/>
          <path class="cls-5" d="M55.1,63.48v1.03h-4.75v-1.03h4.75Z"/>
          <path class="cls-5" d="M62.3,63.48v1.03h-4.75v-1.03h4.75Z"/>
          <path class="cls-5" d="M69.5,63.48v1.03h-4.75v-1.03h4.75Z"/>
          <path class="cls-5" d="M76.7,63.48v1.03h-4.75v-1.03h4.75Z"/>
          <path class="cls-5" d="M83.9,63.48v1.03h-4.75v-1.03h4.75Z"/>
          <path class="cls-5" d="M91.1,63.48v1.03h-4.75v-1.03h4.75Z"/>
          <path class="cls-5" d="M98.3,63.48v1.03h-4.75v-1.03h4.75Z"/>
          <path class="cls-5" d="M105.5,63.48v1.03h-4.75v-1.03h4.75Z"/>
          <path class="cls-5" d="M112.7,63.48v1.03h-4.75v-1.03h4.75Z"/>
          <path class="cls-5" d="M119.9,63.48v1.03h-4.75v-1.03h4.75Z"/>
          <path class="cls-5" d="M127.1,63.48v1.03h-4.75v-1.03h4.75Z"/>
          <path class="cls-5" d="M134.3,63.48v1.03h-4.75v-1.03h4.75Z"/>
          <path class="cls-5" d="M141.5,63.48v1.03h-4.75v-1.03h4.75Z"/>
          <path class="cls-5" d="M148.7,63.48v1.03h-4.75v-1.03h4.75Z"/>
          <path class="cls-5" d="M155.9,63.48v1.03h-4.75v-1.03h4.75Z"/>
          <path class="cls-5" d="M163.1,63.48v1.03h-4.75v-1.03h4.75Z"/>
          <path class="cls-5" d="M170.3,63.48v1.03h-4.75v-1.03h4.75Z"/>
          <path class="cls-5" d="M177.5,63.48v1.03h-4.75v-1.03h4.75Z"/>
          <path class="cls-5" d="M184.7,63.48v1.03h-4.75v-1.03h4.75Z"/>
          <path class="cls-5" d="M191.9,63.48v1.03h-4.75v-1.03h4.75Z"/>
          <path class="cls-5" d="M199.1,63.48v1.03h-4.75v-1.03h4.75Z"/>
          <path class="cls-5" d="M206.3,63.48v1.03h-4.75v-1.03h4.75Z"/>
          <path class="cls-5" d="M213.5,63.48v1.03h-4.75v-1.03h4.75Z"/>
          <path class="cls-5" d="M220.7,63.48v1.03h-4.75v-1.03h4.75Z"/>
          <path class="cls-5" d="M227.9,63.48v1.03h-4.75v-1.03h4.75Z"/>
          <path class="cls-5" d="M233.25,67.01h-1.06v-2.5h-2.2v-1.03h2.2v-2.5h1.06v2.5h2.2v1.03h-2.2v2.5Z"/>
          <path class="cls-5" d="M17.29,70.49v11.11h-1.13v-11.11h1.13Z"/>
          <path class="cls-5" d="M91.03,78.11c0,.22.04.38.13.5.09.12.26.18.5.2v.97c-.45.02-.79-.03-1.03-.15-.24-.12-.41-.29-.53-.53-.19.22-.45.4-.76.55-.32.15-.73.23-1.25.23-.33,0-.66-.07-.99-.22-.33-.15-.61-.37-.83-.68s-.33-.69-.33-1.16c0-.44.09-.8.27-1.09.18-.29.42-.52.72-.68s.63-.29.98-.37c.35-.08.7-.12,1.04-.14.34-.02.66-.02.94,0v-.17c0-.3-.03-.56-.09-.77-.06-.21-.18-.36-.37-.47-.19-.1-.49-.16-.89-.16-.26,0-.51.03-.76.08-.25.05-.54.16-.86.32l-.54-.9c.4-.2.8-.34,1.19-.43.4-.09.78-.13,1.16-.13.21,0,.44.02.71.05s.52.11.76.23.44.3.6.55.23.58.23,1.01v3.38ZM86.96,77.75c0,.33.13.58.38.77.25.18.53.28.85.28.48,0,.85-.1,1.11-.31.26-.2.46-.43.59-.68v-1.34c-.31-.02-.64-.03-.98-.02-.34.01-.66.06-.95.14s-.54.21-.72.4c-.18.18-.28.44-.28.77Z"/>
          <path class="cls-5" d="M96.24,79.87c-.98,0-1.75-.29-2.31-.89-.56-.6-.83-1.46-.83-2.57s.27-1.97.8-2.59c.54-.62,1.28-.93,2.24-.93.51,0,.97.13,1.38.4.41.27.72.64.92,1.11l-.89.42c-.14-.28-.33-.5-.58-.65s-.53-.23-.84-.23c-.61,0-1.08.22-1.43.65s-.52,1.04-.52,1.81.18,1.35.53,1.78c.36.43.86.64,1.51.64.37,0,.7-.07.99-.2.29-.14.57-.32.83-.54l.58.85c-.3.29-.66.51-1.08.68-.42.16-.86.25-1.32.26Z"/>
          <path class="cls-5" d="M104.91,79.68l-2.4-2.99-.74.82v2.17h-1.14v-9h1.14v5.26l2.62-2.86h1.32v.12l-2.48,2.71,2.98,3.65v.12h-1.28Z"/>
          <path class="cls-5" d="M107.75,79.68v-6.65h1l.11.8c.34-.27.73-.5,1.15-.68.42-.18.84-.27,1.24-.26.29,0,.56.07.82.22.26.15.46.39.62.72.16.33.23.77.23,1.33v4.52h-1.15v-4.33c0-.46-.08-.8-.23-1-.15-.2-.38-.31-.68-.31-.27,0-.57.07-.89.21-.32.14-.69.37-1.09.7v4.73h-1.12Z"/>
          <path class="cls-5" d="M117.53,79.87c-.61,0-1.13-.15-1.55-.44-.43-.29-.75-.7-.97-1.22-.22-.52-.32-1.13-.32-1.83s.11-1.32.32-1.84c.22-.52.54-.93.97-1.22.43-.29.95-.44,1.55-.44s1.14.15,1.56.44c.42.29.74.7.96,1.22.22.52.32,1.13.32,1.84s-.11,1.31-.32,1.83c-.22.52-.54.93-.96,1.22-.42.29-.94.44-1.56.44ZM117.53,78.83c.42,0,.76-.11,1.01-.32s.44-.5.55-.88c.12-.37.17-.79.17-1.25s-.06-.89-.17-1.25c-.12-.36-.3-.65-.55-.86s-.59-.32-1.01-.32-.75.11-1.01.32-.44.5-.56.86c-.12.36-.17.78-.17,1.25s.06.88.17,1.25c.12.37.3.66.56.88s.59.32,1.01.32Z"/>
          <path class="cls-5" d="M121.61,73.08h1.12c.02,1.12.06,2.14.14,3.05s.18,1.72.31,2.41l1.08-3.38h.96l1.08,3.38c.13-.7.23-1.5.31-2.41s.12-1.93.14-3.05h1.12c-.04,1.46-.13,2.74-.26,3.84-.14,1.1-.32,2.02-.54,2.76h-1.4l-.91-3.19-.91,3.19h-1.4c-.22-.74-.4-1.66-.54-2.76-.14-1.1-.22-2.38-.26-3.84Z"/>
          <path class="cls-5" d="M129.42,70.68h2.52v6.88c0,.16.02.32.06.49s.13.3.26.4c.14.1.34.16.61.16h1.38v1.08h-1.94c-.42,0-.74-.1-.96-.31s-.36-.47-.44-.79c-.08-.32-.11-.67-.11-1.03v-5.94l-1.38-.25v-.68Z"/>
          <path class="cls-5" d="M139.34,79.87c-.61,0-1.15-.13-1.62-.4-.47-.27-.84-.66-1.11-1.18-.27-.52-.4-1.15-.4-1.89,0-1.13.27-2,.8-2.6s1.26-.91,2.16-.91c.57,0,1.04.12,1.43.37.38.25.69.58.91.99s.35.86.4,1.36,0,.98-.13,1.46h-4.43c.06.43.18.78.38,1.04.2.26.45.45.76.56.3.12.63.17.97.17.18,0,.43-.03.76-.08s.68-.17,1.07-.35l.38.91c-.52.25-.96.4-1.33.46-.36.06-.7.09-1,.09ZM137.3,76.04h3.6c.03-.38-.02-.72-.14-1.04s-.33-.57-.61-.77c-.28-.2-.61-.29-1.01-.29s-.71.1-.99.29c-.28.2-.49.45-.63.77-.14.32-.22.66-.22,1.04Z"/>
          <path class="cls-5" d="M146.43,79.88c-.54,0-1.03-.15-1.49-.44s-.82-.7-1.1-1.22c-.28-.52-.41-1.13-.41-1.82,0-.74.12-1.36.37-1.87.25-.51.58-.89.99-1.16.41-.26.86-.4,1.34-.4.26,0,.51.05.74.14.23.09.44.22.61.38v-2.82h1.1v7.43c0,.44.25.67.74.7v.97c-.6.02-1.05-.09-1.36-.31-.22.12-.45.22-.71.3-.26.08-.54.12-.83.12ZM146.43,78.84c.4,0,.75-.06,1.06-.19v-4.1c-.13-.15-.29-.27-.5-.37s-.41-.14-.63-.14c-.62,0-1.08.21-1.38.63s-.44,1-.44,1.73c0,.49.08.92.25,1.28s.39.65.68.85c.28.2.61.3.97.3Z"/>
          <path class="cls-5" d="M151.43,80.22c.23.42.53.7.91.84.37.14.77.22,1.18.22.69,0,1.17-.11,1.46-.34s.43-.5.43-.82c0-.23-.1-.42-.31-.57-.21-.15-.61-.22-1.21-.22h-.64c-.8,0-1.39-.12-1.76-.37s-.56-.52-.56-.83c0-.2.06-.37.17-.5.12-.14.26-.25.42-.34s.31-.15.45-.18c-.32-.18-.58-.42-.79-.74-.21-.32-.31-.69-.31-1.11,0-.46.11-.86.34-1.22.23-.36.53-.64.92-.85.38-.2.82-.31,1.32-.31s.96.11,1.36.34c.2-.06.33-.2.38-.43.06-.23.08-.5.08-.8h1.22c0,.49-.07.88-.22,1.18-.14.3-.4.5-.78.61.16.2.28.43.37.68s.13.52.13.81c0,.53-.12.95-.37,1.27-.25.32-.58.55-.98.7-.41.15-.86.23-1.34.26-.35.02-.65.06-.88.13-.24.07-.35.18-.35.32,0,.11.07.19.21.25.14.05.31.08.52.1.2.01.41.02.62.02h.35c.97,0,1.67.16,2.09.49s.64.75.64,1.28c0,.64-.24,1.17-.73,1.58-.49.41-1.23.62-2.22.62-.67,0-1.26-.12-1.77-.37s-.91-.65-1.21-1.21l.86-.48ZM153.44,76.5c.47,0,.83-.11,1.08-.32s.37-.52.36-.91c0-.22-.06-.44-.17-.64-.11-.2-.27-.37-.49-.5s-.47-.2-.79-.2-.57.07-.79.2-.39.3-.5.5-.17.41-.18.64c0,.39.12.7.4.91.27.22.63.32,1.07.32Z"/>
          <path class="cls-5" d="M160.94,79.87c-.61,0-1.15-.13-1.62-.4-.47-.27-.84-.66-1.11-1.18-.27-.52-.4-1.15-.4-1.89,0-1.13.27-2,.8-2.6s1.26-.91,2.16-.91c.57,0,1.04.12,1.43.37.38.25.69.58.91.99s.35.86.4,1.36,0,.98-.13,1.46h-4.43c.06.43.18.78.38,1.04.2.26.45.45.76.56.3.12.63.17.97.17.18,0,.43-.03.76-.08s.68-.17,1.07-.35l.38.91c-.52.25-.96.4-1.33.46-.36.06-.7.09-1,.09ZM158.9,76.04h3.6c.03-.38-.02-.72-.14-1.04s-.33-.57-.61-.77c-.28-.2-.61-.29-1.01-.29s-.71.1-.99.29c-.28.2-.49.45-.63.77-.14.32-.22.66-.22,1.04Z"/>
          <path class="cls-5" d="M233.29,70.49v11.11h-1.13v-11.11h1.13Z"/>
          <path class="cls-5" d="M17.26,91.01h-1.06v-2.5h-2.2v-1.03h2.2v-2.5h1.06v2.5h2.2v1.03h-2.2v2.5Z"/>
          <path class="cls-5" d="M26.3,87.48v1.03h-4.75v-1.03h4.75Z"/>
          <path class="cls-5" d="M33.5,87.48v1.03h-4.75v-1.03h4.75Z"/>
          <path class="cls-5" d="M40.7,87.48v1.03h-4.75v-1.03h4.75Z"/>
          <path class="cls-5" d="M47.9,87.48v1.03h-4.75v-1.03h4.75Z"/>
          <path class="cls-5" d="M53.25,91.01h-1.06v-2.5h-2.2v-1.03h2.2v-2.5h1.06v2.5h2.2v1.03h-2.2v2.5Z"/>
          <path class="cls-5" d="M62.3,87.48v1.03h-4.75v-1.03h4.75Z"/>
          <path class="cls-5" d="M69.5,87.48v1.03h-4.75v-1.03h4.75Z"/>
          <path class="cls-5" d="M76.7,87.48v1.03h-4.75v-1.03h4.75Z"/>
          <path class="cls-5" d="M83.9,87.48v1.03h-4.75v-1.03h4.75Z"/>
          <path class="cls-5" d="M89.25,91.01h-1.06v-2.5h-2.2v-1.03h2.2v-2.5h1.06v2.5h2.2v1.03h-2.2v2.5Z"/>
          <path class="cls-5" d="M98.3,87.48v1.03h-4.75v-1.03h4.75Z"/>
          <path class="cls-5" d="M105.5,87.48v1.03h-4.75v-1.03h4.75Z"/>
          <path class="cls-5" d="M112.7,87.48v1.03h-4.75v-1.03h4.75Z"/>
          <path class="cls-5" d="M119.9,87.48v1.03h-4.75v-1.03h4.75Z"/>
          <path class="cls-5" d="M125.25,91.01h-1.06v-2.5h-2.2v-1.03h2.2v-2.5h1.06v2.5h2.2v1.03h-2.2v2.5Z"/>
          <path class="cls-5" d="M134.3,87.48v1.03h-4.75v-1.03h4.75Z"/>
          <path class="cls-5" d="M141.5,87.48v1.03h-4.75v-1.03h4.75Z"/>
          <path class="cls-5" d="M148.7,87.48v1.03h-4.75v-1.03h4.75Z"/>
          <path class="cls-5" d="M155.9,87.48v1.03h-4.75v-1.03h4.75Z"/>
          <path class="cls-5" d="M163.1,87.48v1.03h-4.75v-1.03h4.75Z"/>
          <path class="cls-5" d="M170.3,87.48v1.03h-4.75v-1.03h4.75Z"/>
          <path class="cls-5" d="M177.5,87.48v1.03h-4.75v-1.03h4.75Z"/>
          <path class="cls-5" d="M184.7,87.48v1.03h-4.75v-1.03h4.75Z"/>
          <path class="cls-5" d="M191.9,87.48v1.03h-4.75v-1.03h4.75Z"/>
          <path class="cls-5" d="M199.1,87.48v1.03h-4.75v-1.03h4.75Z"/>
          <path class="cls-5" d="M206.3,87.48v1.03h-4.75v-1.03h4.75Z"/>
          <path class="cls-5" d="M213.5,87.48v1.03h-4.75v-1.03h4.75Z"/>
          <path class="cls-5" d="M220.7,87.48v1.03h-4.75v-1.03h4.75Z"/>
          <path class="cls-5" d="M227.9,87.48v1.03h-4.75v-1.03h4.75Z"/>
          <path class="cls-5" d="M233.25,91.01h-1.06v-2.5h-2.2v-1.03h2.2v-2.5h1.06v2.5h2.2v1.03h-2.2v2.5Z"/>
          <path class="cls-5" d="M17.29,94.49v11.11h-1.13v-11.11h1.13Z"/>
          <path class="cls-5" d="M28.51,96.12c.37-.34.78-.62,1.25-.82s.98-.31,1.54-.31c.48,0,.9.11,1.27.33.37.22.65.52.86.89s.31.79.31,1.25c0,.5-.08.93-.23,1.28-.16.35-.35.66-.59.94-.24.27-.47.54-.71.8l-1.96,2.14h3.73v1.06h-5.32v-1.06l2.04-2.14c.29-.3.58-.59.87-.88.29-.29.54-.6.73-.94s.29-.69.29-1.09c0-.42-.13-.78-.4-1.08-.27-.3-.64-.44-1.11-.44-.32,0-.65.07-.99.22-.34.15-.65.35-.94.61l-.64-.77Z"/>
          <path class="cls-5" d="M38.36,103.87c-.58,0-1.05-.11-1.43-.34-.38-.22-.69-.54-.92-.94-.23-.4-.4-.87-.49-1.42-.1-.54-.14-1.13-.14-1.76s.05-1.23.14-1.77c.1-.54.26-1.01.49-1.41.23-.4.54-.71.92-.94.38-.22.86-.34,1.43-.34s1.05.11,1.43.34.68.54.9.94c.22.4.38.87.47,1.41s.14,1.13.14,1.77-.05,1.22-.14,1.76-.25,1.02-.47,1.42c-.22.4-.52.71-.9.94-.38.22-.85.34-1.43.34ZM36.52,99.41c0,.41.01.79.04,1.15.03.36.08.68.16.97l2.83-5.04c-.14-.14-.3-.25-.49-.33-.19-.08-.42-.11-.7-.11-.4,0-.72.08-.97.25-.25.17-.43.41-.56.71-.12.31-.21.67-.25,1.07-.04.41-.07.85-.07,1.33ZM38.36,102.8c.41,0,.73-.09.97-.26.24-.17.42-.41.53-.72.12-.31.19-.67.23-1.08s.06-.86.06-1.34c0-.39-.01-.76-.04-1.12-.02-.35-.07-.67-.14-.95l-2.81,5.03c.14.14.3.24.5.32.2.08.43.11.69.11Z"/>
          <path class="cls-5" d="M53.29,94.49v11.11h-1.13v-11.11h1.13Z"/>
          <path class="cls-5" d="M67.16,103.87c-.58,0-1.05-.11-1.43-.34-.38-.22-.69-.54-.92-.94-.23-.4-.4-.87-.49-1.42-.1-.54-.14-1.13-.14-1.76s.05-1.23.14-1.77c.1-.54.26-1.01.49-1.41.23-.4.54-.71.92-.94.38-.22.86-.34,1.43-.34s1.05.11,1.43.34.68.54.9.94c.22.4.38.87.47,1.41s.14,1.13.14,1.77-.05,1.22-.14,1.76-.25,1.02-.47,1.42c-.22.4-.52.71-.9.94-.38.22-.85.34-1.43.34ZM65.32,99.41c0,.41.01.79.04,1.15.03.36.08.68.16.97l2.83-5.04c-.14-.14-.3-.25-.49-.33-.19-.08-.42-.11-.7-.11-.4,0-.72.08-.97.25-.25.17-.43.41-.56.71-.12.31-.21.67-.25,1.07-.04.41-.07.85-.07,1.33ZM67.16,102.8c.41,0,.73-.09.97-.26.24-.17.42-.41.53-.72.12-.31.19-.67.23-1.08s.06-.86.06-1.34c0-.39-.01-.76-.04-1.12-.02-.35-.07-.67-.14-.95l-2.81,5.03c.14.14.3.24.5.32.2.08.43.11.69.11Z"/>
          <path class="cls-5" d="M74.36,103.87c-.58,0-1.05-.11-1.43-.34-.38-.22-.69-.54-.92-.94-.23-.4-.4-.87-.49-1.42-.1-.54-.14-1.13-.14-1.76s.05-1.23.14-1.77c.1-.54.26-1.01.49-1.41.23-.4.54-.71.92-.94.38-.22.86-.34,1.43-.34s1.05.11,1.43.34.68.54.9.94c.22.4.38.87.47,1.41s.14,1.13.14,1.77-.05,1.22-.14,1.76-.25,1.02-.47,1.42c-.22.4-.52.71-.9.94-.38.22-.85.34-1.43.34ZM72.52,99.41c0,.41.01.79.04,1.15.03.36.08.68.16.97l2.83-5.04c-.14-.14-.3-.25-.49-.33-.19-.08-.42-.11-.7-.11-.4,0-.72.08-.97.25-.25.17-.43.41-.56.71-.12.31-.21.67-.25,1.07-.04.41-.07.85-.07,1.33ZM74.36,102.8c.41,0,.73-.09.97-.26.24-.17.42-.41.53-.72.12-.31.19-.67.23-1.08s.06-.86.06-1.34c0-.39-.01-.76-.04-1.12-.02-.35-.07-.67-.14-.95l-2.81,5.03c.14.14.3.24.5.32.2.08.43.11.69.11Z"/>
          <path class="cls-5" d="M89.29,94.49v11.11h-1.13v-11.11h1.13Z"/>
          <path class="cls-5" d="M96.24,103.87c-.98,0-1.75-.29-2.31-.89-.56-.6-.83-1.46-.83-2.57s.27-1.97.8-2.59c.54-.62,1.28-.93,2.24-.93.51,0,.97.13,1.38.4.41.27.72.64.92,1.11l-.89.42c-.14-.28-.33-.5-.58-.65s-.53-.23-.84-.23c-.61,0-1.08.22-1.43.65s-.52,1.04-.52,1.81.18,1.35.53,1.78c.36.43.86.64,1.51.64.37,0,.7-.07.99-.2.29-.14.57-.32.83-.54l.58.85c-.3.29-.66.51-1.08.68-.42.16-.86.25-1.32.26Z"/>
          <path class="cls-5" d="M103.63,103.68c-.42,0-.74-.1-.95-.31s-.35-.47-.43-.79c-.07-.32-.11-.67-.11-1.03v-3.42h-1.79v-1.06h1.79v-1.55h1.14v1.55h2.39v1.06h-2.39v3.42c0,.16.02.32.05.49s.12.3.26.4c.14.1.34.16.62.16h1.42v1.08h-2Z"/>
          <path class="cls-5" d="M107.51,103.68v-.98h1.3v-4.82l-1.06-.19v-.7h2.04l.12.88c.28-.26.58-.49.89-.69.31-.2.65-.29,1.01-.28.34,0,.65.09.93.23.28.15.5.36.65.64l-.82.71c-.13-.16-.28-.28-.47-.36-.18-.08-.38-.12-.58-.12-.26,0-.52.09-.77.28-.25.18-.52.42-.81.71v3.72h2.39v.98h-4.82Z"/>
          <path class="cls-5" d="M115.02,94.68h2.52v6.88c0,.16.02.32.06.49s.13.3.26.4c.14.1.34.16.61.16h1.38v1.08h-1.94c-.42,0-.74-.1-.96-.31s-.36-.47-.44-.79c-.08-.32-.11-.67-.11-1.03v-5.94l-1.38-.25v-.68Z"/>
          <path class="cls-5" d="M125.29,94.49v11.11h-1.13v-11.11h1.13Z"/>
          <path class="cls-5" d="M157.61,97.08h1.12c.02,1.12.06,2.14.14,3.05s.18,1.72.31,2.41l1.08-3.38h.96l1.08,3.38c.13-.7.23-1.5.31-2.41s.12-1.93.14-3.05h1.12c-.04,1.46-.13,2.74-.26,3.84-.14,1.1-.32,2.02-.54,2.76h-1.4l-.91-3.19-.91,3.19h-1.4c-.22-.74-.4-1.66-.54-2.76-.14-1.1-.22-2.38-.26-3.84Z"/>
          <path class="cls-5" d="M165.32,103.68v-1.03h2.23v-4.02h-1.6v-1.06h2.65v5.08h1.92v1.03h-5.21ZM167.94,96.41c-.25,0-.46-.09-.65-.28s-.28-.41-.28-.68.09-.49.28-.68c.18-.19.4-.28.65-.28.26,0,.48.09.66.28.18.19.26.41.26.68s-.09.5-.26.68c-.18.18-.4.28-.66.28Z"/>
          <path class="cls-5" d="M172.54,103.68v-6.65h1l.11.8c.34-.27.73-.5,1.15-.68.42-.18.84-.27,1.24-.26.29,0,.56.07.82.22.26.15.46.39.62.72.16.33.23.77.23,1.33v4.52h-1.15v-4.33c0-.46-.08-.8-.23-1-.15-.2-.38-.31-.68-.31-.27,0-.57.07-.89.21-.32.14-.69.37-1.09.7v4.73h-1.12Z"/>
          <path class="cls-5" d="M182.43,103.88c-.54,0-1.03-.15-1.49-.44s-.82-.7-1.1-1.22c-.28-.52-.41-1.13-.41-1.82,0-.74.12-1.36.37-1.87.25-.51.58-.89.99-1.16.41-.26.86-.4,1.34-.4.26,0,.51.05.74.14.23.09.44.22.61.38v-2.82h1.1v7.43c0,.44.25.67.74.7v.97c-.6.02-1.05-.09-1.36-.31-.22.12-.45.22-.71.3-.26.08-.54.12-.83.12ZM182.43,102.84c.4,0,.75-.06,1.06-.19v-4.1c-.13-.15-.29-.27-.5-.37s-.41-.14-.63-.14c-.62,0-1.08.21-1.38.63s-.44,1-.44,1.73c0,.49.08.92.25,1.28s.39.65.68.85c.28.2.61.3.97.3Z"/>
          <path class="cls-5" d="M189.52,103.87c-.61,0-1.13-.15-1.55-.44-.43-.29-.75-.7-.97-1.22-.22-.52-.32-1.13-.32-1.83s.11-1.32.32-1.84c.22-.52.54-.93.97-1.22.43-.29.95-.44,1.55-.44s1.14.15,1.56.44c.42.29.74.7.96,1.22.22.52.32,1.13.32,1.84s-.11,1.31-.32,1.83c-.22.52-.54.93-.96,1.22-.42.29-.94.44-1.56.44ZM189.52,102.83c.42,0,.76-.11,1.01-.32s.44-.5.55-.88c.12-.37.17-.79.17-1.25s-.06-.89-.17-1.25c-.12-.36-.3-.65-.55-.86s-.59-.32-1.01-.32-.75.11-1.01.32-.44.5-.56.86c-.12.36-.17.78-.17,1.25s.06.88.17,1.25c.12.37.3.66.56.88s.59.32,1.01.32Z"/>
          <path class="cls-5" d="M193.6,97.08h1.12c.02,1.12.06,2.14.14,3.05s.18,1.72.31,2.41l1.08-3.38h.96l1.08,3.38c.13-.7.23-1.5.31-2.41s.12-1.93.14-3.05h1.12c-.04,1.46-.13,2.74-.26,3.84-.14,1.1-.32,2.02-.54,2.76h-1.4l-.91-3.19-.91,3.19h-1.4c-.22-.74-.4-1.66-.54-2.76-.14-1.1-.22-2.38-.26-3.84Z"/>
          <path class="cls-5" d="M233.29,94.49v11.11h-1.13v-11.11h1.13Z"/>
          <path class="cls-5" d="M17.26,115.01h-1.06v-2.5h-2.2v-1.03h2.2v-2.5h1.06v2.5h2.2v1.03h-2.2v2.5Z"/>
          <path class="cls-5" d="M26.3,111.48v1.03h-4.75v-1.03h4.75Z"/>
          <path class="cls-5" d="M33.5,111.48v1.03h-4.75v-1.03h4.75Z"/>
          <path class="cls-5" d="M40.7,111.48v1.03h-4.75v-1.03h4.75Z"/>
          <path class="cls-5" d="M47.9,111.48v1.03h-4.75v-1.03h4.75Z"/>
          <path class="cls-5" d="M53.25,115.01h-1.06v-2.5h-2.2v-1.03h2.2v-2.5h1.06v2.5h2.2v1.03h-2.2v2.5Z"/>
          <path class="cls-5" d="M62.3,111.48v1.03h-4.75v-1.03h4.75Z"/>
          <path class="cls-5" d="M69.5,111.48v1.03h-4.75v-1.03h4.75Z"/>
          <path class="cls-5" d="M76.7,111.48v1.03h-4.75v-1.03h4.75Z"/>
          <path class="cls-5" d="M83.9,111.48v1.03h-4.75v-1.03h4.75Z"/>
          <path class="cls-5" d="M89.25,115.01h-1.06v-2.5h-2.2v-1.03h2.2v-2.5h1.06v2.5h2.2v1.03h-2.2v2.5Z"/>
          <path class="cls-5" d="M98.3,111.48v1.03h-4.75v-1.03h4.75Z"/>
          <path class="cls-5" d="M105.5,111.48v1.03h-4.75v-1.03h4.75Z"/>
          <path class="cls-5" d="M112.7,111.48v1.03h-4.75v-1.03h4.75Z"/>
          <path class="cls-5" d="M119.9,111.48v1.03h-4.75v-1.03h4.75Z"/>
          <path class="cls-5" d="M125.25,115.01h-1.06v-2.5h-2.2v-1.03h2.2v-2.5h1.06v2.5h2.2v1.03h-2.2v2.5Z"/>
          <path class="cls-5" d="M134.3,111.48v1.03h-4.75v-1.03h4.75Z"/>
          <path class="cls-5" d="M141.5,111.48v1.03h-4.75v-1.03h4.75Z"/>
          <path class="cls-5" d="M148.7,111.48v1.03h-4.75v-1.03h4.75Z"/>
          <path class="cls-5" d="M155.9,111.48v1.03h-4.75v-1.03h4.75Z"/>
          <path class="cls-5" d="M163.1,111.48v1.03h-4.75v-1.03h4.75Z"/>
          <path class="cls-5" d="M170.3,111.48v1.03h-4.75v-1.03h4.75Z"/>
          <path class="cls-5" d="M177.5,111.48v1.03h-4.75v-1.03h4.75Z"/>
          <path class="cls-5" d="M184.7,111.48v1.03h-4.75v-1.03h4.75Z"/>
          <path class="cls-5" d="M191.9,111.48v1.03h-4.75v-1.03h4.75Z"/>
          <path class="cls-5" d="M199.1,111.48v1.03h-4.75v-1.03h4.75Z"/>
          <path class="cls-5" d="M206.3,111.48v1.03h-4.75v-1.03h4.75Z"/>
          <path class="cls-5" d="M213.5,111.48v1.03h-4.75v-1.03h4.75Z"/>
          <path class="cls-5" d="M220.7,111.48v1.03h-4.75v-1.03h4.75Z"/>
          <path class="cls-5" d="M227.9,111.48v1.03h-4.75v-1.03h4.75Z"/>
          <path class="cls-5" d="M233.25,115.01h-1.06v-2.5h-2.2v-1.03h2.2v-2.5h1.06v2.5h2.2v1.03h-2.2v2.5Z"/>
          <path class="cls-5" d="M17.29,118.49v11.11h-1.13v-11.11h1.13Z"/>
          <path class="cls-5" d="M45.84,127.87c-.98,0-1.75-.29-2.31-.89-.56-.6-.83-1.46-.83-2.57s.27-1.97.8-2.59c.54-.62,1.28-.93,2.24-.93.51,0,.97.13,1.38.4.41.27.72.64.92,1.11l-.89.42c-.14-.28-.33-.5-.58-.65s-.53-.23-.84-.23c-.61,0-1.08.22-1.43.65s-.52,1.04-.52,1.81.18,1.35.53,1.78c.36.43.86.64,1.51.64.37,0,.7-.07.99-.2.29-.14.57-.32.83-.54l.58.85c-.3.29-.66.51-1.08.68-.42.16-.86.25-1.32.26Z"/>
          <path class="cls-5" d="M50.46,127.68v-8.11l-1.07-.19v-.7h2.17v3.3c.34-.23.69-.43,1.07-.59s.76-.24,1.13-.23c.32,0,.61.07.86.2.25.14.45.36.6.67.15.31.22.74.22,1.27v4.38h-1.14v-4.07c0-.46-.08-.8-.23-1-.15-.2-.38-.3-.7-.3-.26,0-.53.06-.83.18-.3.12-.63.32-1,.6v4.58h-1.1Z"/>
          <path class="cls-5" d="M60.14,127.87c-.61,0-1.15-.13-1.62-.4-.47-.27-.84-.66-1.11-1.18-.27-.52-.4-1.15-.4-1.89,0-1.13.27-2,.8-2.6s1.26-.91,2.16-.91c.57,0,1.04.12,1.43.37.38.25.69.58.91.99s.35.86.4,1.36,0,.98-.13,1.46h-4.43c.06.43.18.78.38,1.04.2.26.45.45.76.56.3.12.63.17.97.17.18,0,.43-.03.76-.08s.68-.17,1.07-.35l.38.91c-.52.25-.96.4-1.33.46-.36.06-.7.09-1,.09ZM58.1,124.04h3.6c.03-.38-.02-.72-.14-1.04s-.33-.57-.61-.77c-.28-.2-.61-.29-1.01-.29s-.71.1-.99.29c-.28.2-.49.45-.63.77-.14.32-.22.66-.22,1.04Z"/>
          <path class="cls-5" d="M67.44,127.87c-.98,0-1.75-.29-2.31-.89-.56-.6-.83-1.46-.83-2.57s.27-1.97.8-2.59c.54-.62,1.28-.93,2.24-.93.51,0,.97.13,1.38.4.41.27.72.64.92,1.11l-.89.42c-.14-.28-.33-.5-.58-.65s-.53-.23-.84-.23c-.61,0-1.08.22-1.43.65s-.52,1.04-.52,1.81.18,1.35.53,1.78c.36.43.86.64,1.51.64.37,0,.7-.07.99-.2.29-.14.57-.32.83-.54l.58.85c-.3.29-.66.51-1.08.68-.42.16-.86.25-1.32.26Z"/>
          <path class="cls-5" d="M76.12,127.68l-2.4-2.99-.74.82v2.17h-1.14v-9h1.14v5.26l2.62-2.86h1.32v.12l-2.48,2.71,2.98,3.65v.12h-1.28Z"/>
          <path class="cls-5" d="M78.9,126.84l.71-.8c.31.22.64.4,1,.55.35.15.7.22,1.04.22.46,0,.8-.08,1.03-.23.23-.15.35-.35.35-.59s-.09-.43-.28-.59c-.19-.16-.43-.3-.72-.43s-.6-.25-.93-.37-.64-.26-.94-.41c-.3-.16-.54-.35-.72-.58-.18-.23-.28-.51-.28-.85,0-.3.08-.57.23-.8.15-.23.35-.43.6-.59s.52-.28.81-.36.58-.12.86-.12c.48,0,.9.08,1.26.25.36.16.71.4,1.06.7l-.7.77c-.26-.21-.52-.37-.77-.49s-.53-.17-.85-.17c-.34,0-.65.07-.93.22s-.42.34-.44.57c0,.18.08.33.26.46.18.13.42.26.72.38s.61.25.94.39c.33.14.64.29.94.47.29.18.53.39.73.64.19.25.29.54.29.89,0,.57-.22,1.02-.66,1.37-.44.34-1.06.52-1.86.52-.52,0-1.02-.1-1.51-.29-.49-.2-.9-.44-1.24-.73Z"/>
          <path class="cls-5" d="M87.87,127.87c-.34,0-.66-.1-.94-.26s-.51-.45-.67-.83c-.16-.39-.24-.91-.24-1.57v-4.13h1.14v3.52c0,.41.03.77.08,1.09.05.32.15.57.3.75.15.18.37.28.67.28.27,0,.55-.06.85-.19s.62-.34.98-.65v-4.79h1.12v5.03c0,.22.05.38.14.5.1.12.27.18.52.2v.97c-.5.02-.88-.04-1.12-.2-.24-.16-.42-.39-.53-.7-.34.27-.7.51-1.09.71-.39.2-.79.3-1.21.29Z"/>
          <path class="cls-5" d="M92.94,127.68c-.05-.98-.08-2.05-.08-3.19,0-1.14.01-2.29.06-3.46h.95l.08.62c.22-.23.45-.42.71-.56.26-.14.5-.21.72-.21.25,0,.45.07.62.21s.28.33.35.56c.2-.22.43-.41.68-.55.26-.14.5-.22.72-.22.35,0,.64.13.85.38.22.25.34.61.36,1.09.07,1.74.06,3.51-.04,5.33h-1.1c.03-.58.05-1.16.07-1.75s.02-1.16.02-1.72,0-1.05-.02-1.5c0-.26-.04-.46-.11-.62-.06-.16-.21-.24-.43-.24-.15,0-.31.07-.48.22-.17.15-.31.31-.43.49l-.07,4.2h-.89l-.06-4.09c0-.26-.05-.46-.13-.6-.08-.14-.21-.22-.39-.22-.16,0-.32.07-.49.21s-.32.3-.46.49c-.03.81-.04,1.65-.01,2.51.02.87.06,1.74.1,2.62h-1.1Z"/>
          <path class="cls-5" d="M125.29,118.49v11.11h-1.13v-11.11h1.13Z"/>
          <path class="cls-5" d="M159.87,127.87c-.34,0-.66-.1-.94-.26s-.51-.45-.67-.83c-.16-.39-.24-.91-.24-1.57v-4.13h1.14v3.52c0,.41.03.77.08,1.09.05.32.15.57.3.75.15.18.37.28.67.28.27,0,.55-.06.85-.19s.62-.34.98-.65v-4.79h1.12v5.03c0,.22.05.38.14.5.1.12.27.18.52.2v.97c-.5.02-.88-.04-1.12-.2-.24-.16-.42-.39-.53-.7-.34.27-.7.51-1.09.71-.39.2-.79.3-1.21.29Z"/>
          <path class="cls-5" d="M165.1,127.68v-.98h1.3v-4.82l-1.06-.19v-.7h2.04l.12.88c.28-.26.58-.49.89-.69.31-.2.65-.29,1.01-.28.34,0,.65.09.93.23.28.15.5.36.65.64l-.82.71c-.13-.16-.28-.28-.47-.36-.18-.08-.38-.12-.58-.12-.26,0-.52.09-.77.28-.25.18-.52.42-.81.71v3.72h2.39v.98h-4.82Z"/>
          <path class="cls-5" d="M173.03,128.22c.23.42.53.7.91.84.37.14.77.22,1.18.22.69,0,1.17-.11,1.46-.34s.43-.5.43-.82c0-.23-.1-.42-.31-.57-.21-.15-.61-.22-1.21-.22h-.64c-.8,0-1.39-.12-1.76-.37s-.56-.52-.56-.83c0-.2.06-.37.17-.5.12-.14.26-.25.42-.34s.31-.15.45-.18c-.32-.18-.58-.42-.79-.74-.21-.32-.31-.69-.31-1.11,0-.46.11-.86.34-1.22.23-.36.53-.64.92-.85.38-.2.82-.31,1.32-.31s.96.11,1.36.34c.2-.06.33-.2.38-.43.06-.23.08-.5.08-.8h1.22c0,.49-.07.88-.22,1.18-.14.3-.4.5-.78.61.16.2.28.43.37.68s.13.52.13.81c0,.53-.12.95-.37,1.27-.25.32-.58.55-.98.7-.41.15-.86.23-1.34.26-.35.02-.65.06-.88.13-.24.07-.35.18-.35.32,0,.11.07.19.21.25.14.05.31.08.52.1.2.01.41.02.62.02h.35c.97,0,1.67.16,2.09.49s.64.75.64,1.28c0,.64-.24,1.17-.73,1.58-.49.41-1.23.62-2.22.62-.67,0-1.26-.12-1.77-.37s-.91-.65-1.21-1.21l.86-.48ZM175.04,124.5c.47,0,.83-.11,1.08-.32s.37-.52.36-.91c0-.22-.06-.44-.17-.64-.11-.2-.27-.37-.49-.5s-.47-.2-.79-.2-.57.07-.79.2-.39.3-.5.5-.17.41-.18.64c0,.39.12.7.4.91.27.22.63.32,1.07.32Z"/>
          <path class="cls-5" d="M182.54,127.87c-.61,0-1.15-.13-1.62-.4-.47-.27-.84-.66-1.11-1.18-.27-.52-.4-1.15-.4-1.89,0-1.13.27-2,.8-2.6s1.26-.91,2.16-.91c.57,0,1.04.12,1.43.37.38.25.69.58.91.99s.35.86.4,1.36,0,.98-.13,1.46h-4.43c.06.43.18.78.38,1.04.2.26.45.45.76.56.3.12.63.17.97.17.18,0,.43-.03.76-.08s.68-.17,1.07-.35l.38.91c-.52.25-.96.4-1.33.46-.36.06-.7.09-1,.09ZM180.5,124.04h3.6c.03-.38-.02-.72-.14-1.04s-.33-.57-.61-.77c-.28-.2-.61-.29-1.01-.29s-.71.1-.99.29c-.28.2-.49.45-.63.77-.14.32-.22.66-.22,1.04Z"/>
          <path class="cls-5" d="M186.94,127.68v-6.65h1l.11.8c.34-.27.73-.5,1.15-.68.42-.18.84-.27,1.24-.26.29,0,.56.07.82.22.26.15.46.39.62.72.16.33.23.77.23,1.33v4.52h-1.15v-4.33c0-.46-.08-.8-.23-1-.15-.2-.38-.31-.68-.31-.27,0-.57.07-.89.21-.32.14-.69.37-1.09.7v4.73h-1.12Z"/>
          <path class="cls-5" d="M197.23,127.68c-.42,0-.74-.1-.95-.31s-.35-.47-.43-.79c-.07-.32-.11-.67-.11-1.03v-3.42h-1.79v-1.06h1.79v-1.55h1.14v1.55h2.39v1.06h-2.39v3.42c0,.16.02.32.05.49s.12.3.26.4c.14.1.34.16.62.16h1.42v1.08h-2Z"/>
          <path class="cls-5" d="M233.29,118.49v11.11h-1.13v-11.11h1.13Z"/>
          <path class="cls-5" d="M17.26,139.01h-1.06v-2.5h-2.2v-1.03h2.2v-2.5h1.06v2.5h2.2v1.03h-2.2v2.5Z"/>
          <path class="cls-5" d="M26.3,135.48v1.03h-4.75v-1.03h4.75Z"/>
          <path class="cls-5" d="M33.5,135.48v1.03h-4.75v-1.03h4.75Z"/>
          <path class="cls-5" d="M40.7,135.48v1.03h-4.75v-1.03h4.75Z"/>
          <path class="cls-5" d="M47.9,135.48v1.03h-4.75v-1.03h4.75Z"/>
          <path class="cls-5" d="M55.1,135.48v1.03h-4.75v-1.03h4.75Z"/>
          <path class="cls-5" d="M62.3,135.48v1.03h-4.75v-1.03h4.75Z"/>
          <path class="cls-5" d="M69.5,135.48v1.03h-4.75v-1.03h4.75Z"/>
          <path class="cls-5" d="M76.7,135.48v1.03h-4.75v-1.03h4.75Z"/>
          <path class="cls-5" d="M83.9,135.48v1.03h-4.75v-1.03h4.75Z"/>
          <path class="cls-5" d="M91.1,135.48v1.03h-4.75v-1.03h4.75Z"/>
          <path class="cls-5" d="M98.3,135.48v1.03h-4.75v-1.03h4.75Z"/>
          <path class="cls-5" d="M105.5,135.48v1.03h-4.75v-1.03h4.75Z"/>
          <path class="cls-5" d="M112.7,135.48v1.03h-4.75v-1.03h4.75Z"/>
          <path class="cls-5" d="M119.9,135.48v1.03h-4.75v-1.03h4.75Z"/>
          <path class="cls-5" d="M125.25,139.01h-1.06v-2.5h-2.2v-1.03h2.2v-2.5h1.06v2.5h2.2v1.03h-2.2v2.5Z"/>
          <path class="cls-5" d="M134.3,135.48v1.03h-4.75v-1.03h4.75Z"/>
          <path class="cls-5" d="M141.5,135.48v1.03h-4.75v-1.03h4.75Z"/>
          <path class="cls-5" d="M148.7,135.48v1.03h-4.75v-1.03h4.75Z"/>
          <path class="cls-5" d="M155.9,135.48v1.03h-4.75v-1.03h4.75Z"/>
          <path class="cls-5" d="M163.1,135.48v1.03h-4.75v-1.03h4.75Z"/>
          <path class="cls-5" d="M170.3,135.48v1.03h-4.75v-1.03h4.75Z"/>
          <path class="cls-5" d="M177.5,135.48v1.03h-4.75v-1.03h4.75Z"/>
          <path class="cls-5" d="M184.7,135.48v1.03h-4.75v-1.03h4.75Z"/>
          <path class="cls-5" d="M191.9,135.48v1.03h-4.75v-1.03h4.75Z"/>
          <path class="cls-5" d="M199.1,135.48v1.03h-4.75v-1.03h4.75Z"/>
          <path class="cls-5" d="M206.3,135.48v1.03h-4.75v-1.03h4.75Z"/>
          <path class="cls-5" d="M213.5,135.48v1.03h-4.75v-1.03h4.75Z"/>
          <path class="cls-5" d="M220.7,135.48v1.03h-4.75v-1.03h4.75Z"/>
          <path class="cls-5" d="M227.9,135.48v1.03h-4.75v-1.03h4.75Z"/>
          <path class="cls-5" d="M233.25,139.01h-1.06v-2.5h-2.2v-1.03h2.2v-2.5h1.06v2.5h2.2v1.03h-2.2v2.5Z"/>
          <path class="cls-5" d="M17.29,142.49v11.11h-1.13v-11.11h1.13Z"/>
          <path class="cls-5" d="M110.43,151.88c-.54,0-1.03-.15-1.49-.44s-.82-.7-1.1-1.22c-.28-.52-.41-1.13-.41-1.82,0-.74.12-1.36.37-1.87.25-.51.58-.89.99-1.16.41-.26.86-.4,1.34-.4.26,0,.51.05.74.14.23.09.44.22.61.38v-2.82h1.1v7.43c0,.44.25.67.74.7v.97c-.6.02-1.05-.09-1.36-.31-.22.12-.45.22-.71.3-.26.08-.54.12-.83.12ZM110.43,150.84c.4,0,.75-.06,1.06-.19v-4.1c-.13-.15-.29-.27-.5-.37s-.41-.14-.63-.14c-.62,0-1.08.21-1.38.63s-.44,1-.44,1.73c0,.49.08.92.25,1.28s.39.65.68.85c.28.2.61.3.97.3Z"/>
          <path class="cls-5" d="M119.83,150.11c0,.22.04.38.13.5.09.12.26.18.5.2v.97c-.45.02-.79-.03-1.03-.15-.24-.12-.41-.29-.53-.53-.19.22-.45.4-.76.55-.32.15-.73.23-1.25.23-.33,0-.66-.07-.99-.22-.33-.15-.61-.37-.83-.68s-.33-.69-.33-1.16c0-.44.09-.8.27-1.09.18-.29.42-.52.72-.68s.63-.29.98-.37c.35-.08.7-.12,1.04-.14.34-.02.66-.02.94,0v-.17c0-.3-.03-.56-.09-.77-.06-.21-.18-.36-.37-.47-.19-.1-.49-.16-.89-.16-.26,0-.51.03-.76.08-.25.05-.54.16-.86.32l-.54-.9c.4-.2.8-.34,1.19-.43.4-.09.78-.13,1.16-.13.21,0,.44.02.71.05s.52.11.76.23.44.3.6.55.23.58.23,1.01v3.38ZM115.76,149.75c0,.33.13.58.38.77.25.18.53.28.85.28.48,0,.85-.1,1.11-.31.26-.2.46-.43.59-.68v-1.34c-.31-.02-.64-.03-.98-.02-.34.01-.66.06-.95.14s-.54.21-.72.4c-.18.18-.28.44-.28.77Z"/>
          <path class="cls-5" d="M125.23,151.68c-.42,0-.74-.1-.95-.31s-.35-.47-.43-.79c-.07-.32-.11-.67-.11-1.03v-3.42h-1.79v-1.06h1.79v-1.55h1.14v1.55h2.39v1.06h-2.39v3.42c0,.16.02.32.05.49s.12.3.26.4c.14.1.34.16.62.16h1.42v1.08h-2Z"/>
          <path class="cls-5" d="M134.23,150.11c0,.22.04.38.13.5.09.12.26.18.5.2v.97c-.45.02-.79-.03-1.03-.15-.24-.12-.41-.29-.53-.53-.19.22-.45.4-.76.55-.32.15-.73.23-1.25.23-.33,0-.66-.07-.99-.22-.33-.15-.61-.37-.83-.68s-.33-.69-.33-1.16c0-.44.09-.8.27-1.09.18-.29.42-.52.72-.68s.63-.29.98-.37c.35-.08.7-.12,1.04-.14.34-.02.66-.02.94,0v-.17c0-.3-.03-.56-.09-.77-.06-.21-.18-.36-.37-.47-.19-.1-.49-.16-.89-.16-.26,0-.51.03-.76.08-.25.05-.54.16-.86.32l-.54-.9c.4-.2.8-.34,1.19-.43.4-.09.78-.13,1.16-.13.21,0,.44.02.71.05s.52.11.76.23.44.3.6.55.23.58.23,1.01v3.38ZM130.16,149.75c0,.33.13.58.38.77.25.18.53.28.85.28.48,0,.85-.1,1.11-.31.26-.2.46-.43.59-.68v-1.34c-.31-.02-.64-.03-.98-.02-.34.01-.66.06-.95.14s-.54.21-.72.4c-.18.18-.28.44-.28.77Z"/>
          <path class="cls-5" d="M233.29,142.49v11.11h-1.13v-11.11h1.13Z"/>
          <path class="cls-5" d="M17.29,154.49v11.11h-1.13v-11.11h1.13Z"/>
          <path class="cls-5" d="M233.29,154.49v11.11h-1.13v-11.11h1.13Z"/>
        </g>
        <g>
          <path class="cls-4" d="M51.33,104.41v-29.86h-9.84v-4.22h24.19v4.22h-9.84v29.86h-4.51Z"/>
          <path class="cls-4" d="M83.74,105.18c-4.48,0-7.94-1.54-10.39-4.63-2.45-3.09-3.67-7.43-3.67-13.03s1.16-10.03,3.48-13.2c2.32-3.17,5.59-4.75,9.82-4.75,2.75,0,5.07.65,6.96,1.94,1.89,1.3,3.41,3.22,4.56,5.78l-3.74,1.92c-.83-1.7-1.87-3.01-3.12-3.94-1.25-.93-2.78-1.39-4.61-1.39-2.75,0-4.9,1.2-6.43,3.6-1.54,2.4-2.3,5.75-2.3,10.03s.82,7.5,2.47,9.84,3.98,3.5,6.98,3.5c1.63,0,3.13-.26,4.49-.77,1.36-.51,2.73-1.36,4.1-2.54l2.54,3.41c-1.63,1.44-3.34,2.5-5.14,3.19-1.79.69-3.79,1.03-6,1.03Z"/>
          <path class="cls-4" d="M99.67,104.41v-34.08h12.67c3.78,0,6.54.98,8.3,2.93,1.76,1.95,2.64,4.56,2.64,7.82s-.9,5.87-2.71,7.82c-1.81,1.95-4.55,2.93-8.23,2.93h-8.11v12.58h-4.56ZM104.23,87.61h8.11c2.21,0,3.84-.62,4.9-1.87,1.06-1.25,1.58-2.8,1.58-4.66,0-1.98-.53-3.57-1.58-4.75-1.06-1.18-2.69-1.78-4.9-1.78h-8.11v13.06Z"/>
          <path class="cls-4" d="M142.82,68.41h4.7v.48l-12.34,41.28h-4.66v-.48l12.29-41.28Z"/>
          <path class="cls-4" d="M158.28,74.17c1.47-1.38,3.14-2.47,4.99-3.29,1.86-.82,3.9-1.22,6.14-1.22,1.92,0,3.62.44,5.09,1.32,1.47.88,2.62,2.06,3.43,3.55.82,1.49,1.22,3.16,1.22,5.02,0,2.02-.31,3.73-.94,5.14-.62,1.41-1.41,2.66-2.35,3.74-.94,1.09-1.9,2.16-2.86,3.22l-7.82,8.54h14.93v4.22h-21.26v-4.22l8.16-8.54c1.15-1.18,2.31-2.36,3.48-3.53s2.14-2.42,2.93-3.74c.78-1.33,1.18-2.78,1.18-4.34,0-1.7-.54-3.14-1.61-4.32-1.07-1.18-2.55-1.78-4.44-1.78-1.28,0-2.6.3-3.96.89-1.36.59-2.62,1.4-3.77,2.42l-2.54-3.07Z"/>
          <path class="cls-4" d="M207.96,95.05c0,1.98-.42,3.74-1.25,5.26s-2.02,2.71-3.55,3.58c-1.54.86-3.36,1.3-5.47,1.3-2.43,0-4.46-.3-6.1-.91-1.63-.61-3.26-1.5-4.9-2.69l2.3-3.55c1.06.8,2.22,1.49,3.48,2.06,1.26.58,2.71.86,4.34.86,2.18,0,3.82-.59,4.92-1.78,1.1-1.18,1.66-2.56,1.66-4.13,0-1.7-.65-3.11-1.94-4.25-1.3-1.14-3.1-1.7-5.4-1.7h-2.5v-4.13h2.59c2.24,0,3.89-.56,4.94-1.68,1.06-1.12,1.58-2.56,1.58-4.32s-.55-2.97-1.66-3.82c-1.1-.85-2.44-1.27-4.01-1.27-1.12,0-2.3.29-3.53.86-1.23.58-2.34,1.38-3.34,2.4l-3.02-2.98c2.85-3.01,6.34-4.51,10.46-4.51,1.86,0,3.51.37,4.97,1.1,1.46.74,2.6,1.78,3.43,3.12s1.25,2.93,1.25,4.75c0,1.7-.38,3.27-1.13,4.73s-1.86,2.63-3.34,3.53c1.47.67,2.7,1.74,3.7,3.19.99,1.46,1.49,3.11,1.49,4.97Z"/>
        </g>
        <circle class="cls-3" cx="229.61" cy="19.84" r="8.5"/>
      </g>
    </g>
  </g>
</svg>